<?xml version="1.0" encoding="utf-8"?>
<!-- Generator: Adobe Illustrator 23.0.1, SVG Export Plug-In . SVG Version: 6.00 Build 0)  -->
<!DOCTYPE svg PUBLIC "-//W3C//DTD SVG 1.1//EN" "http://www.w3.org/Graphics/SVG/1.1/DTD/svg11.dtd" [
	<!ENTITY ns_extend "http://ns.adobe.com/Extensibility/1.0/">
	<!ENTITY ns_ai "http://ns.adobe.com/AdobeIllustrator/10.0/">
	<!ENTITY ns_graphs "http://ns.adobe.com/Graphs/1.0/">
	<!ENTITY ns_vars "http://ns.adobe.com/Variables/1.0/">
	<!ENTITY ns_imrep "http://ns.adobe.com/ImageReplacement/1.0/">
	<!ENTITY ns_sfw "http://ns.adobe.com/SaveForWeb/1.0/">
	<!ENTITY ns_custom "http://ns.adobe.com/GenericCustomNamespace/1.0/">
	<!ENTITY ns_adobe_xpath "http://ns.adobe.com/XPath/1.0/">
]>
<svg version="1.1" id="Layer_1" xmlns:x="&ns_extend;" xmlns:i="&ns_ai;" xmlns:graph="&ns_graphs;"
	 xmlns="http://www.w3.org/2000/svg" xmlns:xlink="http://www.w3.org/1999/xlink" x="0px" y="0px" viewBox="0 0 48 48"
	 style="enable-background:new 0 0 48 48;" xml:space="preserve">
<style type="text/css">
	.st0{fill:#FFD659;}
	.st1{fill:none;stroke:#F0C74A;stroke-width:2;stroke-linecap:round;stroke-miterlimit:10;}
	.st2{fill:#664D08;}
</style>
<metadata>
	<sfw  xmlns="&ns_sfw;">
		<slices></slices>
		<sliceSourceBounds  bottomLeftOrigin="true" height="48" width="48" x="0" y="-48"></sliceSourceBounds>
	</sfw>
</metadata>
<g>
	<path class="st0" d="M24,47C11.3,47,1,36.7,1,24C1,11.3,11.3,1,24,1c12.7,0,23,10.3,23,23c0,6.1-2.4,11.9-6.7,16.3
		C36,44.6,30.1,47,24,47z"/>
	<path class="st1" d="M24,47C11.3,47,1,36.7,1,24C1,11.3,11.3,1,24,1c12.7,0,23,10.3,23,23c0,6.1-2.4,11.9-6.7,16.3
		C36,44.6,30.1,47,24,47z"/>
	<path class="st2" d="M38.3,23.2c-0.3-0.8-1-1.3-1.8-1.3c-0.8,0-1.6,0.5-1.8,1.3h-3.9v-4.4c0-0.7-0.6-1.3-1.3-1.3h-2.1v-2.2
		c1-0.4,1.5-1.5,1.2-2.5c-0.3-0.8-1-1.3-1.8-1.3v0c-1.1,0-1.9,0.9-1.9,2c0,0.8,0.5,1.5,1.3,1.8v2.2h-3.6v-4.1c1-0.4,1.5-1.5,1.2-2.5
		c-0.3-0.8-1-1.3-1.8-1.3v0c-1.1,0-1.9,0.9-1.9,2c0,0.8,0.5,1.5,1.3,1.8v4.1h-2.4c-0.7,0-1.3,0.6-1.3,1.3v2.3h-4
		c-0.4-1-1.5-1.6-2.5-1.2c-1,0.4-1.6,1.5-1.2,2.5c0.4,1,1.5,1.6,2.5,1.2c0.6-0.2,1-0.6,1.2-1.2h4v3.9h-0.5c0,0,0,0-0.1,0h-0.6h-0.9
		c-0.4-1-1.5-1.6-2.5-1.2c-1,0.4-1.6,1.5-1.2,2.5c0.4,1,1.5,1.6,2.5,1.2c0.6-0.2,1-0.6,1.2-1.2h1.6c0,0,0,0,0,0h0.5v1.9
		c0,0.7,0.6,1.3,1.3,1.3h4.7v3.7c-1,0.4-1.6,1.5-1.2,2.5c0.4,1,1.5,1.6,2.5,1.2c1-0.4,1.6-1.5,1.2-2.5c-0.2-0.6-0.6-1-1.2-1.2v-3.7
		h4.7c0.7,0,1.3-0.6,1.3-1.3v-5.1h3.9c0.4,1,1.5,1.6,2.5,1.2S38.6,24.2,38.3,23.2z M11.5,22.9C11.5,22.9,11.5,22.9,11.5,22.9
		L11.5,22.9c-0.7,0-1.2-0.5-1.2-1.2c0-0.6,0.5-1.2,1.2-1.2c0.6,0,1.2,0.5,1.2,1.2C12.7,22.4,12.2,22.9,11.5,22.9z M13.4,28.1
		c-0.6,0-1.1-0.5-1.1-1.1s0.5-1.1,1.1-1.1s1.1,0.5,1.1,1.1S14.1,28.1,13.4,28.1z M25.5,13.5c0-0.6,0.5-1.1,1.1-1.1
		c0.6,0,1.1,0.5,1.1,1.1c0,0.6-0.5,1.1-1.1,1.1c0,0,0,0,0,0v0C26,14.6,25.5,14.1,25.5,13.5z M20.6,11.6c0-0.6,0.5-1.1,1.1-1.1
		c0.6,0,1.1,0.5,1.1,1.1c0,0,0,0,0,0c0,0.6-0.5,1.1-1.1,1.1C21.1,12.7,20.6,12.2,20.6,11.6z M25.2,36.4
		C25.2,36.4,25.2,36.4,25.2,36.4c0,0.6-0.5,1.2-1.2,1.2c-0.6,0-1.2-0.5-1.2-1.2c0-0.6,0.5-1.2,1.2-1.2
		C24.7,35.2,25.2,35.7,25.2,36.4z M28.2,28c0,0.2-0.1,0.3-0.3,0.3h-7.8c-0.2,0-0.3-0.1-0.3-0.3v-7.8c0-0.2,0.1-0.3,0.3-0.3h7.8
		c0.2,0,0.3,0.1,0.3,0.3L28.2,28z M36.4,25c-0.6,0-1.2-0.5-1.2-1.2c0-0.6,0.5-1.2,1.2-1.2c0.6,0,1.2,0.5,1.2,1.2
		C37.6,24.5,37.1,25,36.4,25z"/>
</g>
</svg>
