<?xml version="1.0" encoding="UTF-8"?>
<svg width="75px" height="56px" viewBox="0 0 75 56" version="1.1" xmlns="http://www.w3.org/2000/svg" xmlns:xlink="http://www.w3.org/1999/xlink">
    <!-- Generator: sketchtool 54.1 (76490) - https://sketchapp.com -->
    <title>C4807D93-D456-47FA-BD89-6B2ACC08C729</title>
    <desc>Created with sketchtool.</desc>
    <defs>
        <polygon id="path-1" points="0 0.114739785 74.9584729 0.114739785 74.9584729 33.4193548 0 33.4193548"></polygon>
        <polygon id="path-3" points="0 0 74.9677419 0 74.9677419 45.8051401 0 45.8051401"></polygon>
    </defs>
    <g id="Page-1" stroke="none" stroke-width="1" fill="none" fill-rule="evenodd">
        <g id="Desktop" transform="translate(-1140.000000, -1053.000000)">
            <g id="Block" transform="translate(1024.000000, 1053.000000)">
                <g id="icon-bills" transform="translate(116.000000, 0.000000)">
                    <g id="Group-3" transform="translate(0.000000, 22.580645)">
                        <mask id="mask-2" fill="white">
                            <use xlink:href="#path-1"></use>
                        </mask>
                        <g id="Clip-2"></g>
                        <path d="M0,0.114739785 L0,25.0789978 L7.53613226,32.3347111 C9.03923548,33.7810265 11.4756871,33.7810265 12.9787903,32.3347111 L18.3183677,27.1918437 C19.821471,25.7455283 22.2579226,25.7455283 23.7610258,27.1918437 L29.1024774,32.3347111 C30.6055806,33.7810265 33.0420323,33.7810265 34.5451355,32.3347111 L39.8865871,27.1918437 C41.3878161,25.7455283 43.8242677,25.7455283 45.327371,27.1918437 L50.6688226,32.3347111 C52.1700516,33.7810265 54.6083774,33.7810265 56.1096065,32.3347111 L61.4529323,27.1918437 C62.9541613,25.7455283 65.3906129,25.7455283 66.8937161,27.1918437 C67.6752548,27.9456358 68.4567935,28.6975713 69.2364581,29.4495068 C70.2728871,30.4465176 71.8771968,32.7895857 73.6333161,32.1676143 C74.9958548,31.6830337 74.958371,30.3555427 74.958371,29.217428 L74.958371,25.9497577 L74.958371,18.40441 L74.958371,4.26802294 L74.9584729,0.114739785 L0,0.114739785 Z" id="Fill-1" fill="#785A9F" mask="url(#mask-2)"></path>
                    </g>
                    <g id="Group-6">
                        <mask id="mask-4" fill="white">
                            <use xlink:href="#path-3"></use>
                        </mask>
                        <g id="Clip-5"></g>
                        <path d="M0,6.15765884 L0,37.6918008 L6.28229677,43.8107582 C8.47697742,45.9506085 12.036071,45.9506085 14.2326258,43.8107582 L17.0645323,41.0528124 C19.2610871,38.9129621 22.8201806,38.9129621 25.0148613,41.0509337 L27.8486419,43.8107582 C30.0433226,45.9506085 33.6024161,45.9506085 35.798971,43.8107582 L38.6308774,41.0509337 C40.8274323,38.9129621 44.3865258,38.9148408 46.5812065,41.0528124 L49.4149871,43.8107582 C51.6096677,45.9506085 55.1687613,45.9506085 57.3634419,43.8107582 L60.1972226,41.0528124 C62.3937774,38.9148408 65.9509968,38.9148408 68.1475516,41.0528124 C69.5681903,42.4355427 70.988829,43.8201517 72.4094677,45.2047608 C72.8686452,45.650015 73.4421484,45.9543659 74.1037387,45.7289208 C74.2780387,45.6706808 74.4467161,45.5805027 74.5629161,45.4414782 C74.6078968,45.3869956 74.6435065,45.3249982 74.6772419,45.2630008 C75.0483323,44.5697569 74.958371,43.8370601 74.958371,43.0780614 L74.958371,40.9494834 L74.958371,35.897633 L74.958371,30.1600537 L74.958371,24.1819995 L74.958371,18.4068459 L74.958371,13.2817259 L74.958371,9.24813626 L74.958371,6.75320981 L74.958371,6.15765884 C74.958371,2.75719432 72.1264645,-0.000751483871 68.6367161,-0.000751483871 L6.32165484,-0.000751483871 C2.83003226,-0.000751483871 0,2.75719432 0,6.15765884" id="Fill-4" fill="#A786C4" mask="url(#mask-4)"></path>
                    </g>
                    <path d="M65.1203327,28 L45.0732157,28 C44.1292146,28 43.3548387,27.1878721 43.3548387,26.1935484 C43.3548387,25.1992247 44.1292146,24.3870968 45.0732157,24.3870968 L65.1203327,24.3870968 C66.0661775,24.3870968 66.8387097,25.1992247 66.8387097,26.1935484 C66.8387097,27.1878721 66.0661775,28 65.1203327,28" id="Fill-7" fill="#DAC2E9"></path>
                    <path d="M65.9805709,17.1612903 L56.8581388,17.1612903 C55.8905222,17.1612903 55.0967742,16.3491624 55.0967742,15.3548387 C55.0967742,14.360515 55.8905222,13.5483871 56.8581388,13.5483871 L65.9805709,13.5483871 C66.9500774,13.5483871 67.7419355,14.360515 67.7419355,15.3548387 C67.7419355,16.3491624 66.9500774,17.1612903 65.9805709,17.1612903" id="Fill-9" fill="#DAC2E9"></path>
                    <path d="M28.8855417,28 L12.6610103,28 C11.6590202,28 10.8387097,27.1558332 10.8387097,26.1228149 L10.8387097,10.0062174 C10.8387097,8.97319901 11.6590202,8.12903226 12.6610103,8.12903226 L28.8855417,8.12903226 C29.8875317,8.12903226 30.7096774,8.97319901 30.7096774,10.0062174 L30.7096774,26.1228149 C30.7096774,27.1558332 29.8875317,28 28.8855417,28" id="Fill-11" fill="#DAC2E9"></path>
                </g>
            </g>
        </g>
    </g>
</svg>