<svg enable-background="new 0 0 72 72" viewBox="0 0 72 72" xmlns="http://www.w3.org/2000/svg"><path d="m72 36c0-.9-.3-1.8-.7-2.7l-15.3-26.2c-.9-1.6-2.7-2.7-4.6-2.7h-30.7c-1.9 0-3.7 1-4.6 2.7l-.6 1c-.7 1.3-.5 2.2.2 3.4l1.8 3.1 2.3 4c.2.3.3.6.3.9s-.1.6-.3.9l-5.2 8.9s-.1.1-.1.1 0 .1-.1.1c-.4.4-.9.7-1.4.7h-6.6c-.9 0-1.8-.1-2.7.1-.5.1-.9.3-1.2.5-.9.7-1.3 1.6-1.9 2.6-.3.8-.6 1.7-.6 2.6s.3 1.8.7 2.7l15.3 26.2c1 1.6 2.8 2.7 4.7 2.7h30.6c1.7 0 3.3-.8 4.3-2.1.1-.1.2-.2.2-.3.1-.1.1-.2.2-.3l15.3-26.2c.4-.9.7-1.8.7-2.7z" fill="#9475bc"/><path d="m9.2 14.9c-.9.3-1.5 1.3-1.2 2.2l.4 1.2-5.6-3.3c-.9-.5-1.9-.2-2.4.7s-.2 1.9.6 2.4l5.5 3.3-1.2.3c-1 .2-1.6 1.2-1.3 2.1.2 1 1.2 1.6 2.1 1.3l5.6-1.3h.1c.1 0 .1 0 .1-.1h.1s0 0 0 0c.1 0 .1-.1.2-.1 0 0 .1 0 .1-.1l.2-.2s.1-.1.1-.1c.1-.1.2-.2.2-.3.1-.1.1-.2.2-.3 0-.1 0-.1 0-.1 0-.1 0-.1.1-.2v-.1s0-.1 0-.2c0 0 0 0 0-.1s0-.1 0-.1c0-.1 0-.1 0-.1v-.1l-1.7-5.5c-.3-1-1.3-1.5-2.2-1.2z" fill="#9475bc"/><path d="m20.7 67.6h30.6c1.7 0 3.3-.8 4.3-2.1.1-.1.2-.2.2-.3.1-.1.1-.2.2-.3l15.3-26.2c.5-.8.7-1.7.7-2.7 0-.9-.3-1.8-.7-2.7l-15.3-26.2c-.5-.8-1.1-1.4-1.9-1.9l-36.1 61.7c.8.4 1.7.7 2.7.7z" fill="#694d97"/><path d="m50.5 36.2c-.6-.7-1.3-1.3-2.2-1.8 1.2-1.3 1.7-3.1 1.5-5.2-.1-1.1-.4-2.1-1-2.9-.5-.9-1.3-1.5-2.1-2s-1.7-.8-2.7-1.1c-.6-.2-1.3-.3-2.1-.4v-4.3c0-.7-.5-1.2-1.2-1.2h-9.1c-.7 0-1.2.5-1.2 1.2v4.2c-.3 0-.6 0-.9 0h-4.5c-.3 0-.6.1-.8.4-.2.2-.4.5-.4.8v3.5c0 .7.5 1.2 1.2 1.2h2.3c.6 0 .6.2.7.4v14.3s0 0-.1 0h-2.3c-.6 0-1.1.4-1.2 1l-.4 3.7c-.1.4 0 .7.3 1 .2.3.6.4.9.4h4.2 1.1v4.2c0 .7.5 1.2 1.2 1.2h9.1c.7 0 1.2-.5 1.2-1.2v-4.3c.8-.1 1.5-.2 2.1-.3 1-.2 1.9-.4 2.8-.8s1.7-.9 2.4-1.4c.7-.6 1.2-1.4 1.6-2.2.4-.9.7-1.9.8-3 .2-2.4-.2-4.2-1.2-5.4z" fill="#b199ce"/><path d="m50.5 36.2c-.6-.7-1.3-1.3-2.2-1.8 1.2-1.3 1.7-3.1 1.5-5.2-.1-1.1-.4-2.1-1-2.9-.5-.9-1.3-1.5-2.1-2s-1.7-.8-2.7-1.1c-.6-.2-1.3-.3-2.1-.4v-4.3c0-.7-.5-1.2-1.2-1.2h-4.7v37.5h4.7c.7 0 1.2-.5 1.2-1.2v-4.3c.8-.1 1.5-.2 2.1-.3 1-.2 1.9-.4 2.8-.8s1.7-.9 2.4-1.4c.7-.6 1.2-1.4 1.6-2.2.4-.9.7-1.9.8-3 .3-2.4-.1-4.2-1.1-5.4z" fill="#a789c8"/></svg>