<svg fill="none" height="64" viewBox="0 0 64 64" width="64" xmlns="http://www.w3.org/2000/svg" xmlns:xlink="http://www.w3.org/1999/xlink"><clipPath id="a"><path d="m0 0h64v64h-64z"/></clipPath><g clip-path="url(#a)"><path clip-rule="evenodd" d="m6 24c-3.31371 0-6-2.6863-6-6v-12c0-3.31371 2.68629-6 6-6h28c3.3137 0 6 2.68629 6 6v18 6l-6-6z" fill="#623590" fill-rule="evenodd"/><path d="m18 15c0-.5523-.4477-1-1-1h-8c-.55228 0-1 .4477-1 1s.44772 1 1 1h8c.5523 0 1-.4477 1-1z" fill="#fff"/><path d="m30 9c0-.55228-.4477-1-1-1h-20c-.55228 0-1 .44772-1 1s.44772 1 1 1h20c.5523 0 1-.44772 1-1z" fill="#fff"/><path clip-rule="evenodd" d="m24 40c0-3.3137 2.6863-6 6-6h28c3.3137 0 6 2.6863 6 6v12c0 3.3137-2.6863 6-6 6h-28l-6 6v-6z" fill="#00a5ef" fill-rule="evenodd"/><g fill="#fff"><path d="m42 49c0-.5523-.4477-1-1-1h-8c-.5523 0-1 .4477-1 1s.4477 1 1 1h8c.5523 0 1-.4477 1-1z"/><path d="m54 43c0-.5523-.4477-1-1-1h-20c-.5523 0-1 .4477-1 1s.4477 1 1 1h20c.5523 0 1-.4477 1-1z"/></g></g></svg>