<?xml version="1.0" encoding="utf-8"?>
<!-- Generator: Adobe Illustrator 23.0.1, SVG Export Plug-In . SVG Version: 6.00 Build 0)  -->
<svg version="1.1" id="Layer_1" xmlns="http://www.w3.org/2000/svg" xmlns:xlink="http://www.w3.org/1999/xlink" x="0px" y="0px"
	 viewBox="0 0 72 50" style="enable-background:new 0 0 72 50;" xml:space="preserve">
<style type="text/css">
	.st0{fill:#705A9B;}
	.st1{fill:#9D85C1;}
	.st2{fill:#D3C1E7;}
	.st3{fill:#EDE5F4;}
</style>
<g>
	<path class="st0" d="M65.4,50H9.5c-2.4,0-4.3-1.9-4.3-4.3V11.2c0-2.4,1.9-4.3,4.3-4.3h58.2c2.4,0,4.3,1.9,4.3,4.3v32.2
		C72,47,69,50,65.4,50z"/>
	<path class="st1" d="M60.8,41.9H4.2c-2.3,0-4.2-1.9-4.2-4.2V4.2C0,1.9,1.9,0,4.2,0h56.6c2.3,0,4.2,1.9,4.2,4.2v33.6
		C64.9,40.1,63.1,41.9,60.8,41.9z"/>
	<circle class="st0" cx="16.8" cy="16.2" r="9"/>
	<circle class="st2" cx="28.1" cy="16.2" r="9"/>
	<path class="st3" d="M56.1,36.1H38.8c-0.8,0-1.5-0.7-1.5-1.5v0c0-0.8,0.7-1.5,1.5-1.5h17.3c0.8,0,1.5,0.7,1.5,1.5v0
		C57.6,35.4,56.9,36.1,56.1,36.1z"/>
	<path class="st3" d="M18.7,36.1h-7.6c-0.8,0-1.5-0.7-1.5-1.5v0c0-0.8,0.7-1.5,1.5-1.5h7.6c0.8,0,1.5,0.7,1.5,1.5v0
		C20.2,35.4,19.5,36.1,18.7,36.1z"/>
</g>
</svg>
