<?xml version="1.0" encoding="UTF-8"?>
<svg width="10px" height="30px" viewBox="0 0 10 30" version="1.1" xmlns="http://www.w3.org/2000/svg" xmlns:xlink="http://www.w3.org/1999/xlink">
    <!-- Generator: sketchtool 52.4 (67378) - http://www.bohemiancoding.com/sketch -->
    <title>55EA98D1-0916-439B-B7D8-E6ED56BE8C96</title>
    <desc>Created with sketchtool.</desc>
    <g id="Page-1" stroke="none" stroke-width="1" fill="none" fill-rule="evenodd">
        <g id="Homepage-New-Style---Mobile" transform="translate(-23.000000, -4980.000000)" fill="#00B4E8">
            <g id="Section" transform="translate(23.000000, 4700.000000)">
                <path d="M0,295.325848 C0,295.325848 0,295.325848 0,295.325848 C0,295.22534 0,295.22534 0,295.22534 C0,295.22534 0,295.22534 0,295.124832 C0,295.024324 0,295.124832 0,295.024324 C0,295.024324 0,295.024324 0,294.923816 C0,294.923816 0,294.923816 0,294.823308 C0,294.823308 0,294.823308 0,294.7228 C0,294.7228 0,294.622292 0,294.622292 C0,294.622292 0,294.622292 0,294.622292 L8.70946574,280.350172 C8.90088257,280.048648 9.37942465,279.847632 9.66654989,280.149156 C9.95367513,280.350172 10.145092,280.852711 9.85796672,281.154235 L1.43562622,295.024324 L9.85796672,308.894413 C10.0493835,309.195937 9.95367513,309.698476 9.66654989,309.899492 C9.57084148,310 9.37942465,310 9.28371623,310 C9.0922994,310 8.80517416,309.899492 8.70946574,309.698476 L0,295.426356 C0,295.426356 0,295.426356 0,295.426356 C0.0957084148,295.526863 0.0957084148,295.426356 0,295.325848 C0,295.426356 0,295.426356 0,295.325848 Z" id="icon-arrow-left"></path>
            </g>
        </g>
    </g>
</svg>