<?xml version="1.0" encoding="UTF-8"?>
<svg width="81px" height="56px" viewBox="0 0 81 56" version="1.1" xmlns="http://www.w3.org/2000/svg" xmlns:xlink="http://www.w3.org/1999/xlink">
    <!-- Generator: sketchtool 54.1 (76490) - https://sketchapp.com -->
    <title>2CF0F38A-7631-4B05-917A-13802AF4354D</title>
    <desc>Created with sketchtool.</desc>
    <defs>
        <polygon id="path-1" points="0 0 56.9760899 0 56.9760899 55.99944 0 55.99944"></polygon>
        <polygon id="path-3" points="0 0.166992556 23.4014829 0.166992556 23.4014829 23.482933 0 23.482933"></polygon>
    </defs>
    <g id="Page-1" stroke="none" stroke-width="1" fill="none" fill-rule="evenodd">
        <g id="Desktop" transform="translate(-800.000000, -1053.000000)">
            <g id="Block" transform="translate(687.000000, 1053.000000)">
                <g id="icon-send" transform="translate(113.000000, 0.000000)">
                    <g id="Group-3">
                        <mask id="mask-2" fill="white">
                            <use xlink:href="#path-1"></use>
                        </mask>
                        <g id="Clip-2"></g>
                        <path d="M56.9760899,4.91624 C56.9760899,2.21144 54.7589328,-0.00056 52.0476237,-0.00056 L4.92977149,-0.00056 C2.21846243,-0.00056 -0.000559417274,2.21144 -0.000559417274,4.91624 L-0.000559417274,32.8005067 L23.2618755,55.99944 L52.0476237,55.99944 C54.7589328,55.99944 56.9760899,53.78744 56.9760899,51.08264 L56.9760899,4.91624 Z" id="Fill-1" fill="#A786C4" mask="url(#mask-2)"></path>
                    </g>
                    <g id="Group-6" transform="translate(0.000000, 32.516129)">
                        <mask id="mask-4" fill="white">
                            <use xlink:href="#path-3"></use>
                        </mask>
                        <g id="Clip-5"></g>
                        <path d="M23.4014829,23.482933 L23.4014829,5.10819355 C23.4014829,2.38997022 21.1710015,0.166992556 18.4415226,0.166992556 L-0.000750372208,0.166992556 L23.4014829,23.482933 Z" id="Fill-4" fill="#785A9F" mask="url(#mask-4)"></path>
                    </g>
                    <path d="M29.7801025,7.61596623 C28.7894148,6.93622274 27.4058682,7.167743 26.7074523,8.1308673 L19.009695,18.7344954 L13.83041,12.6871861 C13.0541815,11.7814788 11.6573498,11.657384 10.7273939,12.411214 C9.79554016,13.1668961 9.66648506,14.5245309 10.4446114,15.4302382 L17.4591359,23.6242034 C17.4743188,23.6408729 17.4895018,23.6519859 17.5046847,23.6686553 C17.5559272,23.722368 17.6128633,23.7723764 17.6679015,23.8223848 C17.7210418,23.870541 17.7741821,23.9186972 17.8311182,23.9612969 C17.8500969,23.9742621 17.863382,23.9909315 17.8804628,24.0038967 C17.9260117,24.0335313 17.9734584,24.053905 18.0209051,24.0798353 C18.0797391,24.1150264 18.138573,24.1502175 18.1993048,24.1779999 C18.2752196,24.213191 18.3511344,24.2391213 18.4270491,24.2650515 C18.4839852,24.2854253 18.5390234,24.3039469 18.5978574,24.3206164 C18.6775679,24.339138 18.7572784,24.3521032 18.8369889,24.3632161 C18.8996186,24.3724769 18.9603504,24.3798856 19.0210822,24.3835899 C19.0969969,24.3891464 19.169116,24.3872942 19.2450307,24.3835899 C19.3152519,24.3798856 19.3835752,24.3761813 19.4537963,24.3669204 C19.5202218,24.3595118 19.5828515,24.3446945 19.647379,24.3298772 C19.7232938,24.3132077 19.7973107,24.2965383 19.8713276,24.270608 C19.9339572,24.2502342 19.9908933,24.224304 20.0497273,24.2002259 C20.1199484,24.1687391 20.1901696,24.1372523 20.256595,24.1002091 C20.3211226,24.065018 20.3799565,24.0224183 20.4387904,23.9816707 C20.4805436,23.9520361 20.5241946,23.9316623 20.5640498,23.9001756 C20.5792328,23.8853583 20.5925178,23.8686888 20.6077008,23.8557237 C20.6646369,23.8075675 20.7158793,23.7520026 20.7671218,23.6982899 C20.8164664,23.6445772 20.8677089,23.5927167 20.909462,23.5371518 C20.9227471,23.5204824 20.9417258,23.5075172 20.9550109,23.4889956 L30.3077101,10.6016516 C31.0080238,9.64037943 30.7688923,8.29570973 29.7801025,7.61596623" id="Fill-7" fill="#785A9F"></path>
                    <polygon id="Fill-9" fill="#785A9F" points="48.3225806 23.9354839 55.0967742 17.1612903 41.5483871 30.7096774"></polygon>
                    <polygon id="Fill-11" fill="#785A9F" points="73.1612903 48.5475613 66.4275156 55.0967742 41.5483871 30.9381509 48.284048 24.3870968"></polygon>
                    <polygon id="Fill-13" fill="#DAC2E9" points="39.7419355 15.3548387 55.0967742 17.0979238 41.4842474 30.7096774"></polygon>
                    <polygon id="Fill-15" fill="#785A9F" points="40.4585467 21.6774194 46.0645161 16.0738927 39.7419355 15.3548387"></polygon>
                    <polygon id="Fill-17" fill="#8D6AAE" points="79.483871 41.3199136 72.7500962 47.8709677 47.8709677 23.7105033 54.6066287 17.1612903"></polygon>
                    <path d="M79.9276115,47.3527533 L71.7395935,55.540176 C71.1251285,56.1532747 70.1307134,56.1532747 69.5162485,55.540176 L67.7419355,53.7647442 L78.1514806,43.3548387 L79.9276115,45.1302704 C80.5402585,45.7433692 80.5402585,46.7396546 79.9276115,47.3527533" id="Fill-19" fill="#DAC2E9"></path>
                </g>
            </g>
        </g>
    </g>
</svg>