<?xml version="1.0" encoding="utf-8"?>
<!-- Generator: Adobe Illustrator 23.0.1, SVG Export Plug-In . SVG Version: 6.00 Build 0)  -->
<svg version="1.1" id="Layer_1" xmlns="http://www.w3.org/2000/svg" xmlns:xlink="http://www.w3.org/1999/xlink" x="0px" y="0px"
	 viewBox="0 0 170 32" style="enable-background:new 0 0 170 32;" xml:space="preserve">
<style type="text/css">
	.st0{fill:#454C59;}
	.st1{fill:#00A5EF;}
</style>
<g>
	<path class="st0" d="M64.5,2.4h-5.7l7.4,10.3l2.3-3.3c0.7-1,0.7-2.4,0-3.5l-1.7-2.3C66.3,2.8,65.5,2.4,64.5,2.4"/>
	<path class="st0" d="M73.1,22.3l3.2,4.4c0.6,0.8,1.5,1.2,2.4,1.2h5.7l-8.6-12l-2.5,2.6C72.4,19.7,72.3,21.2,73.1,22.3"/>
	<path class="st1" d="M86.8,0L57.1,31.9c-0.3,0.4-0.9-0.1-0.6-0.5L77.9,1.2C78.5,0.4,79.4,0,80.3,0H86.8z"/>
	<path class="st0" d="M46.2,22.5H34.4L32.1,28H26L37.4,2.4h5.9L54.7,28h-6.2L46.2,22.5z M44.4,18l-4.1-9.8L36.3,18H44.4z"/>
	<polygon class="st0" points="98.3,7.2 98.3,13.9 110,13.9 110,18.7 98.3,18.7 98.3,28 92.4,28 92.4,2.4 111.6,2.4 111.6,7.2 	"/>
	<path class="st0" d="M119.6,16.7V2.4h5.9v14.1c0,4.9,2.1,6.9,5.7,6.9c3.6,0,5.6-2,5.6-6.9V2.4h5.9v14.3c0,7.5-4.3,11.7-11.6,11.7
		C123.9,28.4,119.6,24.3,119.6,16.7"/>
	<polygon class="st0" points="150.8,2.4 156.7,2.4 156.7,23.2 170,23.2 170,28 150.8,28 	"/>
	<path class="st0" d="M22.2,11.7c0,5.7-4.3,9.2-11.1,9.2H5.9V28H0V2.4h11.1C17.9,2.4,22.2,5.9,22.2,11.7 M16.2,11.7
		c0-2.8-1.8-4.5-5.4-4.5H5.9v8.9h4.8C14.4,16.1,16.2,14.5,16.2,11.7"/>
</g>
</svg>
