<?xml version="1.0" encoding="utf-8"?>
<!-- Generator: Adobe Illustrator 23.0.1, SVG Export Plug-In . SVG Version: 6.00 Build 0)  -->
<!DOCTYPE svg PUBLIC "-//W3C//DTD SVG 1.1//EN" "http://www.w3.org/Graphics/SVG/1.1/DTD/svg11.dtd" [
	<!ENTITY ns_extend "http://ns.adobe.com/Extensibility/1.0/">
	<!ENTITY ns_ai "http://ns.adobe.com/AdobeIllustrator/10.0/">
	<!ENTITY ns_graphs "http://ns.adobe.com/Graphs/1.0/">
	<!ENTITY ns_vars "http://ns.adobe.com/Variables/1.0/">
	<!ENTITY ns_imrep "http://ns.adobe.com/ImageReplacement/1.0/">
	<!ENTITY ns_sfw "http://ns.adobe.com/SaveForWeb/1.0/">
	<!ENTITY ns_custom "http://ns.adobe.com/GenericCustomNamespace/1.0/">
	<!ENTITY ns_adobe_xpath "http://ns.adobe.com/XPath/1.0/">
]>
<svg version="1.1" id="Layer_1" xmlns:x="&ns_extend;" xmlns:i="&ns_ai;" xmlns:graph="&ns_graphs;"
	 xmlns="http://www.w3.org/2000/svg" xmlns:xlink="http://www.w3.org/1999/xlink" x="0px" y="0px" viewBox="0 0 54 40"
	 style="enable-background:new 0 0 54 40;" xml:space="preserve">
<style type="text/css">
	.st0{fill:#D35933;}
	.st1{fill:#FFC61B;}
	.st2{fill:#477F3C;}
	.st3{fill:#FF7F4F;}
	.st4{fill:#EAA22F;}
	.st5{fill:#930000;}
</style>
<metadata>
	<sfw  xmlns="&ns_sfw;">
		<slices></slices>
		<sliceSourceBounds  bottomLeftOrigin="true" height="40" width="54" x="0" y="-40"></sliceSourceBounds>
	</sfw>
</metadata>
<g>
	<path class="st0" d="M43,32.6H3.2c-1.8,0-3.2-1.5-3.2-3.3V9.2c0-1.8,1.4-3.3,3.2-3.3H43c1.8,0,3.2,1.5,3.2,3.3v20.2
		C46.2,31.2,44.8,32.6,43,32.6z"/>
	<path class="st1" d="M48.1,25.1L9.7,36.8c-1.2,0.3-2.4-0.4-2.7-1.6L1.9,14.5c-0.3-1.2,0.4-2.4,1.6-2.7L41.9,0.1
		c1.2-0.3,2.4,0.4,2.7,1.6l5.1,20.7C50,23.5,49.2,24.8,48.1,25.1z"/>
	<g>
		<path class="st2" d="M5.5,30.3l0.9,5.1l4.9-0.9C10.8,31.7,8.2,29.8,5.5,30.3z"/>
		<path class="st2" d="M49,21.1c-2.7,0.5-4.5,3.2-4,6l4.9-0.9L49,21.1z"/>
	</g>
	<path class="st3" d="M48.3,40H3.5C1.6,40,0,38.4,0,36.4V14c0-2,1.6-3.6,3.5-3.6h44.8c1.9,0,3.5,1.6,3.5,3.6v22.4
		C51.8,38.4,50.2,40,48.3,40z"/>
	<path class="st0" d="M48.3,10.4H25.8V40h22.5c1.9,0,3.5-1.6,3.5-3.6V14C51.8,12,50.2,10.4,48.3,10.4z"/>
	<g>
		<path class="st1" d="M33.7,25.8v-2.6c0-1.4,1.1-2.5,2.4-2.5h15.5c1.3,0,2.4,1.1,2.4,2.5v2.6c0,1.4-1.1,2.5-2.4,2.5H36.1
			C34.8,28.2,33.7,27.1,33.7,25.8z"/>
		<path class="st4" d="M54,25.8v-1.4H33.7v1.4c0,1.4,1.1,2.5,2.4,2.5h15.5C52.9,28.2,54,27.1,54,25.8z"/>
		<ellipse class="st0" cx="37.6" cy="24.5" rx="1.9" ry="2"/>
		<path class="st5" d="M39.5,24.5c0,0,0-0.1,0-0.1h-3.8c0,0,0,0.1,0,0.1c0,1.1,0.9,2,1.9,2S39.5,25.6,39.5,24.5z"/>
	</g>
	<path class="st0" d="M15,19.5c-0.7-1.5-2.5-2.1-3.9-1.4c-1.3,0.6-1.9,2.1-1.5,3.4L5.7,24H0v1.7h6c0,0,0,0,0,0c0,0,0,0,0,0
		c0.1,0,0.2,0,0.3-0.1c0,0,0.1,0,0.1,0c0,0,0.1,0,0.1,0l4-2.6c0.9,0.8,2.2,1.1,3.3,0.5C15.2,22.8,15.8,21,15,19.5z"/>
	<path class="st0" d="M21.4,29c-0.7-1.5-2.6-2.2-4-1.4c-0.8,0.4-1.3,1.1-1.5,1.9H0v1.8h15.8c0,0.2,0.1,0.3,0.2,0.5
		c0.7,1.5,2.6,2.2,4,1.4C21.6,32.4,22.2,30.5,21.4,29z"/>
</g>
</svg>
