<?xml version="1.0" encoding="utf-8"?>
<!-- Generator: Adobe Illustrator 23.0.1, SVG Export Plug-In . SVG Version: 6.00 Build 0)  -->
<!DOCTYPE svg PUBLIC "-//W3C//DTD SVG 1.1//EN" "http://www.w3.org/Graphics/SVG/1.1/DTD/svg11.dtd" [
	<!ENTITY ns_extend "http://ns.adobe.com/Extensibility/1.0/">
	<!ENTITY ns_ai "http://ns.adobe.com/AdobeIllustrator/10.0/">
	<!ENTITY ns_graphs "http://ns.adobe.com/Graphs/1.0/">
	<!ENTITY ns_vars "http://ns.adobe.com/Variables/1.0/">
	<!ENTITY ns_imrep "http://ns.adobe.com/ImageReplacement/1.0/">
	<!ENTITY ns_sfw "http://ns.adobe.com/SaveForWeb/1.0/">
	<!ENTITY ns_custom "http://ns.adobe.com/GenericCustomNamespace/1.0/">
	<!ENTITY ns_adobe_xpath "http://ns.adobe.com/XPath/1.0/">
]>
<svg version="1.1" id="Layer_1" xmlns:x="&ns_extend;" xmlns:i="&ns_ai;" xmlns:graph="&ns_graphs;"
	 xmlns="http://www.w3.org/2000/svg" xmlns:xlink="http://www.w3.org/1999/xlink" x="0px" y="0px" viewBox="0 0 285 250"
	 style="enable-background:new 0 0 285 250;" xml:space="preserve">
<style type="text/css">
	.st0{fill:#9475BC;}
	.st1{opacity:0.3;fill:#FFFFFF;}
	.st2{fill:#694D97;}
	.st3{fill:#B199CE;}
	.st4{fill:#A789C8;}
</style>
<metadata>
	<sfw  xmlns="&ns_sfw;">
		<slices></slices>
		<sliceSourceBounds  bottomLeftOrigin="true" height="250" width="285" x="0" y="-250"></sliceSourceBounds>
	</sfw>
</metadata>
<g>
	<path class="st0" d="M285,124.9c0-3.6-1-7.2-2.8-10.5L221.5,10.5C217.8,4,210.7,0,203.1,0H81.9c-7.6,0-14.6,4-18.4,10.5
		c0,0-2.4,4.1-2.4,4.1c-2.9,5-1.8,8.9,0.9,13.6l7.1,12.2l9.2,15.7c0.6,1.1,1,2.3,1,3.6c0,1.2-0.3,2.5-1,3.5L57.7,98.5
		c-0.1,0.1-0.2,0.3-0.3,0.4c-0.1,0.1-0.1,0.3-0.3,0.4c-1.4,1.7-3.5,2.8-5.7,2.8H25.5c-3.5,0-7.1-0.3-10.5,0.2
		c-1.8,0.2-3.4,1-4.8,2.1c-3.4,2.6-5.3,6.5-7.4,10.1C1,117.7,0,121.3,0,125.1c0,3.6,1,7.2,2.8,10.5l60.6,103.9
		C67.2,246,74.3,250,81.9,250h121.2c6.6,0,12.9-3.1,16.9-8.3c0.3-0.3,0.6-0.7,0.8-1.1c0.3-0.4,0.5-0.7,0.8-1.1l60.6-103.9
		C284,132.3,285,128.7,285,124.9z"/>
	<path class="st1" d="M156.4,196.8c0.6,0,1.3-0.1,1.8-0.4C157.6,196.6,157,196.8,156.4,196.8L156.4,196.8z"/>
	<path class="st1" d="M165.4,174.7c1.4-0.2,2.7-0.4,4-0.6c1.9-0.3,3.8-0.8,5.7-1.3c-1.9,0.5-3.8,1-5.7,1.3
		C168.1,174.3,166.8,174.5,165.4,174.7z"/>
	<path class="st1" d="M199.8,137.9c0.1,2,0,4.1-0.2,6.4c-0.2,2.2-0.6,4.4-1.1,6.4c0.5-2,0.9-4.1,1.1-6.4
		C199.8,142,199.9,139.9,199.8,137.9z"/>
	<path class="st0" d="M36.3,41.5c-3.7,1.1-5.8,5.1-4.7,8.8l1.4,4.6l-21.9-13c-3.4-1.9-7.7-0.8-9.6,2.6S0.6,52.1,4,54.1l21.9,13
		l-4.6,1.1c-3.8,0.9-6.2,4.7-5.3,8.5c0.9,3.8,4.7,6.2,8.5,5.3l22-5.1c0,0,0.1,0,0.1,0c0.1,0,0.2,0,0.2-0.1c0,0,0.1,0,0.1,0
		c0.2-0.1,0.3-0.1,0.5-0.2c0,0,0.1,0,0.1,0c0.1-0.1,0.3-0.1,0.4-0.1c0.1,0,0.1-0.1,0.1-0.1c0.2-0.1,0.4-0.2,0.6-0.4
		c0.1-0.1,0.2-0.1,0.3-0.2c0,0,0.1,0,0.1-0.1c0,0,0.1-0.1,0.1-0.1c0.2-0.2,0.4-0.4,0.6-0.6c0.1-0.1,0.2-0.2,0.3-0.3c0,0,0,0,0,0
		c0.3-0.3,0.6-0.7,0.8-1.1c0,0,0,0,0,0s0,0,0,0s0,0,0,0s0,0,0,0c0.2-0.4,0.4-0.8,0.6-1.2c0,0,0,0,0-0.1c0.1-0.2,0.1-0.3,0.1-0.5
		c0.1-0.3,0.1-0.5,0.2-0.8c0,0,0-0.1,0-0.1c0,0,0-0.1,0-0.1c0-0.1,0-0.2,0-0.4c0-0.2,0-0.5,0-0.7c0-0.1,0-0.1,0-0.2
		c0-0.1-0.1-0.3-0.1-0.4c0,0,0-0.1,0-0.1c0-0.2,0-0.4-0.1-0.5c0,0,0-0.1,0-0.1c0-0.1,0-0.2-0.1-0.2c0,0,0-0.1,0-0.1l-6.6-21.6
		C44,42.4,40,40.3,36.3,41.5z"/>
	<path class="st2" d="M81.9,250h121.2c6.6,0,12.9-3.1,16.9-8.3c0.3-0.3,0.6-0.7,0.8-1.1c0.3-0.4,0.5-0.7,0.8-1.1l60.6-103.9
		c1.9-3.2,2.8-6.8,2.8-10.6c0-3.6-1-7.2-2.8-10.5L221.5,10.5c-1.8-3.1-4.4-5.7-7.5-7.5L71.3,247.2C74.4,249,78.1,250,81.9,250z"/>
	<path class="st3" d="M199.7,125.6L199.7,125.6c-2.3-2.9-5.2-5.3-8.7-7.2c4.8-5.2,6.8-12.1,6-20.6c-0.4-4.4-1.7-8.3-3.8-11.6
		c-2.1-3.4-5-6.1-8.5-8.1c-3.2-1.8-6.8-3.3-10.6-4.2c-2.5-0.6-5.2-1.1-8.2-1.5V55.5c0-2.6-2.1-4.7-4.7-4.7h-35.9
		c-2.6,0-4.7,2.1-4.7,4.7v16.5c-1,0-2.2,0-3.4,0l-17.7-0.1c0,0,0,0,0,0c-1.2,0-2.4,0.5-3.3,1.4c-0.9,0.9-1.4,2.1-1.4,3.3v13.7
		c0,2.6,2.1,4.7,4.7,4.7h9.3c2.2,0,2.5,0.6,2.8,1.5v56.8c0,0,0,0,0,0c0,0-0.1,0-0.2,0h-9.3c-2.3,0-4.2,1.6-4.6,3.9l-2.6,15.3
		c-0.2,1.4,0.1,2.8,1,3.8c0.9,1.1,2.2,1.7,3.6,1.7h16.7c1,0,2.5,0,4.4,0v0.1v16.6c0,2.6,2.1,4.7,4.7,4.7h35.9c2.6,0,4.7-2.1,4.7-4.7
		v-16.9c3-0.2,5.8-0.6,8.3-1c3.9-0.7,7.6-1.7,11.1-3.2c3.7-1.5,6.9-3.4,9.5-5.7c2.6-2.4,4.8-5.4,6.5-8.9c1.6-3.5,2.7-7.5,3.1-12
		C205.3,137.8,203.7,130.7,199.7,125.6z"/>
	<path class="st4" d="M199.7,125.6c-2.3-2.9-5.2-5.3-8.7-7.2c4.8-5.2,6.8-12.1,6-20.6c-0.4-4.4-1.7-8.3-3.8-11.6
		c-2.1-3.4-5-6.1-8.5-8.1c-3.2-1.8-6.8-3.3-10.6-4.2c-2.5-0.6-5.2-1.1-8.2-1.5V55.5c0-2.6-2.1-4.7-4.7-4.7h-18.7v148.5h18.7
		c2.6,0,4.7-2.1,4.7-4.7v-16.9c3-0.2,5.8-0.6,8.3-1c3.9-0.7,7.6-1.7,11.1-3.2c3.7-1.5,6.9-3.4,9.5-5.7c2.6-2.4,4.8-5.4,6.5-8.9
		c1.6-3.5,2.7-7.5,3.1-12C205.3,137.8,203.7,130.7,199.7,125.6L199.7,125.6z"/>
</g>
</svg>
