<?xml version="1.0" encoding="utf-8"?>
<!-- Generator: Adobe Illustrator 23.0.1, SVG Export Plug-In . SVG Version: 6.00 Build 0)  -->
<!DOCTYPE svg PUBLIC "-//W3C//DTD SVG 1.1//EN" "http://www.w3.org/Graphics/SVG/1.1/DTD/svg11.dtd" [
	<!ENTITY ns_extend "http://ns.adobe.com/Extensibility/1.0/">
	<!ENTITY ns_ai "http://ns.adobe.com/AdobeIllustrator/10.0/">
	<!ENTITY ns_graphs "http://ns.adobe.com/Graphs/1.0/">
	<!ENTITY ns_vars "http://ns.adobe.com/Variables/1.0/">
	<!ENTITY ns_imrep "http://ns.adobe.com/ImageReplacement/1.0/">
	<!ENTITY ns_sfw "http://ns.adobe.com/SaveForWeb/1.0/">
	<!ENTITY ns_custom "http://ns.adobe.com/GenericCustomNamespace/1.0/">
	<!ENTITY ns_adobe_xpath "http://ns.adobe.com/XPath/1.0/">
]>
<svg version="1.1" id="Layer_1" xmlns:x="&ns_extend;" xmlns:i="&ns_ai;" xmlns:graph="&ns_graphs;"
	 xmlns="http://www.w3.org/2000/svg" xmlns:xlink="http://www.w3.org/1999/xlink" x="0px" y="0px" viewBox="0 0 671 684"
	 style="enable-background:new 0 0 671 684;" xml:space="preserve">
<style type="text/css">
	.st0{opacity:0.3;fill:url(#SVGID_1_);}
	.st1{fill:url(#SVGID_2_);}
	.st2{fill:url(#SVGID_3_);}
	.st3{opacity:0.3;fill:url(#SVGID_4_);}
	.st4{fill:url(#SVGID_5_);}
	.st5{fill:url(#SVGID_6_);}
	.st6{opacity:0.3;fill:url(#SVGID_7_);}
	.st7{fill:url(#SVGID_8_);}
	.st8{fill:url(#SVGID_9_);}
	.st9{opacity:0.3;fill:url(#SVGID_10_);}
	.st10{fill:url(#SVGID_11_);}
	.st11{fill:url(#SVGID_12_);}
	.st12{fill:#FFFFFF;}
	.st13{fill:#666666;}
	.st14{fill:#E6E6E6;}
	.st15{fill:#F2F2F2;}
	.st16{opacity:0.5;fill:#CCCCCC;}
	.st17{opacity:0.5;}
	.st18{fill:#4D4D4D;}
	.st19{opacity:0.7;fill:#CCCCCC;}
	.st20{opacity:0.5;fill:#B3B3B3;}
	.st21{fill:url(#SVGID_15_);}
	.st22{opacity:0.5;clip-path:url(#SVGID_17_);fill:url(#SVGID_18_);}
	.st23{opacity:0.5;clip-path:url(#SVGID_17_);fill:url(#SVGID_19_);}
	.st24{fill:#FFC88D;}
	.st25{opacity:0.8;fill:#FFFFFF;}
	.st26{opacity:0.6;fill:#FFFFFF;}
	.st27{opacity:0.4;fill:#FFFFFF;}
	.st28{opacity:0.2;fill:#FFFFFF;}
	.st29{fill:url(#SVGID_20_);}
	.st30{opacity:0.5;clip-path:url(#SVGID_22_);fill:url(#SVGID_23_);}
	.st31{opacity:0.5;clip-path:url(#SVGID_22_);fill:url(#SVGID_24_);}
	.st32{opacity:0.5;clip-path:url(#SVGID_22_);fill:url(#SVGID_25_);}
	.st33{fill:#FFFFFF;stroke:#FFFFFF;stroke-width:6;stroke-miterlimit:10;}
	.st34{fill:url(#SVGID_26_);}
	.st35{fill:url(#SVGID_27_);}
	.st36{opacity:0.7;fill:url(#SVGID_28_);}
	.st37{fill:url(#SVGID_29_);}
	.st38{fill:url(#SVGID_30_);}
	.st39{opacity:0.65;fill:#FFFFFF;stroke:#FFFFFF;stroke-width:6;stroke-miterlimit:10;}
	.st40{fill:url(#SVGID_31_);}
	.st41{fill:url(#SVGID_32_);}
	.st42{fill:url(#SVGID_33_);}
	.st43{opacity:0.65;fill:url(#SVGID_34_);}
	.st44{fill:#532E82;}
	.st45{fill:url(#SVGID_35_);}
	.st46{fill:#FCC888;}
	.st47{fill:#FFE3C2;}
	.st48{fill:#AD84C7;}
	.st49{clip-path:url(#SVGID_37_);}
	.st50{opacity:0.33;fill:#43107A;}
	.st51{opacity:0.22;fill:url(#SVGID_38_);}
	.st52{fill:url(#SVGID_39_);}
	.st53{fill:url(#SVGID_40_);}
	.st54{opacity:0.77;fill:#CCCCCC;}
	.st55{fill:url(#SVGID_41_);}
	.st56{fill:url(#SVGID_42_);}
	.st57{fill:#34BAE8;}
	.st58{opacity:0.81;}
	.st59{fill:url(#SVGID_43_);}
	.st60{fill:url(#SVGID_44_);}
	.st61{fill:url(#SVGID_45_);}
	.st62{fill:url(#SVGID_46_);}
	.st63{fill:url(#SVGID_47_);}
	.st64{fill:url(#SVGID_48_);}
	.st65{fill:url(#SVGID_49_);}
	.st66{fill:url(#SVGID_50_);}
	.st67{fill:url(#SVGID_51_);}
	.st68{fill:#FFECFF;}
	.st69{fill:#EAFDFE;}
	.st70{fill:url(#SVGID_52_);}
	.st71{fill:url(#SVGID_53_);}
	.st72{fill:#8FF0F9;}
	.st73{fill:url(#SVGID_54_);}
</style>
<metadata>
	<sfw  xmlns="&ns_sfw;">
		<slices></slices>
		<sliceSourceBounds  bottomLeftOrigin="true" height="633.9" width="613.2" x="380.2" y="-811.5"></sliceSourceBounds>
	</sfw>
</metadata>
<g>
	<g>
		<g>
			
				<linearGradient id="SVGID_1_" gradientUnits="userSpaceOnUse" x1="299.403" y1="232.971" x2="299.403" y2="-222.5075" gradientTransform="matrix(0.9966 8.188229e-02 -8.188229e-02 0.9966 -43.4188 303.3002)">
				<stop  offset="6.916990e-03" style="stop-color:#FFFFFF;stop-opacity:0"/>
				<stop  offset="0.176" style="stop-color:#D9F5F9;stop-opacity:5.106452e-02"/>
				<stop  offset="0.5555" style="stop-color:#78DDEB;stop-opacity:0.1657"/>
				<stop  offset="1" style="stop-color:#00BFD9;stop-opacity:0.3"/>
			</linearGradient>
			<circle class="st0" cx="254.6" cy="333" r="227.7"/>
			
				<linearGradient id="SVGID_2_" gradientUnits="userSpaceOnUse" x1="299.4038" y1="168.5156" x2="299.4038" y2="-158.0535" gradientTransform="matrix(0.9966 8.188229e-02 -8.188229e-02 0.9966 -43.4188 303.3002)">
				<stop  offset="6.916990e-03" style="stop-color:#FFFFFF;stop-opacity:0"/>
				<stop  offset="0.176" style="stop-color:#D9F5F9;stop-opacity:5.106452e-02"/>
				<stop  offset="0.5555" style="stop-color:#78DDEB;stop-opacity:0.1657"/>
				<stop  offset="1" style="stop-color:#00BFD9;stop-opacity:0.3"/>
			</linearGradient>
			<circle class="st1" cx="254.6" cy="333" r="163.3"/>
			
				<linearGradient id="SVGID_3_" gradientUnits="userSpaceOnUse" x1="299.4034" y1="128.0923" x2="299.4034" y2="-117.6293" gradientTransform="matrix(0.9966 8.188229e-02 -8.188229e-02 0.9966 -43.4188 303.3002)">
				<stop  offset="6.916990e-03" style="stop-color:#FFFFFF;stop-opacity:0"/>
				<stop  offset="0.176" style="stop-color:#D9F5F9;stop-opacity:5.106452e-02"/>
				<stop  offset="0.5555" style="stop-color:#78DDEB;stop-opacity:0.1657"/>
				<stop  offset="1" style="stop-color:#00BFD9;stop-opacity:0.3"/>
			</linearGradient>
			<circle class="st2" cx="254.6" cy="333" r="122.9"/>
		</g>
		<g>
			
				<linearGradient id="SVGID_4_" gradientUnits="userSpaceOnUse" x1="160.6083" y1="138.533" x2="160.6083" y2="-53.404" gradientTransform="matrix(0.9966 8.188229e-02 -8.188229e-02 0.9966 -43.4188 303.3002)">
				<stop  offset="6.916990e-03" style="stop-color:#FFFFFF;stop-opacity:0"/>
				<stop  offset="0.176" style="stop-color:#D9F5F9;stop-opacity:5.106452e-02"/>
				<stop  offset="0.5555" style="stop-color:#78DDEB;stop-opacity:0.1657"/>
				<stop  offset="1" style="stop-color:#00BFD9;stop-opacity:0.3"/>
			</linearGradient>
			<circle class="st3" cx="113.2" cy="358.9" r="96"/>
			
				<linearGradient id="SVGID_5_" gradientUnits="userSpaceOnUse" x1="160.6087" y1="111.3717" x2="160.6087" y2="-26.2433" gradientTransform="matrix(0.9966 8.188229e-02 -8.188229e-02 0.9966 -43.4188 303.3002)">
				<stop  offset="6.916990e-03" style="stop-color:#FFFFFF;stop-opacity:0"/>
				<stop  offset="0.176" style="stop-color:#D9F5F9;stop-opacity:5.106452e-02"/>
				<stop  offset="0.5555" style="stop-color:#78DDEB;stop-opacity:0.1657"/>
				<stop  offset="1" style="stop-color:#00BFD9;stop-opacity:0.3"/>
			</linearGradient>
			<circle class="st4" cx="113.2" cy="358.9" r="68.8"/>
			
				<linearGradient id="SVGID_6_" gradientUnits="userSpaceOnUse" x1="160.6085" y1="94.3375" x2="160.6085" y2="-9.2087" gradientTransform="matrix(0.9966 8.188229e-02 -8.188229e-02 0.9966 -43.4188 303.3002)">
				<stop  offset="6.916990e-03" style="stop-color:#FFFFFF;stop-opacity:0"/>
				<stop  offset="0.176" style="stop-color:#D9F5F9;stop-opacity:5.106452e-02"/>
				<stop  offset="0.5555" style="stop-color:#78DDEB;stop-opacity:0.1657"/>
				<stop  offset="1" style="stop-color:#00BFD9;stop-opacity:0.3"/>
			</linearGradient>
			<circle class="st5" cx="113.2" cy="358.9" r="51.8"/>
		</g>
		<g>
			
				<linearGradient id="SVGID_7_" gradientUnits="userSpaceOnUse" x1="528.1456" y1="211.6285" x2="528.1456" y2="-92.9535" gradientTransform="matrix(0.9966 8.188229e-02 -8.188229e-02 0.9966 -43.4188 303.3002)">
				<stop  offset="6.916990e-03" style="stop-color:#FFFFFF;stop-opacity:0"/>
				<stop  offset="0.176" style="stop-color:#D9F5F9;stop-opacity:0.1021"/>
				<stop  offset="0.5555" style="stop-color:#78DDEB;stop-opacity:0.3314"/>
				<stop  offset="1" style="stop-color:#00BFD9;stop-opacity:0.6"/>
			</linearGradient>
			<circle class="st6" cx="478.1" cy="405.7" r="152.3"/>
			
				<linearGradient id="SVGID_8_" gradientUnits="userSpaceOnUse" x1="528.1462" y1="168.5266" x2="528.1462" y2="-49.8526" gradientTransform="matrix(0.9966 8.188229e-02 -8.188229e-02 0.9966 -43.4188 303.3002)">
				<stop  offset="6.916990e-03" style="stop-color:#FFFFFF;stop-opacity:0"/>
				<stop  offset="0.176" style="stop-color:#D9F5F9;stop-opacity:0.1021"/>
				<stop  offset="0.5555" style="stop-color:#78DDEB;stop-opacity:0.3314"/>
				<stop  offset="1" style="stop-color:#00BFD9;stop-opacity:0.6"/>
			</linearGradient>
			<circle class="st7" cx="478.1" cy="405.7" r="109.2"/>
			
				<linearGradient id="SVGID_9_" gradientUnits="userSpaceOnUse" x1="528.1459" y1="141.4953" x2="528.1459" y2="-22.8206" gradientTransform="matrix(0.9966 8.188229e-02 -8.188229e-02 0.9966 -43.4188 303.3002)">
				<stop  offset="6.916990e-03" style="stop-color:#FFFFFF;stop-opacity:0"/>
				<stop  offset="0.176" style="stop-color:#D9F5F9;stop-opacity:0.1021"/>
				<stop  offset="0.5555" style="stop-color:#78DDEB;stop-opacity:0.3314"/>
				<stop  offset="1" style="stop-color:#00BFD9;stop-opacity:0.6"/>
			</linearGradient>
			<circle class="st8" cx="478.1" cy="405.7" r="82.2"/>
		</g>
		<g>
			
				<linearGradient id="SVGID_10_" gradientUnits="userSpaceOnUse" x1="360.5911" y1="-27.387" x2="360.5911" y2="-302.7171" gradientTransform="matrix(0.9966 8.188229e-02 -8.188229e-02 0.9966 -43.4188 303.3002)">
				<stop  offset="6.916990e-03" style="stop-color:#FFFFFF;stop-opacity:0"/>
				<stop  offset="0.176" style="stop-color:#D9F5F9;stop-opacity:5.106452e-02"/>
				<stop  offset="0.5555" style="stop-color:#78DDEB;stop-opacity:0.1657"/>
				<stop  offset="1" style="stop-color:#00BFD9;stop-opacity:0.3"/>
			</linearGradient>
			<circle class="st9" cx="329.5" cy="168.3" r="137.7"/>
			
				<linearGradient id="SVGID_11_" gradientUnits="userSpaceOnUse" x1="360.5916" y1="-66.3494" x2="360.5916" y2="-263.7556" gradientTransform="matrix(0.9966 8.188229e-02 -8.188229e-02 0.9966 -43.4188 303.3002)">
				<stop  offset="6.916990e-03" style="stop-color:#FFFFFF;stop-opacity:0"/>
				<stop  offset="0.176" style="stop-color:#D9F5F9;stop-opacity:5.106452e-02"/>
				<stop  offset="0.5555" style="stop-color:#78DDEB;stop-opacity:0.1657"/>
				<stop  offset="1" style="stop-color:#00BFD9;stop-opacity:0.3"/>
			</linearGradient>
			<circle class="st10" cx="329.5" cy="168.3" r="98.7"/>
			
				<linearGradient id="SVGID_12_" gradientUnits="userSpaceOnUse" x1="360.5914" y1="-90.7846" x2="360.5914" y2="-239.3197" gradientTransform="matrix(0.9966 8.188229e-02 -8.188229e-02 0.9966 -43.4188 303.3002)">
				<stop  offset="6.916990e-03" style="stop-color:#FFFFFF;stop-opacity:0"/>
				<stop  offset="0.176" style="stop-color:#D9F5F9;stop-opacity:5.106452e-02"/>
				<stop  offset="0.5555" style="stop-color:#78DDEB;stop-opacity:0.1657"/>
				<stop  offset="1" style="stop-color:#00BFD9;stop-opacity:0.3"/>
			</linearGradient>
			<circle class="st11" cx="329.5" cy="168.3" r="74.3"/>
		</g>
		<g>
			<g>
				<path class="st12" d="M136.2,339.3c-0.5,0-1-0.2-1.4-0.6c-0.1-0.1-0.2-0.2-0.2-0.3c-0.1-0.1-0.1-0.2-0.2-0.3s-0.1-0.2-0.1-0.4
					c0-0.1,0-0.3,0-0.4c0-0.1,0-0.3,0-0.4c0-0.1,0.1-0.2,0.1-0.4s0.1-0.2,0.2-0.3c0.1-0.1,0.2-0.2,0.2-0.3c0.7-0.7,2.1-0.8,2.8,0
					c0.1,0.1,0.2,0.2,0.2,0.3c0.1,0.1,0.1,0.2,0.2,0.3c0.1,0.1,0.1,0.2,0.1,0.4c0,0.1,0,0.3,0,0.4c0,0.1,0,0.3,0,0.4
					s-0.1,0.2-0.1,0.4s-0.1,0.2-0.2,0.3c-0.1,0.1-0.2,0.2-0.2,0.3C137.2,339.1,136.7,339.3,136.2,339.3z"/>
			</g>
			<g>
				<path class="st12" d="M144,331.5c-0.7-0.9-0.5-2.1,0.4-2.8l0,0c0.9-0.7,2.1-0.5,2.8,0.4l0,0c0.7,0.9,0.5,2.1-0.4,2.8l0,0
					c-0.4,0.3-0.8,0.4-1.2,0.4l0,0C145,332.3,144.4,332,144,331.5z M153.4,324.4c-0.7-0.9-0.5-2.1,0.4-2.8l0,0
					c0.9-0.7,2.1-0.5,2.8,0.4l0,0c0.7,0.9,0.5,2.1-0.4,2.8l0,0c-0.4,0.3-0.8,0.4-1.2,0.4l0,0C154.4,325.2,153.8,324.9,153.4,324.4z
					 M162.9,317.3c-0.7-0.9-0.5-2.1,0.4-2.8l0,0c0.9-0.7,2.1-0.5,2.8,0.4l0,0c0.7,0.9,0.5,2.1-0.4,2.8l0,0c-0.4,0.3-0.8,0.4-1.2,0.4
					l0,0C163.9,318.1,163.3,317.9,162.9,317.3z M172.3,310.3c-0.7-0.9-0.5-2.1,0.4-2.8l0,0c0.9-0.7,2.1-0.5,2.8,0.4l0,0
					c0.7,0.9,0.5,2.1-0.4,2.8l0,0c-0.4,0.3-0.8,0.4-1.2,0.4l0,0C173.3,311.1,172.7,310.8,172.3,310.3z M181.7,303.2
					c-0.7-0.9-0.5-2.1,0.4-2.8l0,0c0.9-0.7,2.1-0.5,2.8,0.4l0,0c0.7,0.9,0.5,2.1-0.4,2.8l0,0c-0.4,0.3-0.8,0.4-1.2,0.4l0,0
					C182.7,304,182.1,303.7,181.7,303.2z M191.2,296.2c-0.7-0.9-0.5-2.1,0.4-2.8l0,0c0.9-0.7,2.1-0.5,2.8,0.4l0,0
					c0.7,0.9,0.5,2.1-0.4,2.8l0,0c-0.4,0.3-0.8,0.4-1.2,0.4l0,0C192.1,297,191.5,296.7,191.2,296.2z M200.6,289.1
					c-0.7-0.9-0.5-2.1,0.4-2.8l0,0c0.9-0.7,2.1-0.5,2.8,0.4l0,0c0.7,0.9,0.5,2.1-0.4,2.8l0,0c-0.4,0.3-0.8,0.4-1.2,0.4l0,0
					C201.6,289.9,201,289.6,200.6,289.1z M210,282c-0.7-0.9-0.5-2.1,0.4-2.8l0,0c0.9-0.7,2.1-0.5,2.8,0.4l0,0
					c0.7,0.9,0.5,2.1-0.4,2.8l0,0c-0.4,0.3-0.8,0.4-1.2,0.4l0,0C211,282.8,210.4,282.5,210,282z M219.4,275
					c-0.7-0.9-0.5-2.1,0.4-2.8l0,0c0.9-0.7,2.1-0.5,2.8,0.4l0,0c0.7,0.9,0.5,2.1-0.4,2.8l0,0c-0.4,0.3-0.8,0.4-1.2,0.4l0,0
					C220.4,275.8,219.8,275.5,219.4,275z M228.8,267.9c-0.7-0.9-0.5-2.1,0.4-2.8l0,0c0.9-0.7,2.1-0.5,2.8,0.4l0,0
					c0.7,0.9,0.5,2.1-0.4,2.8l0,0c-0.4,0.3-0.8,0.4-1.2,0.4l0,0C229.8,268.7,229.2,268.4,228.8,267.9z M238.3,260.8
					c-0.7-0.9-0.5-2.1,0.4-2.8l0,0c0.9-0.7,2.1-0.5,2.8,0.4l0,0c0.7,0.9,0.5,2.1-0.4,2.8l0,0c-0.4,0.3-0.8,0.4-1.2,0.4l0,0
					C239.3,261.6,238.7,261.3,238.3,260.8z M247.7,253.8c-0.7-0.9-0.5-2.1,0.4-2.8l0,0c0.9-0.7,2.1-0.5,2.8,0.4l0,0
					c0.7,0.9,0.5,2.1-0.4,2.8l0,0c-0.4,0.3-0.8,0.4-1.2,0.4l0,0C248.7,254.6,248.1,254.3,247.7,253.8z M257.1,246.7
					c-0.7-0.9-0.5-2.1,0.4-2.8l0,0c0.9-0.7,2.1-0.5,2.8,0.4l0,0c0.7,0.9,0.5,2.1-0.4,2.8l0,0c-0.4,0.3-0.8,0.4-1.2,0.4l0,0
					C258.1,247.5,257.5,247.2,257.1,246.7z M266.6,239.6c-0.7-0.9-0.5-2.1,0.4-2.8l0,0c0.9-0.7,2.1-0.5,2.8,0.4l0,0
					c0.7,0.9,0.5,2.1-0.4,2.8l0,0c-0.4,0.3-0.8,0.4-1.2,0.4l0,0C267.5,240.4,267,240.1,266.6,239.6z M276,232.6
					c-0.7-0.9-0.5-2.1,0.4-2.8l0,0c0.9-0.7,2.1-0.5,2.8,0.4l0,0c0.7,0.9,0.5,2.1-0.4,2.8l0,0c-0.4,0.3-0.8,0.4-1.2,0.4l0,0
					C277,233.4,276.4,233.1,276,232.6z M285.4,225.5c-0.7-0.9-0.5-2.1,0.4-2.8l0,0c0.9-0.7,2.1-0.5,2.8,0.4l0,0
					c0.7,0.9,0.5,2.1-0.4,2.8l0,0c-0.4,0.3-0.8,0.4-1.2,0.4l0,0C286.4,226.3,285.8,226,285.4,225.5z M294.8,218.4
					c-0.7-0.9-0.5-2.1,0.4-2.8l0,0c0.9-0.7,2.1-0.5,2.8,0.4l0,0c0.7,0.9,0.5,2.1-0.4,2.8l0,0c-0.4,0.3-0.8,0.4-1.2,0.4l0,0
					C295.8,219.2,295.2,219,294.8,218.4z M304.3,211.4c-0.7-0.9-0.5-2.1,0.4-2.8l0,0c0.9-0.7,2.1-0.5,2.8,0.4l0,0
					c0.7,0.9,0.5,2.1-0.4,2.8l0,0c-0.4,0.3-0.8,0.4-1.2,0.4l0,0C305.3,212.2,304.7,211.9,304.3,211.4z M313.7,204.3
					c-0.7-0.9-0.5-2.1,0.4-2.8l0,0c0.9-0.7,2.1-0.5,2.8,0.4l0,0c0.7,0.9,0.5,2.1-0.4,2.8l0,0c-0.4,0.3-0.8,0.4-1.2,0.4l0,0
					C314.7,205.1,314.1,204.8,313.7,204.3z"/>
			</g>
			<g>
				<path class="st12" d="M324.7,198c-0.5,0-1-0.2-1.4-0.6s-0.6-0.9-0.6-1.4c0-0.1,0-0.3,0-0.4c0-0.1,0.1-0.2,0.1-0.4
					s0.1-0.2,0.2-0.3s0.2-0.2,0.2-0.3s0.2-0.2,0.3-0.2c0.1-0.1,0.2-0.1,0.4-0.2c0.1,0,0.2-0.1,0.4-0.1c0.3-0.1,0.5-0.1,0.8,0
					c0.1,0,0.3,0.1,0.4,0.1c0.1,0.1,0.2,0.1,0.3,0.2c0.1,0.1,0.2,0.2,0.3,0.2c0.1,0.1,0.2,0.2,0.2,0.3c0.1,0.1,0.1,0.2,0.2,0.3
					c0,0.1,0.1,0.2,0.1,0.4c0,0.1,0,0.3,0,0.4c0,0.5-0.2,1-0.6,1.4C325.8,197.8,325.3,198,324.7,198z"/>
			</g>
		</g>
		<g>
			<g>
				<path class="st12" d="M474.2,360.9c-0.3,0-0.5,0-0.8-0.2c-0.2-0.1-0.5-0.2-0.6-0.4c-0.2-0.2-0.3-0.4-0.4-0.7s-0.1-0.5-0.1-0.8
					c0-0.1,0-0.3,0-0.4c0-0.1,0.1-0.2,0.1-0.4c0-0.1,0.1-0.2,0.2-0.3c0.1-0.1,0.1-0.2,0.2-0.3c0.7-0.7,2.1-0.7,2.8,0
					c0.1,0.1,0.2,0.2,0.2,0.3c0.1,0.1,0.1,0.2,0.2,0.3c0,0.1,0.1,0.2,0.1,0.4c0,0.1,0,0.3,0,0.4c0,0.5-0.2,1-0.6,1.4
					c-0.1,0.1-0.2,0.2-0.3,0.2c-0.1,0.1-0.2,0.1-0.3,0.2s-0.2,0.1-0.4,0.1C474.4,360.9,474.3,360.9,474.2,360.9z"/>
			</g>
			<g>
				<path class="st12" d="M464.9,350.5c-0.7-0.9-0.6-2.1,0.3-2.8l0,0c0.9-0.7,2.1-0.5,2.8,0.3l0,0c0.7,0.9,0.5,2.1-0.3,2.8l0,0
					c-0.4,0.3-0.8,0.4-1.2,0.4l0,0C465.9,351.2,465.3,350.9,464.9,350.5z M457.2,340.8c-0.7-0.9-0.5-2.1,0.3-2.8l0,0
					c0.9-0.7,2.1-0.5,2.8,0.3l0,0c0.7,0.9,0.5,2.1-0.3,2.8l0,0c-0.4,0.3-0.8,0.4-1.2,0.4l0,0C458.2,341.5,457.6,341.3,457.2,340.8z
					 M449.5,331.1c-0.7-0.9-0.5-2.1,0.3-2.8l0,0c0.9-0.7,2.1-0.6,2.8,0.3l0,0c0.7,0.9,0.5,2.1-0.3,2.8l0,0c-0.4,0.3-0.8,0.4-1.2,0.4
					l0,0C450.5,331.9,449.9,331.6,449.5,331.1z M441.8,321.5c-0.7-0.9-0.5-2.1,0.3-2.8l0,0c0.9-0.7,2.1-0.5,2.8,0.3l0,0
					c0.7,0.9,0.6,2.1-0.3,2.8l0,0c-0.4,0.3-0.8,0.4-1.2,0.4l0,0C442.8,322.2,442.2,322,441.8,321.5z M434.2,311.8
					c-0.7-0.9-0.5-2.1,0.3-2.8l0,0c0.9-0.7,2.1-0.6,2.8,0.3l0,0c0.7,0.9,0.5,2.1-0.3,2.8l0,0c-0.4,0.3-0.8,0.4-1.2,0.4l0,0
					C435.1,312.5,434.6,312.3,434.2,311.8z M426.5,302.1c-0.7-0.9-0.5-2.1,0.3-2.8l0,0c0.9-0.7,2.1-0.5,2.8,0.3l0,0
					c0.7,0.9,0.5,2.1-0.3,2.8l0,0c-0.4,0.3-0.8,0.4-1.2,0.4l0,0C427.5,302.9,426.9,302.6,426.5,302.1z M418.8,292.5
					c-0.7-0.9-0.6-2.1,0.3-2.8l0,0c0.9-0.7,2.1-0.5,2.8,0.3l0,0c0.7,0.9,0.5,2.1-0.3,2.8l0,0c-0.4,0.3-0.8,0.4-1.2,0.4l0,0
					C419.8,293.2,419.2,293,418.8,292.5z M411.1,282.8c-0.7-0.9-0.5-2.1,0.3-2.8l0,0c0.9-0.7,2.1-0.5,2.8,0.3l0,0
					c0.7,0.9,0.5,2.1-0.3,2.8l0,0c-0.4,0.3-0.8,0.4-1.2,0.4l0,0C412.1,283.6,411.5,283.3,411.1,282.8z M403.4,273.1
					c-0.7-0.9-0.6-2.1,0.3-2.8l0,0c0.9-0.7,2.1-0.5,2.8,0.3l0,0c0.7,0.9,0.5,2.1-0.3,2.8l0,0c-0.4,0.3-0.8,0.4-1.2,0.4l0,0
					C404.4,273.9,403.8,273.6,403.4,273.1z M395.7,263.5c-0.7-0.9-0.6-2.1,0.3-2.8l0,0c0.9-0.7,2.1-0.5,2.8,0.3l0,0
					c0.7,0.9,0.5,2.1-0.3,2.8l0,0c-0.4,0.3-0.8,0.4-1.2,0.4l0,0C396.7,264.2,396.1,264,395.7,263.5z M388.1,253.8
					c-0.7-0.9-0.5-2.1,0.3-2.8l0,0c0.9-0.7,2.1-0.5,2.8,0.3l0,0c0.7,0.9,0.5,2.1-0.3,2.8l0,0c-0.4,0.3-0.8,0.4-1.2,0.4l0,0
					C389,254.6,388.5,254.3,388.1,253.8z M380.4,244.1c-0.7-0.9-0.5-2.1,0.3-2.8l0,0c0.9-0.7,2.1-0.5,2.8,0.3l0,0
					c0.7,0.9,0.5,2.1-0.3,2.8l0,0c-0.4,0.3-0.8,0.4-1.2,0.4l0,0C381.3,244.9,380.8,244.6,380.4,244.1z M372.7,234.5
					c-0.7-0.9-0.5-2.1,0.3-2.8l0,0c0.9-0.7,2.1-0.5,2.8,0.3l0,0c0.7,0.9,0.5,2.1-0.3,2.8l0,0c-0.4,0.3-0.8,0.4-1.2,0.4l0,0
					C373.7,235.2,373.1,235,372.7,234.5z M365,224.8c-0.7-0.9-0.5-2.1,0.3-2.8l0,0c0.9-0.7,2.1-0.5,2.8,0.3l0,0
					c0.7,0.9,0.5,2.1-0.3,2.8l0,0c-0.4,0.3-0.8,0.4-1.2,0.4l0,0C366,225.6,365.4,225.3,365,224.8z M357.3,215.2
					c-0.7-0.9-0.5-2.1,0.3-2.8l0,0c0.9-0.7,2.1-0.5,2.8,0.3l0,0c0.7,0.9,0.6,2.1-0.3,2.8l0,0c-0.4,0.3-0.8,0.4-1.2,0.4l0,0
					C358.3,215.9,357.7,215.6,357.3,215.2z M349.6,205.5c-0.7-0.9-0.5-2.1,0.3-2.8l0,0c0.9-0.7,2.1-0.5,2.8,0.3l0,0
					c0.7,0.9,0.5,2.1-0.3,2.8l0,0c-0.4,0.3-0.8,0.4-1.2,0.4l0,0C350.6,206.2,350,206,349.6,205.5z"/>
			</g>
			<g>
				<path class="st12" d="M343.5,196.6c-0.5,0-1-0.2-1.4-0.6c-0.4-0.4-0.6-0.9-0.6-1.4c0-0.1,0-0.3,0-0.4c0-0.1,0.1-0.2,0.1-0.4
					c0-0.1,0.1-0.2,0.2-0.3c0.1-0.1,0.2-0.2,0.2-0.3c0.7-0.7,2.1-0.7,2.8,0c0.1,0.1,0.2,0.2,0.2,0.3c0.1,0.1,0.1,0.2,0.2,0.3
					c0,0.1,0.1,0.2,0.1,0.4c0,0.1,0,0.3,0,0.4c0,0.5-0.2,1-0.6,1.4c-0.2,0.2-0.4,0.3-0.6,0.4C344,196.5,343.8,196.6,343.5,196.6z"/>
			</g>
		</g>
		<g>
			<g>
				<path class="st12" d="M445.9,407.7c-0.1,0-0.3,0-0.4,0c-0.1,0-0.2-0.1-0.4-0.1c-0.1-0.1-0.2-0.1-0.3-0.2
					c-0.1-0.1-0.2-0.2-0.3-0.2c-0.1-0.1-0.2-0.2-0.2-0.3c-0.1-0.1-0.1-0.2-0.2-0.3s-0.1-0.2-0.1-0.4c0-0.1,0-0.3,0-0.4
					c0-0.5,0.2-1,0.6-1.4c0.1-0.1,0.2-0.2,0.3-0.2c0.1-0.1,0.2-0.1,0.3-0.2s0.2-0.1,0.4-0.1c0.2-0.1,0.5-0.1,0.8,0
					c0.1,0,0.2,0.1,0.4,0.1c0.1,0,0.2,0.1,0.4,0.2c0.1,0.1,0.2,0.2,0.3,0.2c0.1,0.1,0.2,0.2,0.2,0.3c0.1,0.1,0.1,0.2,0.2,0.3
					c0.1,0.1,0.1,0.2,0.1,0.4c0,0.1,0,0.3,0,0.4c0,0.5-0.2,1-0.6,1.4C446.9,407.5,446.4,407.7,445.9,407.7z"/>
			</g>
			<g>
				<path class="st12" d="M433.7,406.2c-1.1-0.1-1.9-1.1-1.7-2.2l0,0c0.1-1.1,1.1-1.9,2.2-1.7l0,0c1.1,0.1,1.9,1.1,1.7,2.2l0,0
					c-0.1,1-1,1.8-2,1.8l0,0C433.9,406.2,433.8,406.2,433.7,406.2z M397.8,401.8c-1.1-0.1-1.9-1.1-1.8-2.2l0,0
					c0.1-1.1,1.1-1.9,2.2-1.7l0,0c1.1,0.1,1.9,1.1,1.7,2.2l0,0c-0.1,1-1,1.8-2,1.8l0,0C398,401.8,397.9,401.8,397.8,401.8z
					 M385.9,400.3c-1.1-0.1-1.9-1.1-1.8-2.2l0,0c0.1-1.1,1.1-1.9,2.2-1.7l0,0c1.1,0.1,1.9,1.1,1.7,2.2l0,0c-0.1,1-1,1.8-2,1.8l0,0
					C386,400.4,386,400.4,385.9,400.3z M373.9,398.9c-1.1-0.1-1.9-1.1-1.8-2.2l0,0c0.1-1.1,1.1-1.9,2.2-1.8l0,0
					c1.1,0.1,1.9,1.1,1.7,2.2l0,0c-0.1,1-1,1.8-2,1.8l0,0C374.1,398.9,374,398.9,373.9,398.9z M362,397.4c-1.1-0.1-1.9-1.1-1.8-2.2
					l0,0c0.1-1.1,1.1-1.9,2.2-1.7l0,0c1.1,0.1,1.9,1.1,1.7,2.2l0,0c-0.1,1-1,1.8-2,1.8l0,0C362.1,397.4,362,397.4,362,397.4z
					 M350,395.9c-1.1-0.1-1.9-1.1-1.7-2.2l0,0c0.1-1.1,1.1-1.9,2.2-1.8l0,0c1.1,0.1,1.9,1.1,1.8,2.2l0,0c-0.1,1-1,1.8-2,1.8l0,0
					C350.1,396,350.1,396,350,395.9z M338,394.5c-1.1-0.1-1.9-1.1-1.8-2.2l0,0c0.1-1.1,1.1-1.9,2.2-1.7l0,0c1.1,0.1,1.9,1.1,1.8,2.2
					l0,0c-0.1,1-1,1.8-2,1.8l0,0C338.2,394.5,338.1,394.5,338,394.5z M326.1,393c-1.1-0.1-1.9-1.1-1.7-2.2l0,0
					c0.1-1.1,1.1-1.9,2.2-1.7l0,0c1.1,0.1,1.9,1.1,1.8,2.2l0,0c-0.1,1-1,1.8-2,1.8l0,0C326.2,393,326.1,393,326.1,393z M314.1,391.6
					c-1.1-0.1-1.9-1.1-1.7-2.2l0,0c0.1-1.1,1.1-1.9,2.2-1.7l0,0c1.1,0.1,1.9,1.1,1.8,2.2l0,0c-0.1,1-1,1.8-2,1.8l0,0
					C314.3,391.6,314.2,391.6,314.1,391.6z M302.1,390.1c-1.1-0.1-1.9-1.1-1.7-2.2l0,0c0.1-1.1,1.1-1.9,2.2-1.7l0,0
					c1.1,0.1,1.9,1.1,1.8,2.2l0,0c-0.1,1-1,1.8-2,1.8l0,0C302.3,390.1,302.2,390.1,302.1,390.1z M290.2,388.6
					c-1.1-0.1-1.9-1.1-1.7-2.2l0,0c0.1-1.1,1.1-1.9,2.2-1.8l0,0c1.1,0.1,1.9,1.1,1.7,2.2l0,0c-0.1,1-1,1.8-2,1.8l0,0
					C290.3,388.6,290.3,388.6,290.2,388.6z M278.2,387.2c-1.1-0.1-1.9-1.1-1.7-2.2l0,0c0.1-1.1,1.1-1.9,2.2-1.7l0,0
					c1.1,0.1,1.9,1.1,1.8,2.2l0,0c-0.1,1-1,1.8-2,1.8l0,0C278.4,387.2,278.3,387.2,278.2,387.2z M266.3,385.7
					c-1.1-0.1-1.9-1.1-1.7-2.2l0,0c0.1-1.1,1.1-1.9,2.2-1.8l0,0c1.1,0.1,1.9,1.1,1.7,2.2l0,0c-0.1,1-1,1.8-2,1.8l0,0
					C266.4,385.7,266.3,385.7,266.3,385.7z M254.3,384.2c-1.1-0.1-1.9-1.1-1.7-2.2l0,0c0.1-1.1,1.1-1.9,2.2-1.7l0,0
					c1.1,0.1,1.9,1.1,1.7,2.2l0,0c-0.1,1-1,1.8-2,1.8l0,0C254.5,384.3,254.4,384.2,254.3,384.2z M242.3,382.8
					c-1.1-0.1-1.9-1.1-1.7-2.2l0,0c0.1-1.1,1.1-1.9,2.2-1.7l0,0c1.1,0.1,1.9,1.1,1.7,2.2l0,0c-0.1,1-1,1.8-2,1.8l0,0
					C242.5,382.8,242.4,382.8,242.3,382.8z M230.4,381.3c-1.1-0.1-1.9-1.1-1.7-2.2l0,0c0.1-1.1,1.1-1.9,2.2-1.7l0,0
					c1.1,0.1,1.9,1.1,1.7,2.2l0,0c-0.1,1-1,1.8-2,1.8l0,0C230.6,381.3,230.5,381.3,230.4,381.3z M218.4,379.8
					c-1.1-0.1-1.9-1.1-1.7-2.2l0,0c0.1-1.1,1.1-1.9,2.2-1.7l0,0c1.1,0.1,1.9,1.1,1.7,2.2l0,0c-0.1,1-1,1.8-2,1.8l0,0
					C218.6,379.9,218.5,379.9,218.4,379.8z M206.5,378.4c-1.1-0.1-1.9-1.1-1.7-2.2l0,0c0.1-1.1,1.1-1.9,2.2-1.8l0,0
					c1.1,0.1,1.9,1.1,1.7,2.2l0,0c-0.1,1-1,1.8-2,1.8l0,0C206.6,378.4,206.5,378.4,206.5,378.4z M194.5,376.9
					c-1.1-0.1-1.9-1.1-1.7-2.2l0,0c0.1-1.1,1.1-1.9,2.2-1.7l0,0c1.1,0.1,1.9,1.1,1.7,2.2l0,0c-0.1,1-1,1.8-2,1.8l0,0
					C194.7,376.9,194.6,376.9,194.5,376.9z M182.5,375.4c-1.1-0.1-1.9-1.1-1.7-2.2l0,0c0.1-1.1,1.1-1.9,2.2-1.8l0,0
					c1.1,0.1,1.9,1.1,1.7,2.2l0,0c-0.1,1-1,1.8-2,1.8l0,0C182.7,375.5,182.6,375.5,182.5,375.4z M170.6,374
					c-1.1-0.1-1.9-1.1-1.7-2.2l0,0c0.1-1.1,1.1-1.9,2.2-1.7l0,0c1.1,0.1,1.9,1.1,1.7,2.2l0,0c-0.1,1-1,1.8-2,1.8l0,0
					C170.8,374,170.7,374,170.6,374z M158.6,372.5c-1.1-0.1-1.9-1.1-1.7-2.2l0,0c0.1-1.1,1.1-1.9,2.2-1.7l0,0
					c1.1,0.1,1.9,1.1,1.7,2.2l0,0c-0.1,1-1,1.8-2,1.8l0,0C158.8,372.5,158.7,372.5,158.6,372.5z M146.7,371.1
					c-1.1-0.1-1.9-1.1-1.7-2.2l0,0c0.1-1.1,1.1-1.9,2.2-1.7l0,0c1.1,0.1,1.9,1.1,1.7,2.2l0,0c-0.1,1-1,1.8-2,1.8l0,0
					C146.8,371.1,146.8,371.1,146.7,371.1z M134.7,369.6c-1.1-0.1-1.9-1.1-1.7-2.2l0,0c0.1-1.1,1.1-1.9,2.2-1.7l0,0
					c1.1,0.1,1.9,1.1,1.7,2.2l0,0c-0.1,1-1,1.8-2,1.8l0,0C134.9,369.6,134.8,369.6,134.7,369.6z"/>
			</g>
			<g>
				<path class="st12" d="M123,368.1c-0.5,0-1-0.2-1.4-0.6c-0.4-0.4-0.6-0.9-0.6-1.4c0-0.5,0.2-1,0.6-1.4c0.5-0.5,1.2-0.7,1.8-0.5
					c0.1,0,0.2,0.1,0.4,0.1c0.1,0,0.2,0.1,0.4,0.2c0.1,0.1,0.2,0.2,0.3,0.2c0.4,0.4,0.6,0.9,0.6,1.4c0,0.1,0,0.3,0,0.4
					c0,0.1-0.1,0.2-0.1,0.4s-0.1,0.2-0.2,0.3c-0.1,0.1-0.2,0.2-0.2,0.3C124,367.9,123.5,368.1,123,368.1z"/>
			</g>
		</g>
		<g>
			<path class="st13" d="M406.5,248.2H191.1c-2.5,0-4.6,2.1-4.6,4.6l7.5,135.1c0,2.5,2.1,4.6,4.6,4.6H399c2.5,0,4.6-2.1,4.6-4.6
				l7.5-135.1C411.1,250.3,409,248.2,406.5,248.2z"/>
			<path class="st14" d="M407.2,539.5H191.1c-2.5,0-4.6-2.1-4.6-4.7l7.5-137.6c0-2.6,2.1-4.7,4.6-4.7H399c2.5,0,4.6,2.1,4.6,4.7
				l8.2,137.6C411.8,537.4,409.7,539.5,407.2,539.5z"/>
			<path class="st15" d="M392.9,260.3H204.6c-2.1,0-3.8,1.7-3.8,3.8l5.5,112.5c0,2.1,1.7,3.8,3.8,3.8h177.4c2.1,0,3.8-1.7,3.8-3.8
				l5.5-112.5C396.8,262,395.1,260.3,392.9,260.3z"/>
			<path class="st16" d="M200.7,406.8l-1.2,64.7c0,1.9,1.5,3.5,3.5,3.5h190.9c2,0,3.6-1.7,3.5-3.6l-3.6-64.6
				c-0.1-1.8-1.6-3.3-3.5-3.3l-186-0.2C202.3,403.5,200.8,405,200.7,406.8z"/>
			<rect x="217.5" y="391" class="st13" width="159.2" height="7.5"/>
			<g class="st17">
				<g>
					<path class="st18" d="M214.5,410.6h-8.5c-0.8,0-1.4-0.6-1.4-1.4v-2.2c0-0.8,0.6-1.4,1.4-1.4h8.5c0.8,0,1.4,0.6,1.4,1.4v2.2
						C215.8,410,215.2,410.6,214.5,410.6z"/>
					<path class="st18" d="M227.9,410.6h-8.5c-0.8,0-1.4-0.6-1.4-1.4v-2.2c0-0.8,0.6-1.4,1.4-1.4h8.5c0.8,0,1.4,0.6,1.4,1.4v2.2
						C229.3,410,228.7,410.6,227.9,410.6z"/>
					<path class="st18" d="M241.3,410.6h-8.5c-0.8,0-1.4-0.6-1.4-1.4v-2.2c0-0.8,0.6-1.4,1.4-1.4h8.5c0.8,0,1.4,0.6,1.4,1.4v2.2
						C242.7,410,242.1,410.6,241.3,410.6z"/>
					<path class="st18" d="M254.8,410.6h-8.5c-0.8,0-1.4-0.6-1.4-1.4v-2.2c0-0.8,0.6-1.4,1.4-1.4h8.5c0.8,0,1.4,0.6,1.4,1.4v2.2
						C256.1,410,255.5,410.6,254.8,410.6z"/>
					<path class="st18" d="M268.2,410.6h-8.5c-0.8,0-1.4-0.6-1.4-1.4v-2.2c0-0.8,0.6-1.4,1.4-1.4h8.5c0.8,0,1.4,0.6,1.4,1.4v2.2
						C269.6,410,268.9,410.6,268.2,410.6z"/>
					<path class="st18" d="M281.6,410.6h-8.5c-0.8,0-1.4-0.6-1.4-1.4v-2.2c0-0.8,0.6-1.4,1.4-1.4h8.5c0.8,0,1.4,0.6,1.4,1.4v2.2
						C283,410,282.4,410.6,281.6,410.6z"/>
					<path class="st18" d="M295,410.6h-8.5c-0.8,0-1.4-0.6-1.4-1.4v-2.2c0-0.8,0.6-1.4,1.4-1.4h8.5c0.8,0,1.4,0.6,1.4,1.4v2.2
						C296.4,410,295.8,410.6,295,410.6z"/>
					<path class="st18" d="M308.5,410.6h-8.5c-0.8,0-1.4-0.6-1.4-1.4v-2.2c0-0.8,0.6-1.4,1.4-1.4h8.5c0.8,0,1.4,0.6,1.4,1.4v2.2
						C309.9,410,309.2,410.6,308.5,410.6z"/>
					<path class="st18" d="M321.9,410.6h-8.5c-0.8,0-1.4-0.6-1.4-1.4v-2.2c0-0.8,0.6-1.4,1.4-1.4h8.5c0.8,0,1.4,0.6,1.4,1.4v2.2
						C323.3,410,322.7,410.6,321.9,410.6z"/>
					<path class="st18" d="M335.3,410.6h-8.5c-0.8,0-1.4-0.6-1.4-1.4v-2.2c0-0.8,0.6-1.4,1.4-1.4h8.5c0.8,0,1.4,0.6,1.4,1.4v2.2
						C336.7,410,336.1,410.6,335.3,410.6z"/>
					<path class="st18" d="M348.8,410.6h-8.5c-0.8,0-1.4-0.6-1.4-1.4v-2.2c0-0.8,0.6-1.4,1.4-1.4h8.5c0.8,0,1.4,0.6,1.4,1.4v2.2
						C350.2,410,349.5,410.6,348.8,410.6z"/>
					<path class="st18" d="M362.2,410.6h-8.5c-0.8,0-1.4-0.6-1.4-1.4v-2.2c0-0.8,0.6-1.4,1.4-1.4h8.5c0.8,0,1.4,0.6,1.4,1.4v2.2
						C363.6,410,363,410.6,362.2,410.6z"/>
					<path class="st18" d="M375.6,410.6h-8.5c-0.8,0-1.4-0.6-1.4-1.4v-2.2c0-0.8,0.6-1.4,1.4-1.4h8.5c0.8,0,1.4,0.6,1.4,1.4v2.2
						C377,410,376.4,410.6,375.6,410.6z"/>
					<path class="st18" d="M389.1,410.6h-8.5c-0.8,0-1.4-0.6-1.4-1.4v-2.2c0-0.8,0.6-1.4,1.4-1.4h8.5c0.8,0,1.4,0.6,1.4,1.4v2.2
						C390.5,410,389.8,410.6,389.1,410.6z"/>
				</g>
				<g>
					<path class="st18" d="M213.8,422.9h-8.5c-0.8,0-1.4-0.6-1.4-1.4v-7.6c0-0.8,0.6-1.4,1.4-1.4h8.5c0.8,0,1.4,0.6,1.4,1.4v7.6
						C215.2,422.3,214.6,422.9,213.8,422.9z"/>
					<path class="st18" d="M227.2,422.9h-8.5c-0.8,0-1.4-0.6-1.4-1.4v-7.6c0-0.8,0.6-1.4,1.4-1.4h8.5c0.8,0,1.4,0.6,1.4,1.4v7.6
						C228.6,422.3,228,422.9,227.2,422.9z"/>
					<path class="st18" d="M240.7,422.9h-8.5c-0.8,0-1.4-0.6-1.4-1.4v-7.6c0-0.8,0.6-1.4,1.4-1.4h8.5c0.8,0,1.4,0.6,1.4,1.4v7.6
						C242.1,422.3,241.4,422.9,240.7,422.9z"/>
					<path class="st18" d="M254.1,422.9h-8.5c-0.8,0-1.4-0.6-1.4-1.4v-7.6c0-0.8,0.6-1.4,1.4-1.4h8.5c0.8,0,1.4,0.6,1.4,1.4v7.6
						C255.5,422.3,254.9,422.9,254.1,422.9z"/>
					<path class="st18" d="M267.5,422.9H259c-0.8,0-1.4-0.6-1.4-1.4v-7.6c0-0.8,0.6-1.4,1.4-1.4h8.5c0.8,0,1.4,0.6,1.4,1.4v7.6
						C268.9,422.3,268.3,422.9,267.5,422.9z"/>
					<path class="st18" d="M281,422.9h-8.5c-0.8,0-1.4-0.6-1.4-1.4v-7.6c0-0.8,0.6-1.4,1.4-1.4h8.5c0.8,0,1.4,0.6,1.4,1.4v7.6
						C282.4,422.3,281.7,422.9,281,422.9z"/>
					<path class="st18" d="M294.4,422.9h-8.5c-0.8,0-1.4-0.6-1.4-1.4v-7.6c0-0.8,0.6-1.4,1.4-1.4h8.5c0.8,0,1.4,0.6,1.4,1.4v7.6
						C295.8,422.3,295.2,422.9,294.4,422.9z"/>
					<path class="st18" d="M307.8,422.9h-8.5c-0.8,0-1.4-0.6-1.4-1.4v-7.6c0-0.8,0.6-1.4,1.4-1.4h8.5c0.8,0,1.4,0.6,1.4,1.4v7.6
						C309.2,422.3,308.6,422.9,307.8,422.9z"/>
					<path class="st18" d="M321.3,422.9h-8.5c-0.8,0-1.4-0.6-1.4-1.4v-7.6c0-0.8,0.6-1.4,1.4-1.4h8.5c0.8,0,1.4,0.6,1.4,1.4v7.6
						C322.7,422.3,322,422.9,321.3,422.9z"/>
					<path class="st18" d="M334.7,422.9h-8.5c-0.8,0-1.4-0.6-1.4-1.4v-7.6c0-0.8,0.6-1.4,1.4-1.4h8.5c0.8,0,1.4,0.6,1.4,1.4v7.6
						C336.1,422.3,335.5,422.9,334.7,422.9z"/>
					<path class="st18" d="M348.1,422.9h-8.5c-0.8,0-1.4-0.6-1.4-1.4v-7.6c0-0.8,0.6-1.4,1.4-1.4h8.5c0.8,0,1.4,0.6,1.4,1.4v7.6
						C349.5,422.3,348.9,422.9,348.1,422.9z"/>
					<path class="st18" d="M361.6,422.9H353c-0.8,0-1.4-0.6-1.4-1.4v-7.6c0-0.8,0.6-1.4,1.4-1.4h8.5c0.8,0,1.4,0.6,1.4,1.4v7.6
						C363,422.3,362.3,422.9,361.6,422.9z"/>
				</g>
				<g>
					<path class="st18" d="M213.4,472h-8.5c-0.8,0-1.4-0.6-1.4-1.4V463c0-0.8,0.6-1.4,1.4-1.4h8.5c0.8,0,1.4,0.6,1.4,1.4v7.6
						C214.8,471.4,214.2,472,213.4,472z"/>
					<path class="st18" d="M226.8,472h-8.5c-0.8,0-1.4-0.6-1.4-1.4V463c0-0.8,0.6-1.4,1.4-1.4h8.5c0.8,0,1.4,0.6,1.4,1.4v7.6
						C228.2,471.4,227.6,472,226.8,472z"/>
					<path class="st18" d="M240.3,472h-8.5c-0.8,0-1.4-0.6-1.4-1.4V463c0-0.8,0.6-1.4,1.4-1.4h8.5c0.8,0,1.4,0.6,1.4,1.4v7.6
						C241.7,471.4,241,472,240.3,472z"/>
					<path class="st18" d="M253.7,472h-8.5c-0.8,0-1.4-0.6-1.4-1.4V463c0-0.8,0.6-1.4,1.4-1.4h8.5c0.8,0,1.4,0.6,1.4,1.4v7.6
						C255.1,471.4,254.5,472,253.7,472z"/>
					<path class="st18" d="M323.9,472h-65.3c-0.8,0-1.4-0.6-1.4-1.4V463c0-0.8,0.6-1.4,1.4-1.4h65.3c0.8,0,1.4,0.6,1.4,1.4v7.6
						C325.3,471.4,324.7,472,323.9,472z"/>
					<path class="st18" d="M337.3,472h-8.5c-0.8,0-1.4-0.6-1.4-1.4V463c0-0.8,0.6-1.4,1.4-1.4h8.5c0.8,0,1.4,0.6,1.4,1.4v7.6
						C338.7,471.4,338.1,472,337.3,472z"/>
					<path class="st18" d="M350.8,472h-8.5c-0.8,0-1.4-0.6-1.4-1.4V463c0-0.8,0.6-1.4,1.4-1.4h8.5c0.8,0,1.4,0.6,1.4,1.4v7.6
						C352.1,471.4,351.5,472,350.8,472z"/>
				</g>
				<g>
					<path class="st18" d="M243.4,435.2h-8.5c-0.8,0-1.4-0.6-1.4-1.4v-7.6c0-0.8,0.6-1.4,1.4-1.4h8.5c0.8,0,1.4,0.6,1.4,1.4v7.6
						C244.8,434.6,244.2,435.2,243.4,435.2z"/>
					<path class="st18" d="M230.1,435.2h-25c-0.8,0-1.4-0.6-1.4-1.4v-7.6c0-0.8,0.6-1.4,1.4-1.4h25c0.8,0,1.4,0.6,1.4,1.4v7.6
						C231.5,434.6,230.8,435.2,230.1,435.2z"/>
					<path class="st18" d="M256.9,435.2h-8.5c-0.8,0-1.4-0.6-1.4-1.4v-7.6c0-0.8,0.6-1.4,1.4-1.4h8.5c0.8,0,1.4,0.6,1.4,1.4v7.6
						C258.3,434.6,257.6,435.2,256.9,435.2z"/>
					<path class="st18" d="M270.3,435.2h-8.5c-0.8,0-1.4-0.6-1.4-1.4v-7.6c0-0.8,0.6-1.4,1.4-1.4h8.5c0.8,0,1.4,0.6,1.4,1.4v7.6
						C271.7,434.6,271.1,435.2,270.3,435.2z"/>
					<path class="st18" d="M283.7,435.2h-8.5c-0.8,0-1.4-0.6-1.4-1.4v-7.6c0-0.8,0.6-1.4,1.4-1.4h8.5c0.8,0,1.4,0.6,1.4,1.4v7.6
						C285.1,434.6,284.5,435.2,283.7,435.2z"/>
					<path class="st18" d="M297.2,435.2h-8.5c-0.8,0-1.4-0.6-1.4-1.4v-7.6c0-0.8,0.6-1.4,1.4-1.4h8.5c0.8,0,1.4,0.6,1.4,1.4v7.6
						C298.6,434.6,297.9,435.2,297.2,435.2z"/>
					<path class="st18" d="M310.6,435.2h-8.5c-0.8,0-1.4-0.6-1.4-1.4v-7.6c0-0.8,0.6-1.4,1.4-1.4h8.5c0.8,0,1.4,0.6,1.4,1.4v7.6
						C312,434.6,311.4,435.2,310.6,435.2z"/>
					<path class="st18" d="M324.1,435.2h-8.5c-0.8,0-1.4-0.6-1.4-1.4v-7.6c0-0.8,0.6-1.4,1.4-1.4h8.5c0.8,0,1.4,0.6,1.4,1.4v7.6
						C325.4,434.6,324.8,435.2,324.1,435.2z"/>
					<path class="st18" d="M337.5,435.2h-8.5c-0.8,0-1.4-0.6-1.4-1.4v-7.6c0-0.8,0.6-1.4,1.4-1.4h8.5c0.8,0,1.4,0.6,1.4,1.4v7.6
						C338.9,434.6,338.3,435.2,337.5,435.2z"/>
					<path class="st18" d="M350.9,435.2h-8.5c-0.8,0-1.4-0.6-1.4-1.4v-7.6c0-0.8,0.6-1.4,1.4-1.4h8.5c0.8,0,1.4,0.6,1.4,1.4v7.6
						C352.3,434.6,351.7,435.2,350.9,435.2z"/>
					<path class="st18" d="M364.4,435.2h-8.5c-0.8,0-1.4-0.6-1.4-1.4v-7.6c0-0.8,0.6-1.4,1.4-1.4h8.5c0.8,0,1.4,0.6,1.4,1.4v7.6
						C365.8,434.6,365.1,435.2,364.4,435.2z"/>
					<path class="st18" d="M377.8,435.2h-8.5c-0.8,0-1.4-0.6-1.4-1.4v-7.6c0-0.8,0.6-1.4,1.4-1.4h8.5c0.8,0,1.4,0.6,1.4,1.4v7.6
						C379.2,434.6,378.6,435.2,377.8,435.2z"/>
					<path class="st18" d="M391.9,431.6v-5.4c0-0.8-0.6-1.4-1.4-1.4h-7.8c-0.8,0-1.4,0.6-1.4,1.4v7.6c0,0.8,0.6,1.4,1.4,1.4h2.6
						v10.6c0,0.8,0.6,1.4,1.4,1.4h3.8c0.8,0,1.4-0.6,1.4-1.4v-13.9C391.9,431.8,391.9,431.7,391.9,431.6z"/>
				</g>
				<g>
					<path class="st18" d="M234,447.1h-8.5c-0.8,0-1.4-0.6-1.4-1.4v-7.6c0-0.8,0.6-1.4,1.4-1.4h8.5c0.8,0,1.4,0.6,1.4,1.4v7.6
						C235.4,446.5,234.8,447.1,234,447.1z"/>
					<path class="st18" d="M220.4,447.1h-15.3c-0.8,0-1.4-0.6-1.4-1.4v-7.6c0-0.8,0.6-1.4,1.4-1.4h15.3c0.8,0,1.4,0.6,1.4,1.4v7.6
						C221.8,446.5,221.2,447.1,220.4,447.1z"/>
					<path class="st18" d="M247.5,447.1h-8.5c-0.8,0-1.4-0.6-1.4-1.4v-7.6c0-0.8,0.6-1.4,1.4-1.4h8.5c0.8,0,1.4,0.6,1.4,1.4v7.6
						C248.9,446.5,248.2,447.1,247.5,447.1z"/>
					<path class="st18" d="M260.9,447.1h-8.5c-0.8,0-1.4-0.6-1.4-1.4v-7.6c0-0.8,0.6-1.4,1.4-1.4h8.5c0.8,0,1.4,0.6,1.4,1.4v7.6
						C262.3,446.5,261.7,447.1,260.9,447.1z"/>
					<path class="st18" d="M274.3,447.1h-8.5c-0.8,0-1.4-0.6-1.4-1.4v-7.6c0-0.8,0.6-1.4,1.4-1.4h8.5c0.8,0,1.4,0.6,1.4,1.4v7.6
						C275.7,446.5,275.1,447.1,274.3,447.1z"/>
					<path class="st18" d="M287.8,447.1h-8.5c-0.8,0-1.4-0.6-1.4-1.4v-7.6c0-0.8,0.6-1.4,1.4-1.4h8.5c0.8,0,1.4,0.6,1.4,1.4v7.6
						C289.2,446.5,288.5,447.1,287.8,447.1z"/>
					<path class="st18" d="M301.2,447.1h-8.5c-0.8,0-1.4-0.6-1.4-1.4v-7.6c0-0.8,0.6-1.4,1.4-1.4h8.5c0.8,0,1.4,0.6,1.4,1.4v7.6
						C302.6,446.5,302,447.1,301.2,447.1z"/>
					<path class="st18" d="M314.7,447.1h-8.5c-0.8,0-1.4-0.6-1.4-1.4v-7.6c0-0.8,0.6-1.4,1.4-1.4h8.5c0.8,0,1.4,0.6,1.4,1.4v7.6
						C316,446.5,315.4,447.1,314.7,447.1z"/>
					<path class="st18" d="M328.1,447.1h-8.5c-0.8,0-1.4-0.6-1.4-1.4v-7.6c0-0.8,0.6-1.4,1.4-1.4h8.5c0.8,0,1.4,0.6,1.4,1.4v7.6
						C329.5,446.5,328.9,447.1,328.1,447.1z"/>
					<path class="st18" d="M341.5,447.1H333c-0.8,0-1.4-0.6-1.4-1.4v-7.6c0-0.8,0.6-1.4,1.4-1.4h8.5c0.8,0,1.4,0.6,1.4,1.4v7.6
						C342.9,446.5,342.3,447.1,341.5,447.1z"/>
					<path class="st18" d="M355,447.1h-8.5c-0.8,0-1.4-0.6-1.4-1.4v-7.6c0-0.8,0.6-1.4,1.4-1.4h8.5c0.8,0,1.4,0.6,1.4,1.4v7.6
						C356.3,446.5,355.7,447.1,355,447.1z"/>
					<path class="st18" d="M368.4,447.1h-8.5c-0.8,0-1.4-0.6-1.4-1.4v-7.6c0-0.8,0.6-1.4,1.4-1.4h8.5c0.8,0,1.4,0.6,1.4,1.4v7.6
						C369.8,446.5,369.2,447.1,368.4,447.1z"/>
					<path class="st18" d="M381.8,447.1h-8.5c-0.8,0-1.4-0.6-1.4-1.4v-7.6c0-0.8,0.6-1.4,1.4-1.4h8.5c0.8,0,1.4,0.6,1.4,1.4v7.6
						C383.2,446.5,382.6,447.1,381.8,447.1z"/>
				</g>
				<g>
					<path class="st18" d="M230,459.5h-8.5c-0.8,0-1.4-0.6-1.4-1.4v-7.6c0-0.8,0.6-1.4,1.4-1.4h8.5c0.8,0,1.4,0.6,1.4,1.4v7.6
						C231.4,458.9,230.8,459.5,230,459.5z"/>
					<path class="st18" d="M216.4,459.5h-11.5c-0.8,0-1.4-0.6-1.4-1.4v-7.6c0-0.8,0.6-1.4,1.4-1.4h11.5c0.8,0,1.4,0.6,1.4,1.4v7.6
						C217.8,458.8,217.2,459.5,216.4,459.5z"/>
					<path class="st18" d="M243.5,459.5h-8.5c-0.8,0-1.4-0.6-1.4-1.4v-7.6c0-0.8,0.6-1.4,1.4-1.4h8.5c0.8,0,1.4,0.6,1.4,1.4v7.6
						C244.9,458.9,244.2,459.5,243.5,459.5z"/>
					<path class="st18" d="M256.9,459.5h-8.5c-0.8,0-1.4-0.6-1.4-1.4v-7.6c0-0.8,0.6-1.4,1.4-1.4h8.5c0.8,0,1.4,0.6,1.4,1.4v7.6
						C258.3,458.9,257.7,459.5,256.9,459.5z"/>
					<path class="st18" d="M270.3,459.5h-8.5c-0.8,0-1.4-0.6-1.4-1.4v-7.6c0-0.8,0.6-1.4,1.4-1.4h8.5c0.8,0,1.4,0.6,1.4,1.4v7.6
						C271.7,458.9,271.1,459.5,270.3,459.5z"/>
					<path class="st18" d="M283.8,459.5h-8.5c-0.8,0-1.4-0.6-1.4-1.4v-7.6c0-0.8,0.6-1.4,1.4-1.4h8.5c0.8,0,1.4,0.6,1.4,1.4v7.6
						C285.2,458.9,284.5,459.5,283.8,459.5z"/>
					<path class="st18" d="M297.2,459.5h-8.5c-0.8,0-1.4-0.6-1.4-1.4v-7.6c0-0.8,0.6-1.4,1.4-1.4h8.5c0.8,0,1.4,0.6,1.4,1.4v7.6
						C298.6,458.9,298,459.5,297.2,459.5z"/>
					<path class="st18" d="M310.6,459.5h-8.5c-0.8,0-1.4-0.6-1.4-1.4v-7.6c0-0.8,0.6-1.4,1.4-1.4h8.5c0.8,0,1.4,0.6,1.4,1.4v7.6
						C312,458.9,311.4,459.5,310.6,459.5z"/>
					<path class="st18" d="M324.1,459.5h-8.5c-0.8,0-1.4-0.6-1.4-1.4v-7.6c0-0.8,0.6-1.4,1.4-1.4h8.5c0.8,0,1.4,0.6,1.4,1.4v7.6
						C325.5,458.9,324.8,459.5,324.1,459.5z"/>
					<path class="st18" d="M337.5,459.5H329c-0.8,0-1.4-0.6-1.4-1.4v-7.6c0-0.8,0.6-1.4,1.4-1.4h8.5c0.8,0,1.4,0.6,1.4,1.4v7.6
						C338.9,458.9,338.3,459.5,337.5,459.5z"/>
					<path class="st18" d="M350.9,459.5h-8.5c-0.8,0-1.4-0.6-1.4-1.4v-7.6c0-0.8,0.6-1.4,1.4-1.4h8.5c0.8,0,1.4,0.6,1.4,1.4v7.6
						C352.3,458.9,351.7,459.5,350.9,459.5z"/>
					<path class="st18" d="M364.4,459.5h-8.5c-0.8,0-1.4-0.6-1.4-1.4v-7.6c0-0.8,0.6-1.4,1.4-1.4h8.5c0.8,0,1.4,0.6,1.4,1.4v7.6
						C365.8,458.9,365.1,459.5,364.4,459.5z"/>
					<path class="st18" d="M391.3,459.5h-22c-0.8,0-1.4-0.6-1.4-1.4v-7.6c0-0.8,0.6-1.4,1.4-1.4h22c0.8,0,1.4,0.6,1.4,1.4v7.6
						C392.6,458.9,392,459.5,391.3,459.5z"/>
				</g>
				<path class="st18" d="M390,422.9h-23.5c-0.8,0-1.4-0.6-1.4-1.4v-7.6c0-0.8,0.6-1.4,1.4-1.4H390c0.8,0,1.4,0.6,1.4,1.4v7.6
					C391.3,422.3,390.7,422.9,390,422.9z"/>
				<path class="st18" d="M366.8,472.9h-8.5c-0.8,0-1.4-0.6-1.4-1.4v-2.2c0-0.8,0.6-1.4,1.4-1.4h8.5c0.8,0,1.4,0.6,1.4,1.4v2.2
					C368.2,472.2,367.5,472.9,366.8,472.9z"/>
				<path class="st18" d="M379.9,466.1h-8.5c-0.8,0-1.4-0.6-1.4-1.4v-2.2c0-0.8,0.6-1.4,1.4-1.4h8.5c0.8,0,1.4,0.6,1.4,1.4v2.2
					C381.3,465.5,380.7,466.1,379.9,466.1z"/>
				<path class="st18" d="M380,472.9h-8.5c-0.8,0-1.4-0.6-1.4-1.4v-2.2c0-0.8,0.6-1.4,1.4-1.4h8.5c0.8,0,1.4,0.6,1.4,1.4v2.2
					C381.4,472.2,380.7,472.9,380,472.9z"/>
				<path class="st18" d="M393.3,472.9h-8.5c-0.8,0-1.4-0.6-1.4-1.4v-2.2c0-0.8,0.6-1.4,1.4-1.4h8.5c0.8,0,1.4,0.6,1.4,1.4v2.2
					C394.7,472.2,394.1,472.9,393.3,472.9z"/>
			</g>
			<path class="st14" d="M392.9,260.3H204.6c-2.1,0-3.8,1.7-3.8,3.8l0.2,4h195.6l0.2-4C396.8,262,395.1,260.3,392.9,260.3z"/>
			<g>
				<defs>
					<path id="SVGID_13_" d="M392.9,260.3H204.6c-2.1,0-3.8,1.7-3.8,3.8l5.5,112.5c0,2.1,1.7,3.8,3.8,3.8h177.4
						c2.1,0,3.8-1.7,3.8-3.8l5.5-112.5C396.8,262,395.1,260.3,392.9,260.3z"/>
				</defs>
				<clipPath id="SVGID_14_">
					<use xlink:href="#SVGID_13_"  style="overflow:visible;"/>
				</clipPath>
			</g>
		</g>
		<g>
			<path class="st19" d="M263,484.1V530c0,1.3,1,2.3,2.3,2.3h68c1.3,0,2.3-1,2.3-2.3l-0.6-45.9c0-1.2-1-2.2-2.3-2.2h-67.4
				C264,481.8,263,482.8,263,484.1z"/>
			<path class="st20" d="M265.3,482.5h67.4c1.2,0,2.3,1,2.3,2.2l0.6,45.3c0,0,0-0.1,0-0.1l-0.6-45.9c0-1.2-1-2.2-2.3-2.2h-67.4
				c-1.3,0-2.3,1-2.3,2.3v0.7C263,483.5,264,482.5,265.3,482.5z"/>
		</g>
		<g>
			<g>
				
					<linearGradient id="SVGID_15_" gradientUnits="userSpaceOnUse" x1="486.1118" y1="1438.1324" x2="426.0962" y2="1261.4261" gradientTransform="matrix(0.9808 -0.1949 0.1949 0.9808 -315.7024 -690.2412)">
					<stop  offset="4.112930e-03" style="stop-color:#E57C13"/>
					<stop  offset="0.9938" style="stop-color:#FCB659"/>
				</linearGradient>
				<path class="st21" d="M401.1,490.1c1,2.3,1.9,4.7,2.4,7.1c0.3,1.3,0.4,2.7,0.8,3.9c0.5,1.4,0.9,2.8,1.3,4.2
					c0.4,1.5,0.7,3.1,1,4.6c0.3,2.1,0.4,4.3,0.5,6.5c0.1,2.8,0.3,5.6,0.3,8.3c0,3.8,0.4,7.1-0.3,10.8c-0.6,3.4,0.1,6.8,1.1,10.1
					c2,6.2,5.1,11.3,8,17c3,5.9,5.7,11.9,8.7,17.7c3,5.7,6.3,11.2,9.7,16.6c4.2,6.7,14.3,17.4,8.8,26c-1.2,1.9-3.2,3.2-5.2,4.2
					c-6.9,3.7-14.7,5.9-22.5,6.4c-2.6,0.2-5.5,0.1-7.6-1.5c-1.9-1.4-2.9-3.6-3.8-5.7c-3.5-8.3-6.4-16.8-9.7-25.2
					c-3.1-8-7.9-15.1-11.4-22.9c-1.4-3.1-2.6-6.3-4.1-9.4c-1.4-2.7-2.7-5.7-4.4-8.3c-1.5-2.2-3.4-4-5.4-5.8
					c-7.1-6.7-13.4-14.1-20.1-21.3c-0.7-0.8-1.5-1.6-2-2.5c-0.6-1.1-0.9-2.4-1.2-3.6c-0.9-3.6-2.3-7.1-3.9-10.4
					c-2.4-5-4.8-10.5-5.9-15.9c-0.6-2.9-0.5-6.5,3-7.4c2.4-0.6,3.8,0.6,5.4,2.4c5.3,5.8,8.1,13,11,20.1c0.2,0.5,0.5,1.1,0.9,1.5
					c0.5,0.4,1.2,0.5,1.6,0.1c1.6-1.3,1.5-4.5,1.4-6.2c-0.6-8.8-3-17.2-5.9-25.5c-1.4-3.9-3.4-7.6-5-11.4c-0.6-1.3-1.1-2.7-1.3-4.2
					c-0.1-1.5,0.1-3,1.1-4.1s2.6-1.7,3.9-1.1c0.6,0.3,1.1,0.7,1.6,1.2c2.2,2.2,3.7,4.4,5.1,7.1c1.6,3,3.6,5.8,5.1,8.9
					c3,6.1,5.2,12.5,7.4,18.9c0.2,0.7,1.2-1.2,1.2-1.5c0.1-1.2-0.4-2.8-0.7-4c-1.2-5.1-2.4-10.3-4.1-15.3c-0.7-1.9-1.4-3.8-2.3-5.6
					c-0.7-1.3-1.7-2.3-2.5-3.5c-1.1-1.8-2.3-3.5-3.4-5.3c-0.9-1.4-1.9-2.9-2.1-4.6c-0.2-1.7,0.4-3.6,2-4.3c1-0.4,2.1-0.3,3.1,0.1
					c1,0.4,1.8,1.1,2.6,1.8c1.7,1.5,3.4,3.4,4.7,5.2c1.2,1.7,2.3,2.8,4,4.1c-0.3-0.8-0.7-1.7-1-2.5c-0.5-1.2-1-2.4-1.1-3.7
					c-0.1-1.3,0.4-2.7,1.5-3.5c0.5-0.3,1-0.5,1.6-0.4c0.5,0.1,0.9,0.4,1.2,0.6c2.3,1.7,4,4,5.6,6.3c1.4,1.9,2.8,3.7,4.1,5.6
					c0.9,1.3,1.5,2.7,2.8,3.7c-0.4-0.7-0.1-1.6,0.5-2.2c1.4-1.5,3.2-0.6,4.3,0.9c0.7,1,1.1,2.2,1.6,3.3c1.7,4,3.8,7.8,5.6,11.8
					C400.7,489.1,400.9,489.6,401.1,490.1z"/>
				<g>
					<defs>
						<path id="SVGID_16_" d="M401.2,490.2c1,2.3,1.9,4.7,2.4,7.1c0.3,1.3,0.4,2.7,0.8,3.9c0.5,1.4,0.9,2.8,1.3,4.2
							c0.4,1.5,0.7,3.1,1,4.6c0.3,2.1,0.4,4.3,0.5,6.5c0.1,2.8,0.3,5.6,0.3,8.3c0,3.8,0.4,7.1-0.3,10.8c-0.6,3.4,0.1,6.8,1.1,10.1
							c2,6.2,5.1,11.3,8,17c3,5.9,5.7,11.9,8.7,17.7c3,5.7,6.3,11.2,9.7,16.6c4.2,6.7,14.3,17.4,8.8,26c-1.2,1.9-3.2,3.2-5.2,4.2
							c-6.9,3.7-14.7,5.9-22.5,6.4c-2.6,0.2-5.5,0.1-7.6-1.5c-1.9-1.4-2.9-3.6-3.8-5.7c-3.5-8.3-6.4-16.8-9.7-25.2
							c-3.1-8-7.9-15.1-11.4-22.9c-1.4-3.1-2.6-6.3-4.1-9.4c-1.4-2.7-2.7-5.7-4.4-8.3c-1.5-2.2-3.4-4-5.4-5.8
							c-7.1-6.7-13.4-14.1-20.1-21.3c-0.7-0.8-1.5-1.6-2-2.5c-0.6-1.1-0.9-2.4-1.2-3.6c-0.9-3.6-2.3-7.1-3.9-10.4
							c-1-2-1.9-4-2.9-5.9c-0.9-1.8-1.4-3.4-1.9-5.3c-0.5-2.2-1.6-4.3-1.9-6.6c-0.3-2.4,1.4-4.9,3.7-5.5c2.4-0.6,3.8,0.6,5.4,2.4
							c2.6,2.8,5.2,5.7,7,9.2c1.7,3.4,2.6,7.3,4,10.9c0.2,0.5,0.5,1.1,0.9,1.5c0.5,0.4,1.2,0.5,1.6,0.1c1.6-1.3,1.5-4.5,1.4-6.2
							c-0.6-8.8-3-17.2-5.9-25.5c-1.4-3.9-3.4-7.6-5-11.4c-0.6-1.3-1.1-2.7-1.3-4.2c-0.1-1.5,0.1-3,1.1-4.1c0.9-1.1,2.6-1.7,3.9-1.1
							c0.6,0.3,1.1,0.7,1.6,1.2c2.2,2.2,3.7,4.4,5.1,7.1c1.6,3,3.6,5.8,5.1,8.9c3,6.1,5.2,12.5,7.4,18.9c0.2,0.7,1.2-1.2,1.2-1.5
							c0.1-1.2-0.4-2.8-0.7-4c-1.2-5.1-2.4-10.3-4.1-15.3c-0.7-1.9-1.4-3.8-2.3-5.6c-0.7-1.3-1.7-2.3-2.5-3.5
							c-1.1-1.8-2.3-3.5-3.4-5.3c-0.9-1.4-1.9-2.9-2.1-4.6c-0.2-1.7,0.4-3.6,2-4.3c1-0.4,2.1-0.3,3.1,0.1s1.8,1.1,2.6,1.8
							c1.7,1.5,3.4,3.4,4.7,5.2c1.2,1.7,2.3,2.8,4,4.1c-0.3-0.8-0.7-1.7-1-2.5c-0.5-1.2-1-2.4-1.1-3.7s0.4-2.7,1.5-3.5
							c0.5-0.3,1-0.5,1.6-0.4c0.5,0.1,0.9,0.4,1.2,0.6c2.3,1.7,4,4,5.6,6.3c1.4,1.9,2.8,3.7,4.1,5.6c0.9,1.3,1.5,2.7,2.8,3.7
							c-0.4-0.7-0.1-1.6,0.5-2.2c1.4-1.5,3.2-0.6,4.3,0.9c0.7,1,1.1,2.2,1.6,3.3c1.7,4,3.8,7.8,5.6,11.8
							C400.7,489.2,401,489.7,401.2,490.2z"/>
					</defs>
					<clipPath id="SVGID_17_">
						<use xlink:href="#SVGID_16_"  style="overflow:visible;"/>
					</clipPath>
					
						<linearGradient id="SVGID_18_" gradientUnits="userSpaceOnUse" x1="451.6308" y1="1278.4818" x2="458.1133" y2="1276.623" gradientTransform="matrix(0.9808 -0.1949 0.1949 0.9808 -315.7024 -690.2412)">
						<stop  offset="4.112930e-03" style="stop-color:#E57C13"/>
						<stop  offset="0.9942" style="stop-color:#FCB659;stop-opacity:0"/>
					</linearGradient>
					<path class="st22" d="M385.1,491.8c0.1,0,0.2-0.1,0.4-0.3c0.7-0.9,0.9-2.1,1-3.3c0.2-1.8,0.3-3.5,0.1-5.3
						c-0.2-1.8-0.8-3.4-1.5-5c-1.5-3.4-3.2-6.6-5.1-9.7c-2.1-3.4-4.5-6.6-6.9-9.8c-0.3-0.4-0.6-0.8-1-1c0,0-0.7,3.9-1.1,4.2
						c-0.1,0.1-0.2,0.3-0.2,0.5c0,0.7,0.2,1.4,0.4,2c1.5,4.2,4.4,7.1,6.7,10.7c1.9,3,3.5,6.2,4.7,9.5c0.5,1.4,1,2.9,1.4,4.3
						C384.2,489.2,384.3,492.1,385.1,491.8z"/>
					
						<linearGradient id="SVGID_19_" gradientUnits="userSpaceOnUse" x1="464.8074" y1="1287.6567" x2="468.8411" y2="1286.7993" gradientTransform="matrix(0.9808 -0.1949 0.1949 0.9808 -315.7024 -690.2412)">
						<stop  offset="4.112930e-03" style="stop-color:#E57C13"/>
						<stop  offset="0.9942" style="stop-color:#FCB659;stop-opacity:0"/>
					</linearGradient>
					<path class="st23" d="M388.5,474.8c2.7,3.6,5.6,9.5,6.7,13.8c0.1,0.6,0.3,1.1,0.4,1.7c0.1,0.4-0.1,1.8,0.7,1.7
						c0.2,0,0.4-0.2,0.4-0.4c0.2-0.5,0.2-1,0.2-1.6c-0.1-3-0.9-6-2.2-8.7c-0.6-1.3-1.4-2.6-2-3.9c-0.7-1.6-1.2-3.3-1.5-5.1
						c-0.1-0.7-0.3-1.6-1-1.6c-0.3,0-0.5,0.1-0.8,0.2c-0.7,0.4-1.2,1.3-2.1,1.3C386.3,472.2,388.4,474.6,388.5,474.8z"/>
				</g>
				<path class="st24" d="M341.6,495.9c-0.8-0.8-1.7-1.6-2.8-1.7c-1.4-0.1-2.6,1-2.9,2.3c-0.4,1.3-0.1,2.7,0.4,4
					c0.2,0.7,0.5,1.3,0.9,2c0.2,0.4,0.5,0.8,0.9,1.1c0.3,0.2,0.6,0.2,0.9,0.2c1.5,0.1,2.8-0.8,3.7-2c1-1.4,1.2-3.5,0-4.7
					C342,496.5,342.2,496.5,341.6,495.9z"/>
				<path class="st24" d="M348.5,466.1c-0.2,2.8,3.1,6.1,5.9,4.8c0.9-0.4,1.2-1.3,1.2-2.2c-0.1-2.2-2.6-4.2-4.7-4.3
					C349.9,464.3,348.6,464.9,348.5,466.1z"/>
				<path class="st24" d="M364.1,458.1c-0.5-0.5-1.1-0.9-1.5-1.1c-0.6-0.3-1.1-0.5-1.8-0.6c-0.6,0-1.3,0.2-1.6,0.7
					c-0.2,0.4-0.3,0.9-0.2,1.3c0,0.3,0.1,0.6,0.2,0.9c0.4,1,1.6,2.1,2.6,2.2c0.6,0.1,1.2,0,1.7-0.2c0.4-0.1,0.8-0.2,1.1-0.4
					C365.7,460.1,365,459,364.1,458.1z"/>
				<path class="st24" d="M374.5,457.8c-0.6-0.1-1.3,0.1-1.7,0.5c-0.4,0.4-0.3,1-0.3,1.6c0.2,1.4,0.9,2.7,2.6,3c0.5,0.1,1,0,1.5-0.1
					c0.4-0.1,0.9-0.2,1.2-0.4c1.3-0.6,0.6-1.5,0-2.3C377.2,459.2,376,458,374.5,457.8z"/>
				<path class="st24" d="M391.3,471.5c-0.2,0-0.3-0.1-0.5,0c-0.3,0.1-0.3,0.4-0.4,0.7c-0.1,1.2,0.2,2.3,0.9,3.3
					c0.3,0.4,0.7,0.8,1.2,1c0.5,0.1,1.1-0.1,1.4-0.5c0.2-0.3,0.1-0.7,0-1.1C393.6,473.5,392.8,471.9,391.3,471.5z"/>
			</g>
			<g>
				
					<rect x="430.7" y="577" transform="matrix(-0.3998 -0.9166 0.9166 -0.3998 49.6888 1289.941)" class="st12" width="33" height="103.5"/>
				
					<rect x="431.8" y="556.1" transform="matrix(-0.3998 -0.9166 0.9166 -0.3998 56.0816 1252.3528)" class="st25" width="12.6" height="103.5"/>
				
					<rect x="426.8" y="544.6" transform="matrix(-0.3998 -0.9166 0.9166 -0.3998 59.604 1231.6418)" class="st26" width="12.6" height="103.5"/>
				
					<rect x="421.8" y="533.1" transform="matrix(-0.3998 -0.9166 0.9166 -0.3998 63.1264 1210.9308)" class="st27" width="12.6" height="103.5"/>
				
					<rect x="416.7" y="521.5" transform="matrix(-0.3998 -0.9166 0.9166 -0.3998 66.6488 1190.2197)" class="st28" width="12.6" height="103.5"/>
			</g>
		</g>
		<g>
			<g>
				
					<linearGradient id="SVGID_20_" gradientUnits="userSpaceOnUse" x1="48.0782" y1="-120.9421" x2="-44.2282" y2="-229.9421" gradientTransform="matrix(0.984 0.1781 -0.1781 0.984 162.0467 713.6074)">
					<stop  offset="4.112930e-03" style="stop-color:#E57C13"/>
					<stop  offset="0.9938" style="stop-color:#FCB659"/>
				</linearGradient>
				<path class="st29" d="M213.4,550c2.7-3.4,5.2-6.5,9.1-9.5c5.6-4.4,11.6-8.4,17.2-12.8c2-1.5,3.9-3.1,5.4-5.2
					c1.1-1.5,1.9-3.2,2.9-4.8c1.2-2,2.7-3.7,4.2-5.5c2.7-3.2,5.5-6.4,8.7-9c1.2-1,2.6-1.9,3.5-3.1c1-1.2,1.6-2.9,1.1-4.4
					c-0.5-1.8-2.4-2.8-4.3-3c-1.8-0.1-3.6,0.5-5.3,1.3c-4.5,2-8.7,4.9-12,8.7c-1.5,1.7-2.8,3.5-4.3,5.1c-1.5,1.6-3.2,1.5-3.2-1
					c0-3.3,0.3-6.6,0.8-9.8c0.3-2,0.7-4.1,1.1-6.1c1.2-5.8,3.4-10.9,5.9-16.3c2.6-5.7,5.3-11.4,7.9-17.1c1.4-2.9,4.3-8.5,1.4-11.4
					c-0.6-0.6-1.5-0.9-2.3-0.5c-0.3,0.1-0.5,0.3-0.7,0.5c-0.3,0.3-0.5,0.6-0.8,0.9c-0.1,0.2-0.3,0.4-0.4,0.6
					c-0.8,0.9-2.4,1.2-3.5,1.6c-1.3,0.6-2.7,1.2-4.1,1.7c-1.4,0.4-2.8,0.7-4.2,1.1c-1.3,0.3-2.6,0.6-3.9,0.8
					c0.3-1.2,0.6-2.5,0.4-3.7s-1-2.5-2.2-2.8c-1.5-0.4-2.9,0.7-4.1,1.6c-2.8,2.3-5.7,4.5-8.6,6.7c-2.7,2-5.6,4.7-8.7,5.8
					c0.5-2.1,0.8-4.3,1-6.5c0.1-0.9,0.1-2-0.6-2.6c-0.7-0.6-1.8-0.5-2.6,0s-1.3,1.3-1.8,2.1c-2.4,4-4.8,8.1-7.3,12.1
					c-0.9,1.5-2.1,2.8-2.8,4.5c-0.7,1.9-1,4-1.3,6c-1,8-1.5,16-3,24c-1.7,8.7-4.9,17-8.3,25.1c-0.9,2.1-1.8,4.2-2.8,6.2
					c-3.3,6.2-8.1,11.5-11.6,17.6c-3.2,5.5-6.4,11.1-9.7,16.6c-7.2,12.4-15.8,24-25.6,34.5c-4.3,4.6-9,9.5-9.6,15.7
					c-0.3,3.2,40.1,28.1,42.3,24.3c2.6-4.4,4.2-9.3,5.9-14.1c4.8-13.4,10.4-26.5,16.1-39.5c5.3-12.2,13.1-22.8,21.6-33
					C211.7,552.2,212.6,551.1,213.4,550z"/>
				<g>
					<defs>
						<path id="SVGID_21_" d="M213.4,550c2.7-3.4,5.2-6.5,9.1-9.5c5.6-4.4,11.6-8.4,17.2-12.8c2-1.5,3.9-3.1,5.4-5.2
							c1.1-1.5,1.9-3.2,2.9-4.8c1.2-2,2.7-3.7,4.2-5.5c2.7-3.2,5.5-6.4,8.7-9c1.2-1,2.6-1.9,3.5-3.1c1-1.2,1.6-2.9,1.1-4.4
							c-0.5-1.8-2.4-2.8-4.3-3c-1.8-0.1-3.6,0.5-5.3,1.3c-4.5,2-8.7,4.9-12,8.7c-1.5,1.7-2.8,3.5-4.3,5.1c-1.5,1.6-3.2,1.5-3.2-1
							c0-3.3,0.3-6.6,0.8-9.8c0.3-2,0.7-4.1,1.1-6.1c1.2-5.8,3.4-10.9,5.9-16.3c2.6-5.7,5.3-11.4,7.9-17.1c1.4-2.9,4.3-8.5,1.4-11.4
							c-0.6-0.6-1.5-0.9-2.3-0.5c-0.3,0.1-0.5,0.3-0.7,0.5c-0.3,0.3-0.5,0.6-0.8,0.9c-0.1,0.2-0.3,0.4-0.4,0.6
							c-0.8,0.9-2.4,1.2-3.5,1.6c-1.3,0.6-2.7,1.2-4.1,1.7c-1.4,0.4-2.8,0.7-4.2,1.1c-1.3,0.3-2.6,0.6-3.9,0.8
							c0.3-1.2,0.6-2.5,0.4-3.7s-1-2.5-2.2-2.8c-1.5-0.4-2.9,0.7-4.1,1.6c-2.8,2.3-5.7,4.5-8.6,6.7c-2.7,2-5.6,4.7-8.7,5.8
							c0.5-2.1,0.8-4.3,1-6.5c0.1-0.9,0.1-2-0.6-2.6c-0.7-0.6-1.8-0.5-2.6,0s-1.3,1.3-1.8,2.1c-2.4,4-4.8,8.1-7.3,12.1
							c-0.9,1.5-2.1,2.8-2.8,4.5c-0.7,1.9-1,4-1.3,6c-1,8-1.5,16-3,24c-1.7,8.7-4.9,17-8.3,25.1c-0.9,2.1-1.8,4.2-2.8,6.2
							c-4.2,7.8-11.2,14.1-13.6,22.6c-2.7,10-8.9,14.3-15.4,22.3c-2.7,3.3-5.7,6.7-6.5,11c-1.1,5.5,1.9,11.1,6.2,14.6
							c4.3,3.5,9.8,5.1,15.3,6.3c11.2,2.3,15.3-9.3,19.1-17.8c6.3-13.7,14.8-25.4,24.5-36.8C211.7,552.2,212.6,551.1,213.4,550z"/>
					</defs>
					<clipPath id="SVGID_22_">
						<use xlink:href="#SVGID_21_"  style="overflow:visible;"/>
					</clipPath>
					
						<linearGradient id="SVGID_23_" gradientUnits="userSpaceOnUse" x1="23.4631" y1="-263.7872" x2="31.9538" y2="-260.3568" gradientTransform="matrix(0.984 0.1781 -0.1781 0.984 162.0467 713.6074)">
						<stop  offset="5.766369e-03" style="stop-color:#FCB659;stop-opacity:0"/>
						<stop  offset="0.9959" style="stop-color:#E57C13"/>
					</linearGradient>
					<path class="st30" d="M241.1,458.3c-0.9,1.2-1.9,2.5-3,3.6c-1.1,1.1-2.4,2.1-3.3,3.4c-0.6,0.8-1,1.8-1.4,2.7
						c-1.9,4.2-3.8,8.5-5.6,12.7c-0.3,0.6-0.6,2.1-1.5,2c-2.1-0.2-1.3-4.4-0.9-5.5c0.5-1.5,1.3-3,1.9-4.4c0.8-1.8,1.4-3.8,1.9-5.8
						c0.5-2.4,0.7-4.9,1.9-7c1.9-3.3,5.6-5,8.8-7.1c0.9-0.6,1.8-1.3,2.4-2.1c0.8-1,1.2-2.3,1.8-3.4c0.8-1.4,1.9-2.6,3.3-3.4
						c0.6-0.4,1.2-0.6,1.8-1.1c0.5-0.4,1-1.3,1.8-1.1c1.3,0.2,0.7,2.7,0.3,3.3c-0.8,1.4-2.2,2.7-3.1,4
						C245.7,452.2,243.4,455.3,241.1,458.3z"/>
					
						<linearGradient id="SVGID_24_" gradientUnits="userSpaceOnUse" x1="7.9725" y1="-260.5949" x2="19.7084" y2="-255.8533" gradientTransform="matrix(0.984 0.1781 -0.1781 0.984 162.0467 713.6074)">
						<stop  offset="5.766369e-03" style="stop-color:#FCB659;stop-opacity:0"/>
						<stop  offset="0.9959" style="stop-color:#E57C13"/>
					</linearGradient>
					<path class="st31" d="M230.2,454.8c-0.8,0.5-1.6,1.1-2.4,1.5c-0.9,0.5-1.9,0.5-2.8,1c-0.5,0.3-0.9,0.7-1.3,1.2
						c-1.9,2.3-2.8,5.2-3.8,7.9c-1.1,3.1-1.9,6.3-3,9.5c-0.2,0.7-0.5,1.4-0.8,2c-0.4,0.8-2.1,3.1-3.1,2.7c-0.5-0.2-0.7-0.6-0.9-1.1
						c-0.5-1.3-0.5-2.7-0.5-4c0.1-2.8,0.4-5.6,0.9-8.4c0.6-3.4,2.3-6.6,4.5-9.2c1-1.2,2.3-2.7,3.6-3.6c1.3-0.9,2.9-1.6,4.3-2.1
						c2-0.8,4.2-1.2,5.8-2.7c0.8-0.7,1.5-1.7,1.8-2.8c0.1-0.4,0.3-0.9,0.6-1c0.1-0.1,0.3-0.1,0.5,0c0.8,0.1,1.4,0.9,1.7,1.6
						c0.3,0.7,0.6,1.4,0.7,2.1c0.1,0.7-0.1,1.5-0.4,2.2c-0.3,0.7-1.2,0.9-1.8,1.1C232.6,453.3,231.4,454,230.2,454.8z"/>
					
						<linearGradient id="SVGID_25_" gradientUnits="userSpaceOnUse" x1="-5.4185" y1="-251.8627" x2="3.7092" y2="-249.4169" gradientTransform="matrix(0.984 0.1781 -0.1781 0.984 162.0467 713.6074)">
						<stop  offset="5.766369e-03" style="stop-color:#FCB659;stop-opacity:0"/>
						<stop  offset="0.9959" style="stop-color:#E57C13"/>
					</linearGradient>
					<path class="st32" d="M212.6,458.9c-1.3,0.9-2.6,1.9-3.9,2.8c-0.6,0.4-1,0.8-1.3,1.4c-0.3,0.8-0.4,1.7-0.6,2.6
						c-0.4,1.8-0.7,3.6-1,5.4c-0.6,3.6-1.1,7.2-2.1,10.7c-0.2,0.6-0.3,1.2-0.6,1.7c-0.4,0.7-0.9,1.3-1.7,0.8
						c-1.3-0.9-1.8-2.2-1.9-3.8c-0.1-2.8,0-5.6,0.3-8.5c0.2-1.9,0.1-3.9,1-5.7c1-2,2-3.8,3.3-5.6c1.9-2.4,3.5-4.5,5.2-7
						c0.5-0.8,1.1-1.7,0.9-2.7c0-0.3-0.2-0.6-0.1-0.8c0.1-0.4,0.5-0.6,0.9-0.6c0.4,0,0.7,0.2,1.1,0.3c0.6,0.3,1.3,0.6,1.7,1.2
						c0.2,0.4,0.3,0.8,0.4,1.2c0.3,1.2,0.4,2.4,0.1,3.6C214.1,457.3,213.6,458.2,212.6,458.9z"/>
				</g>
				<path class="st24" d="M264.5,494.5c-0.4-0.2-0.8-0.2-1.3-0.2c-2.1,0.1-4.9,0.7-6.1,2.6c-0.6,0.9-0.5,1.9-0.3,2.9
					c0.2,1,1,2,1.9,2.6c0.9,0.7,2,0.5,3,0c1.6-0.8,3-2.2,3.8-3.8C266.2,497.1,265.9,495.2,264.5,494.5z"/>
				<path class="st24" d="M252.3,445.1C252.3,445.1,252.2,445.1,252.3,445.1c-1.2,0.2-2,1-2.6,1.9c-0.6,0.8-1.2,1.6-1.8,2.4
					c-0.2,0.3-0.5,0.6-0.5,1c0,0.4,0.2,0.7,0.5,0.9c0.2,0.1,0.4,0.2,0.7,0.2c0.4,0.1,0.8,0.1,1.3,0.1c0.6,0,1.2,0,1.7-0.3
					c1.4-0.7,2.6-2.6,2.5-4.2c0-0.6-0.4-1.6-1-1.9C252.8,445.1,252.5,445.1,252.3,445.1z"/>
				<path class="st24" d="M227.9,447.4c-0.5,0.5-0.9,1-0.8,1.9c0.1,0.8,1,1.2,1.8,1.3c2,0.2,3.8-1.1,4.9-2.7
					c0.4-0.5,0.7-1.2,0.4-1.8c-0.3-0.5-0.9-0.7-1.4-0.8c-1.1-0.1-2.1,0.3-3,0.9C229.2,446.5,228.5,446.9,227.9,447.4z"/>
				<path class="st24" d="M205.7,455.4c0.2,0.3,0.5,0.4,0.8,0.3c0.3-0.1,0.6-0.2,0.9-0.4c0.9-0.7,1.6-1.5,2.2-2.5
					c0.4-0.7,1.5-3.3-0.4-2.4c-0.9,0.4-1.6,1.1-2.2,1.9C206.5,452.8,205.2,454.5,205.7,455.4z"/>
			</g>
			<g>
				
					<rect x="144.2" y="570.1" transform="matrix(0.4696 -0.8829 0.8829 0.4696 -463.9407 471.5747)" class="st12" width="32.5" height="103.5"/>
				
					<rect x="164.8" y="550.3" transform="matrix(0.4696 -0.8829 0.8829 0.4696 -440.8659 470.3689)" class="st25" width="12.4" height="103.5"/>
				
					<rect x="170.6" y="539.4" transform="matrix(0.4696 -0.8829 0.8829 0.4696 -428.1517 469.7045)" class="st26" width="12.4" height="103.5"/>
				
					<rect x="176.5" y="528.5" transform="matrix(0.4696 -0.8829 0.8829 0.4696 -415.4376 469.0401)" class="st27" width="12.4" height="103.5"/>
				
					<rect x="182.3" y="517.6" transform="matrix(0.4696 -0.8829 0.8829 0.4696 -402.7234 468.3757)" class="st28" width="12.4" height="103.5"/>
			</g>
		</g>
		<g>
			<path class="st33" d="M138.8,337.5c-0.2-0.1-0.5-0.1-0.7-0.1h-1.8h-1.8v-2.5c0-2-1.7-3.7-3.7-3.7H94.3c-2,0-3.7,1.7-3.7,3.7v2.5
				h-1.8h-1.8c-0.2,0-0.5,0-0.7,0.1c-2.3,0.7-3.6,2.7-3.6,4.8l0,1.7c0,14.3,0,21.7,0.1,22.1c1.7,24.1,29.1,36.1,29.4,36.2l0.4,0.2
				l0.1,0l0.3-0.1c0.3-0.1,27.8-11.6,29.4-36.2c0-0.4,0-7.6,0.1-21.5l0-2.2C142.4,340.1,141,338.2,138.8,337.5z"/>
			<g>
				<linearGradient id="SVGID_26_" gradientUnits="userSpaceOnUse" x1="112.478" y1="369.8831" x2="142.3732" y2="369.8831">
					<stop  offset="0" style="stop-color:#00BFD9;stop-opacity:0.1"/>
					<stop  offset="0.9955" style="stop-color:#00BFD9"/>
				</linearGradient>
				<path class="st34" d="M112.5,337.4h23.7h1.8c0.2,0,0.5,0,0.7,0.1c2.3,0.7,3.6,2.7,3.6,4.8l0,2.2c0,14,0,21.1-0.1,21.5
					c-1.7,24.6-29.2,36.1-29.4,36.2l-0.4,0.2V337.4z"/>
				<linearGradient id="SVGID_27_" gradientUnits="userSpaceOnUse" x1="82.5828" y1="369.8852" x2="112.6612" y2="369.8852">
					<stop  offset="4.526290e-03" style="stop-color:#00BFD9"/>
					<stop  offset="1" style="stop-color:#00BFD9;stop-opacity:0.1"/>
				</linearGradient>
				<path class="st35" d="M86.2,337.5c0.2-0.1,0.5-0.1,0.7-0.1h1.8h23.7v65.1l0.2-0.1l-0.2,0.1l-0.4-0.2
					c-0.3-0.1-27.8-12.2-29.4-36.2c0-0.4,0-7.8-0.1-22.1l0-1.7C82.6,340.1,83.9,338.2,86.2,337.5z"/>
				<linearGradient id="SVGID_28_" gradientUnits="userSpaceOnUse" x1="90.5682" y1="334.22" x2="134.4058" y2="334.22">
					<stop  offset="7.275132e-03" style="stop-color:#00BFD9"/>
					<stop  offset="1" style="stop-color:#00BFD9"/>
				</linearGradient>
				<path class="st36" d="M134.4,337.4v-2.5c0-2-1.7-3.7-3.7-3.7H94.3c-2,0-3.7,1.7-3.7,3.7v2.5H134.4z"/>
				<linearGradient id="SVGID_29_" gradientUnits="userSpaceOnUse" x1="90.5683" y1="369.4142" x2="112.4779" y2="369.4142">
					<stop  offset="4.526290e-03" style="stop-color:#00BFD9"/>
					<stop  offset="1" style="stop-color:#00BFD9;stop-opacity:0.1"/>
				</linearGradient>
				<path class="st37" d="M112.5,345.3H90.6c0,6,0,18.7,0.1,20.3c1.1,14.8,15.6,24.4,21.9,27.9V345.3z"/>
				<linearGradient id="SVGID_30_" gradientUnits="userSpaceOnUse" x1="112.4779" y1="369.4327" x2="134.4058" y2="369.4327">
					<stop  offset="7.275132e-03" style="stop-color:#00BFD9"/>
					<stop  offset="1" style="stop-color:#00BFD9"/>
				</linearGradient>
				<path class="st38" d="M112.5,393.5C112.5,393.5,112.5,393.5,112.5,393.5c6.3-3.3,20.8-12.7,21.9-27.9c0-1.4,0-12.1,0.1-20.3
					h-21.9V393.5z"/>
				<path class="st12" d="M123.2,365.8c0-0.1,0.1-0.1,0.1-0.2c0,0,0-0.1,0-0.1c0-0.1,0-0.1,0-0.2c0,0,0-0.1,0-0.1c0,0,0-0.1,0-0.1
					c0,0,0-0.1,0-0.1c0,0,0-0.1,0-0.1c0-0.1,0-0.2-0.1-0.2c0,0,0-0.1,0-0.1c0-0.1-0.1-0.2-0.1-0.2c0,0,0,0,0-0.1
					c0-0.1-0.1-0.2-0.2-0.2c0,0,0,0,0-0.1c-0.1-0.1-0.1-0.1-0.2-0.2c0,0,0,0,0,0c0,0,0,0,0,0c-0.1-0.1-0.2-0.1-0.3-0.2c0,0,0,0,0,0
					c-0.1,0-0.2-0.1-0.3-0.1c0,0,0,0-0.1,0c-0.1,0-0.2,0-0.3-0.1c0,0,0,0-0.1,0c0,0-0.1,0-0.1,0h0l-11.2,0l7.5-10.1
					c0.6-0.8,0.4-2-0.4-2.6c-0.8-0.6-2-0.4-2.6,0.4l-9.7,13.1c0,0,0,0,0,0c0,0.1-0.1,0.1-0.1,0.2c0,0-0.1,0.1-0.1,0.1
					c0,0.1,0,0.1-0.1,0.2c0,0.1,0,0.1-0.1,0.2c0,0.1,0,0.1,0,0.2c0,0.1,0,0.1,0,0.2c0,0,0,0,0,0c0,0,0,0.1,0,0.1c0,0.1,0,0.1,0,0.2
					c0,0.1,0,0.1,0,0.2c0,0.1,0,0.1,0.1,0.2c0,0.1,0,0.1,0.1,0.2c0,0.1,0.1,0.1,0.1,0.2c0,0.1,0.1,0.1,0.1,0.1c0,0,0.1,0.1,0.1,0.1
					c0,0,0.1,0.1,0.2,0.1c0,0,0.1,0.1,0.1,0.1c0,0,0,0,0,0c0.1,0.1,0.3,0.2,0.5,0.2c0,0,0.1,0,0.1,0c0.2,0,0.3,0.1,0.5,0.1
					c0,0,0,0,0,0c0,0,0,0,0,0c0,0,0,0,0,0h0l11,0l-6.9,8.6l0-0.8c0-1-0.9-1.8-1.9-1.8c-1,0-1.9,0.8-1.8,1.9l0.1,6c0,0,0,0.1,0,0.1
					c0,0.1,0,0.1,0,0.2c0,0,0,0,0,0.1c0,0,0,0,0,0c0,0,0,0.1,0,0.1c0,0,0,0.1,0,0.1c0,0,0,0.1,0,0.1c0,0,0,0.1,0.1,0.1
					c0,0,0,0.1,0,0.1c0,0,0,0.1,0.1,0.1c0,0,0.1,0.1,0.1,0.1c0,0,0,0,0,0c0,0,0,0,0.1,0.1c0,0,0,0,0.1,0.1c0,0,0.1,0.1,0.1,0.1
					c0,0,0.1,0.1,0.1,0.1c0,0,0,0,0,0c0,0,0,0,0.1,0c0,0,0.1,0,0.1,0.1c0,0,0,0,0.1,0c0,0,0.1,0,0.1,0.1c0,0,0.1,0,0.1,0.1
					c0,0,0,0,0.1,0c0.1,0,0.1,0,0.2,0c0,0,0.1,0,0.1,0c0,0,0,0,0,0c0.1,0,0.2,0,0.2,0c0,0,0,0,0.1,0c0,0,0,0,0,0c0,0,0,0,0,0
					c0,0,0,0,0,0c0.1,0,0.2,0,0.2,0l6.1-1c1-0.2,1.7-1.1,1.5-2.1c-0.2-1-1.1-1.7-2.1-1.5l-1.3,0.2l9.5-11.8c0,0,0,0,0-0.1
					c0-0.1,0.1-0.1,0.1-0.2C123.2,365.9,123.2,365.8,123.2,365.8z"/>
			</g>
		</g>
		<g>
			<path class="st39" d="M358.3,145.4c0-8.5-6.9-15.4-15.4-15.4h-23.8c-8.5,0-15.4,6.9-15.4,15.4v18.5v5.3V198
				c0,2.4,0.9,4.6,2.3,6.4h0c0,0,0,0,0,0c0.1,0.1,0.2,0.2,0.2,0.3c0.1,0.1,0.2,0.3,0.3,0.4c0.1,0.1,0.2,0.2,0.3,0.3
				c0.1,0.1,0.3,0.3,0.4,0.4c0.1,0.1,0.2,0.1,0.2,0.2c0.2,0.1,0.4,0.3,0.6,0.4c0.1,0.1,0.2,0.1,0.3,0.2c0.2,0.1,0.4,0.3,0.6,0.4
				c0.1,0,0.1,0.1,0.2,0.1c0.2,0.1,0.4,0.2,0.7,0.3c0.1,0,0.1,0,0.2,0.1c0.2,0.1,0.5,0.2,0.8,0.3c0.1,0,0.1,0,0.2,0.1
				c0.3,0.1,0.5,0.2,0.8,0.2c0.1,0,0.1,0,0.2,0c0.3,0.1,0.6,0.1,0.9,0.1c0,0,0.1,0,0.1,0c0.3,0,0.6,0,0.9,0c0,0,0,0,0,0h34.2
				c5.6,0,10.2-4.6,10.2-10.2v-28.9c0,0,0,0,0,0V145.4z M319.4,138.7h23.2c3.8,0,6.9,3.1,6.9,6.9v8.1c-0.5-0.1-0.9-0.1-1.4-0.1
				h-34.2c-0.5,0-1,0-1.4,0.1v-8.1C312.5,141.8,315.6,138.7,319.4,138.7z"/>
			<g>
				<g>
					<linearGradient id="SVGID_31_" gradientUnits="userSpaceOnUse" x1="331.0334" y1="208.2127" x2="331.0334" y2="153.6344">
						<stop  offset="1.771247e-02" style="stop-color:#00BFD9;stop-opacity:0.1"/>
						<stop  offset="0.9955" style="stop-color:#00BFD9;stop-opacity:0.9"/>
					</linearGradient>
					<path class="st40" d="M348.1,208.2h-34.2c-5.6,0-10.2-4.6-10.2-10.2v-34.2c0-5.6,4.6-10.2,10.2-10.2h34.2
						c5.6,0,10.2,4.6,10.2,10.2V198C358.3,203.6,353.7,208.2,348.1,208.2z"/>
					<linearGradient id="SVGID_32_" gradientUnits="userSpaceOnUse" x1="331.0335" y1="184.5546" x2="331.0335" y2="129.9762">
						<stop  offset="0" style="stop-color:#FFFFFF;stop-opacity:0"/>
						<stop  offset="0.1702" style="stop-color:#D9F5F9;stop-opacity:0.1532"/>
						<stop  offset="0.5524" style="stop-color:#78DDEB;stop-opacity:0.4971"/>
						<stop  offset="1" style="stop-color:#00BFD9;stop-opacity:0.9"/>
					</linearGradient>
					<path class="st41" d="M342.9,130h-23.8c-8.5,0-15.4,6.9-15.4,15.4v23.8c0,8.5,6.9,15.4,15.4,15.4h23.8
						c8.5,0,15.4-6.9,15.4-15.4v-23.8C358.3,136.9,351.4,130,342.9,130z M349.6,168.9c0,3.8-3.1,6.9-6.9,6.9h-23.2
						c-3.8,0-6.9-3.1-6.9-6.9v-23.2c0-3.8,3.1-6.9,6.9-6.9h23.2c3.8,0,6.9,3.1,6.9,6.9V168.9z"/>
					<linearGradient id="SVGID_33_" gradientUnits="userSpaceOnUse" x1="331.0335" y1="196.0328" x2="331.0335" y2="167.4548">
						<stop  offset="0" style="stop-color:#00BFD9;stop-opacity:0.1"/>
						<stop  offset="0.8008" style="stop-color:#00BFD9"/>
					</linearGradient>
					<path class="st42" d="M336.7,189l-1.8-5.3c-0.2-0.5,0-1,0.4-1.4c0.1,0,0.1-0.1,0.2-0.1c1.1-0.7,2.1-1.7,2.7-2.8
						c0.2-0.3,0.3-0.6,0.4-0.9c0.4-0.9,0.6-1.9,0.6-3c0-4.4-3.6-8-8.1-8l0,0l0,0c-4.5,0-8.1,3.6-8.1,8c0,2.8,1.5,5.3,3.8,6.7
						c0.5,0.3,0.7,0.9,0.5,1.5l-3.7,10.7c-0.3,0.8,0.3,1.7,1.2,1.7h6.1h6.5l0,0c0.3,0,0.6-0.1,0.9-0.3c0.1-0.1,0.1-0.1,0.2-0.2
						c0.2-0.3,0.3-0.8,0.2-1.2L336.7,189z"/>
				</g>
				<linearGradient id="SVGID_34_" gradientUnits="userSpaceOnUse" x1="332.1646" y1="208.2126" x2="332.1646" y2="155.8967">
					<stop  offset="6.916990e-03" style="stop-color:#FFFFFF;stop-opacity:0"/>
					<stop  offset="0.176" style="stop-color:#D9F5F9;stop-opacity:0.1192"/>
					<stop  offset="0.5555" style="stop-color:#78DDEB;stop-opacity:0.3867"/>
					<stop  offset="1" style="stop-color:#00BFD9;stop-opacity:0.7"/>
				</linearGradient>
				<path class="st43" d="M313.9,208.2h34.2c5.6,0,10.2-4.6,10.2-10.2v-34.2c0-3.2-1.5-6.1-3.8-7.9L306,204.4
					C307.9,206.7,310.7,208.2,313.9,208.2z"/>
			</g>
		</g>
		<g>
			<path class="st33" d="M531.1,398l0-14.6c0,0,0,0,0,0c0-0.2,0-0.4,0-0.5c0-0.1,0-0.1,0-0.2c0-0.1,0-0.2-0.1-0.3
				c0-0.1,0-0.2-0.1-0.3c0-0.1,0-0.2-0.1-0.3c0-0.1-0.1-0.2-0.1-0.3c0-0.1-0.1-0.2-0.1-0.2c0-0.1-0.1-0.2-0.1-0.3
				c0-0.1-0.1-0.1-0.1-0.2c-0.1-0.1-0.1-0.2-0.2-0.3c0,0,0,0,0,0c-1-1.8-3-3.1-5.3-3.1h-3.9l0-5.3c0-3.3-2.7-6.1-6.1-6.1h-12.9
				c-8-11.6-22.8-17.3-37-13.1c-7.6,2.3-13.9,7-18.1,13.1h-13c-3.3,0-6.1,2.7-6.1,6.1l0,11.3c0,0,0,0.1,0,0.1l0,56.1
				c0,1.7,0.7,3.3,1.9,4.4l0,0c0,0,0,0,0,0c0.3,0.3,0.6,0.5,0.9,0.7c0,0,0,0,0,0c0.2,0.1,0.3,0.2,0.5,0.3c0,0,0,0,0,0
				c0.2,0.1,0.3,0.2,0.5,0.2c0,0,0.1,0,0.1,0c0.1,0.1,0.3,0.1,0.4,0.2c0.1,0,0.1,0,0.2,0c0.1,0,0.3,0.1,0.4,0.1c0.1,0,0.2,0,0.3,0
				c0.1,0,0.2,0,0.3,0c0.2,0,0.4,0,0.6,0h0h91l0,0c3.3,0,6.1-2.7,6.1-6.1v0l0,0v0l0-16.4c1.9-0.7,3.3-2.5,3.3-4.6v-7.9v-7.9
				C534.4,400.5,533,398.7,531.1,398z"/>
			<g>
				<path class="st44" d="M520.7,372c0-3.3-2.7-6.1-6.1-6.1h-81c-3.3,0-6.1,2.7-6.1,6.1l0,19.1c0-3.3,2.7-6,6.1-6h87L520.7,372z"/>
				<g>
					<g>
						
							<linearGradient id="SVGID_35_" gradientUnits="userSpaceOnUse" x1="-703.58" y1="1615.1017" x2="-656.2359" y2="1567.7576" gradientTransform="matrix(0.943 -0.3329 0.3329 0.943 585.5278 -1342.0583)">
							<stop  offset="0" style="stop-color:#FF5324"/>
							<stop  offset="1" style="stop-color:#F7931E"/>
						</linearGradient>
						<circle class="st45" cx="474.2" cy="384.9" r="33.5"/>
						<g>
							<path class="st46" d="M489.7,380.2c-0.9-0.6-1.9-0.9-3-1.1c0.8-1.8,0.7-3.9-0.3-6.1c-0.5-1.1-1.2-2.1-2.1-2.8
								c-0.9-0.7-1.9-1.2-3-1.4c-1-0.2-2.1-0.2-3.2-0.1c-0.7,0.1-1.5,0.2-2.3,0.3l-1.6-4.5c-0.2-0.7-1-1.1-1.7-0.8l-5,1.7l13.8,39.8
								l5-1.7c0.7-0.2,1.1-1,0.8-1.7l-1.6-4.5c0.8-0.3,1.5-0.7,2.1-1c1-0.5,1.9-1.2,2.7-1.9c0.9-0.8,1.5-1.6,2-2.4
								c0.5-0.9,0.8-1.9,0.9-3c0.1-1.1,0-2.3-0.3-3.5C492.3,383,491.2,381.2,489.7,380.2L489.7,380.2z"/>
							<path class="st47" d="M467.4,365.5l-4.6,1.6c-0.7,0.2-1.1,1-0.8,1.7l1.5,4.4c-0.3,0.1-0.6,0.2-0.9,0.3l-4.8,1.6c0,0,0,0,0,0
								c-0.3,0.1-0.6,0.4-0.8,0.7c-0.2,0.3-0.2,0.7-0.1,1l1.3,3.7c0.2,0.7,1,1.1,1.7,0.8l2.5-0.9c0.6-0.2,0.7-0.1,0.9,0.1l5.3,15.2
								c0,0,0,0,0,0c0,0,0,0,0,0l-2.5,0.9c-0.6,0.2-1,0.8-0.9,1.5l0.7,4.3c0.1,0.4,0.3,0.7,0.6,0.9c0.3,0.2,0.7,0.2,1.1,0.1l4.5-1.6
								c0.3-0.1,0.7-0.2,1.2-0.4l0,0l1.5,4.5c0.2,0.7,1,1.1,1.7,0.8l4.6-1.6L467.4,365.5z"/>
						</g>
					</g>
				</g>
				<path class="st48" d="M524.7,445.5h-91c-3.3,0-6.1-2.7-6.1-6.1l0-56.1c0-3.3,2.7-6.1,6.1-6.1h91c3.3,0,6.1,2.7,6.1,6.1l0,56.1
					C530.7,442.8,528,445.5,524.7,445.5z"/>
				<g>
					<defs>
						<path id="SVGID_36_" d="M524.7,445.5h-91c-3.3,0-6.1-2.7-6.1-6.1l0-56.1c0-3.3,2.7-6.1,6.1-6.1h91c3.3,0,6.1,2.7,6.1,6.1
							l0,56.1C530.7,442.8,528,445.5,524.7,445.5z"/>
					</defs>
					<clipPath id="SVGID_37_">
						<use xlink:href="#SVGID_36_"  style="overflow:visible;"/>
					</clipPath>
					<g class="st49">
						
							<image style="overflow:visible;" width="176" height="156" xlink:href="B532AFD0BC6FA1F1.png"  transform="matrix(1 0 0 1 391 326)">
						</image>
					</g>
				</g>
				<path class="st50" d="M433.7,443.6h91c3.3,0,6.1-2.7,6.1-6.1l0-56.1c0-1.4-0.5-2.7-1.3-3.8l-99.9,64.2
					C430.6,443,432.1,443.6,433.7,443.6z"/>
				<g>
					<path class="st48" d="M507.6,397.7c-2.9,0-5.2,2.3-5.2,5.2v15.3c0,2.9,2.3,5.2,5.2,5.2h21.4c2.7,0,4.9-2.2,4.9-4.9v-15.8
						c0-2.7-2.2-4.9-4.9-4.9H507.6z M512.7,413.8c-1.8,0-3.3-1.5-3.3-3.3c0-1.8,1.5-3.3,3.3-3.3c1.8,0,3.3,1.5,3.3,3.3
						C516,412.3,514.5,413.8,512.7,413.8z"/>
					<linearGradient id="SVGID_38_" gradientUnits="userSpaceOnUse" x1="502.4546" y1="416.9185" x2="533.9833" y2="416.9185">
						<stop  offset="0" style="stop-color:#43107A"/>
						<stop  offset="0.8702" style="stop-color:#7A2FAF"/>
						<stop  offset="0.994" style="stop-color:#7A2FAF"/>
					</linearGradient>
					<path class="st51" d="M516,410.5C516,410.5,516,410.5,516,410.5c0,1.8-1.5,3.3-3.3,3.3c-1.8,0-3.3-1.5-3.3-3.3c0,0,0,0,0,0
						h-6.9v7.6c0,2.9,2.3,5.2,5.2,5.2h21.4c2.7,0,4.9-2.2,4.9-4.9v-7.9H516z"/>
				</g>
				<g class="st17">
					<path class="st26" d="M459.6,392.3H452l9.9,13.7l3.1-4.4c1-1.4,1-3.3,0-4.7l-2.2-3C462,392.9,460.8,392.3,459.6,392.3"/>
					<path class="st26" d="M471.1,419l4.2,5.9c0.7,1,2,1.7,3.2,1.7h7.6l-11.4-16l-3.3,3.5C470.2,415.4,470,417.5,471.1,419"/>
					<path class="st12" d="M489.4,389.1l-39.7,42.6c-0.5,0.5-1.2-0.1-0.8-0.7l28.7-40.3c0.7-1,1.9-1.6,3.1-1.6H489.4z"/>
				</g>
			</g>
		</g>
		<linearGradient id="SVGID_39_" gradientUnits="userSpaceOnUse" x1="452.332" y1="274.7193" x2="565.4968" y2="161.5545">
			<stop  offset="6.916990e-03" style="stop-color:#FFFFFF;stop-opacity:0"/>
			<stop  offset="0.1006" style="stop-color:#D9F5F9;stop-opacity:5.106452e-02"/>
			<stop  offset="0.3109" style="stop-color:#78DDEB;stop-opacity:0.1657"/>
			<stop  offset="0.5572" style="stop-color:#00BFD9;stop-opacity:0.3"/>
		</linearGradient>
		<path class="st52" d="M617.4,215.2C617.4,215.2,617.4,215.2,617.4,215.2c-1.3,0-2.5-0.5-3.2-1.6c-2.7-4.3-7.3-7.1-12.4-7.1
			c-2.3,0-4.6,0.6-6.5,1.6c-1.8,1-4,0.2-4.8-1.8c-5.9-14.2-19.1-24.1-34.4-24.1c-12.8,0-24.2,6.9-31,17.5c-1.1,1.7-3.3,2.1-4.9,0.9
			c-4-2.9-8.7-4.6-13.8-4.6c-7.7,0-14.6,3.8-19.2,9.8c-1.5,2-4.5,1.7-5.7-0.5c-5.5-9.6-15.3-16-26.5-16c-10.8,0-20.3,5.9-25.8,14.9
			c-1,1.7-3,2.1-4.7,1.2c-2.5-1.4-5.4-2.2-8.4-2.2c-8.5,0-15.7,6.3-17.6,14.9c-0.5,2.4,1.2,4.7,3.5,4.7h215.7c4.4,0,4.9-7.1,0.5-7.6
			C617.9,215.2,617.7,215.2,617.4,215.2z"/>
		<linearGradient id="SVGID_40_" gradientUnits="userSpaceOnUse" x1="422.9199" y1="254.8705" x2="472.9977" y2="204.7927">
			<stop  offset="6.916990e-03" style="stop-color:#FFFFFF;stop-opacity:0"/>
			<stop  offset="0.1006" style="stop-color:#D9F5F9;stop-opacity:5.106452e-02"/>
			<stop  offset="0.3109" style="stop-color:#78DDEB;stop-opacity:0.1657"/>
			<stop  offset="0.5572" style="stop-color:#00BFD9;stop-opacity:0.3"/>
		</linearGradient>
		<path class="st53" d="M493.9,234.2c2.4,0,3.9-2.7,2.8-5c-1.9-3.6-5.4-6-9.5-6c-1.5,0-3,0.3-4.3,1c-1.6,0.7-3.4,0.1-4.2-1.6
			c-4.4-10-13.8-17-24.8-17c-9.1,0-17.2,4.8-22.2,12.3c-1,1.5-2.9,1.8-4.3,0.8c-2.8-1.9-6.1-3-9.6-3c-8.3,0-15.3,6.1-17.4,14.3
			c-0.5,2.2,1,4.3,3,4.3H493.9z"/>
	</g>
	<circle class="st12" cx="443.5" cy="320.4" r="5.5"/>
	<circle class="st12" cx="154.7" cy="323.2" r="5.5"/>
	<circle class="st12" cx="286.6" cy="224.3" r="5.5"/>
	<circle class="st12" cx="170.4" cy="372" r="5.5"/>
</g>
<path class="st54" d="M369,351.2l-132.2,0.5c-3.9,0-7.3-3-7.5-6.8l-3.2-61c-0.2-3.7,3-6.8,7.2-6.8l140.2-0.5c4.1,0,7.3,3,7.1,6.8
	l-4,61C376.3,348.1,372.9,351.2,369,351.2z"/>
<linearGradient id="SVGID_41_" gradientUnits="userSpaceOnUse" x1="299.084" y1="346.5746" x2="299.084" y2="271.4582">
	<stop  offset="0.216" style="stop-color:#F4FFFF"/>
	<stop  offset="0.6945" style="stop-color:#E5FBFD"/>
	<stop  offset="0.7707" style="stop-color:#E4FBFD"/>
	<stop  offset="1" style="stop-color:#4BD9EC"/>
</linearGradient>
<path class="st55" d="M364.8,346.1l-132.2,0.5c-3.9,0-7.3-3-7.5-6.8l-3.2-61c-0.2-3.7,3-6.8,7.2-6.8l140.2-0.5c4.1,0,7.3,3,7.1,6.8
	l-4,61C372.1,343,368.7,346.1,364.8,346.1z"/>
<g>
	<g>
		
			<linearGradient id="SVGID_42_" gradientUnits="userSpaceOnUse" x1="-891.8643" y1="1503.2554" x2="-879.0026" y2="1490.3938" gradientTransform="matrix(0.943 -0.3329 0.3329 0.943 585.5278 -1342.0583)">
			<stop  offset="0" style="stop-color:#FF5324"/>
			<stop  offset="1" style="stop-color:#F7931E"/>
		</linearGradient>
		<circle class="st56" cx="248.9" cy="364.1" r="9.1"/>
		<g>
			<path class="st46" d="M253.1,362.9c-0.2-0.2-0.5-0.3-0.8-0.3c0.2-0.5,0.2-1.1-0.1-1.6c-0.1-0.3-0.3-0.6-0.6-0.8
				c-0.2-0.2-0.5-0.3-0.8-0.4c-0.3-0.1-0.6-0.1-0.9,0c-0.2,0-0.4,0-0.6,0.1l-0.4-1.2c-0.1-0.2-0.3-0.3-0.5-0.2l-1.4,0.5l3.8,10.8
				l1.4-0.5c0.2-0.1,0.3-0.3,0.2-0.5l-0.4-1.2c0.2-0.1,0.4-0.2,0.6-0.3c0.3-0.1,0.5-0.3,0.7-0.5c0.2-0.2,0.4-0.4,0.5-0.7
				c0.1-0.2,0.2-0.5,0.2-0.8c0-0.3,0-0.6-0.1-1C253.8,363.6,253.5,363.1,253.1,362.9L253.1,362.9z"/>
			<path class="st47" d="M247,358.9l-1.3,0.4c-0.2,0.1-0.3,0.3-0.2,0.5l0.4,1.2c-0.1,0-0.2,0.1-0.2,0.1l-1.3,0.4c0,0,0,0,0,0
				c-0.1,0-0.2,0.1-0.2,0.2c0,0.1,0,0.2,0,0.3l0.3,1c0.1,0.2,0.3,0.3,0.5,0.2l0.7-0.2c0.2-0.1,0.2,0,0.2,0l1.4,4.1c0,0,0,0,0,0
				c0,0,0,0,0,0l-0.7,0.2c-0.2,0.1-0.3,0.2-0.2,0.4l0.2,1.2c0,0.1,0.1,0.2,0.2,0.3c0.1,0.1,0.2,0.1,0.3,0l1.2-0.4
				c0.1,0,0.2-0.1,0.3-0.1l0,0l0.4,1.2c0.1,0.2,0.3,0.3,0.5,0.2l1.3-0.4L247,358.9z"/>
		</g>
	</g>
</g>
<g>
	<path class="st57" d="M335.7,373.2h-62c-4.4,0-8-3.6-8-8v-1.3c0-4.4,3.6-8,8-8h62c4.4,0,8,3.6,8,8v1.3
		C343.7,369.6,340.1,373.2,335.7,373.2z"/>
	<g class="st58">
		<path class="st12" d="M289.8,359.5h3.1c1.4,0,2.4,0.2,3.1,0.6s1,1,1,1.9c0,0.6-0.1,1.1-0.4,1.5s-0.7,0.6-1.1,0.7v0.1
			c0.6,0.1,1.1,0.4,1.4,0.8c0.3,0.4,0.4,0.9,0.4,1.5c0,0.9-0.3,1.6-1,2.1c-0.7,0.5-1.6,0.8-2.7,0.8h-3.7V359.5z M292,363.4h1.2
			c0.6,0,1-0.1,1.2-0.3s0.4-0.5,0.4-0.9c0-0.4-0.1-0.7-0.4-0.8c-0.3-0.2-0.7-0.2-1.3-0.2H292V363.4z M292,365.1v2.6h1.4
			c0.6,0,1-0.1,1.3-0.3c0.3-0.2,0.4-0.6,0.4-1c0-0.8-0.6-1.2-1.8-1.2H292z"/>
		<path class="st12" d="M307.4,359.5v6.5c0,0.7-0.2,1.4-0.5,1.9c-0.3,0.6-0.8,1-1.4,1.3c-0.6,0.3-1.4,0.4-2.2,0.4
			c-1.3,0-2.3-0.3-3-1c-0.7-0.7-1.1-1.6-1.1-2.7v-6.4h2.1v6.1c0,0.8,0.2,1.3,0.5,1.7c0.3,0.4,0.8,0.5,1.5,0.5c0.7,0,1.2-0.2,1.5-0.5
			s0.5-0.9,0.5-1.7v-6.1H307.4z"/>
		<path class="st12" d="M312.9,363.6l2.1-4.1h2.3l-3.3,6.1v3.9h-2.1v-3.8l-3.3-6.2h2.3L312.9,363.6z"/>
	</g>
</g>
<g>
	
		<linearGradient id="SVGID_43_" gradientUnits="userSpaceOnUse" x1="-7781.7754" y1="370.4615" x2="-7781.7754" y2="227.8128" gradientTransform="matrix(-1 0 0 1 -7456.5757 0)">
		<stop  offset="0.1865" style="stop-color:#36D4EA"/>
		<stop  offset="0.7374" style="stop-color:#E4FBFD"/>
		<stop  offset="0.784" style="stop-color:#F4FFFF"/>
	</linearGradient>
	<path class="st59" d="M293.8,334.8v-36c0-1.4,1.1-2.5,2.5-2.5h57.8c1.4,0,2.5,1.1,2.5,2.5v36H293.8z"/>
	
		<linearGradient id="SVGID_44_" gradientUnits="userSpaceOnUse" x1="-7781.2959" y1="320.5835" x2="-7781.2959" y2="241.292" gradientTransform="matrix(-1 0 0 1 -7456.5757 0)">
		<stop  offset="0.4083" style="stop-color:#36D4EA"/>
		<stop  offset="0.8966" style="stop-color:#E4FBFD"/>
		<stop  offset="1" style="stop-color:#F4FFFF"/>
	</linearGradient>
	<path class="st60" d="M301.4,279.4h47.9c1.4,0,2.5,1.1,2.5,2.5l11,16.4c0,1.4-1.1,2.5-2.5,2.5h-71.1c-1.4,0-2.5-1.1-2.5-2.5
		l12.3-16.4C298.9,280.5,300,279.4,301.4,279.4z"/>
	
		<linearGradient id="SVGID_45_" gradientUnits="userSpaceOnUse" x1="-7781.4385" y1="378.2265" x2="-7781.4385" y2="201.2242" gradientTransform="matrix(-1 0 0 1 -7456.5757 0)">
		<stop  offset="0.216" style="stop-color:#F4FFFF"/>
		<stop  offset="0.2626" style="stop-color:#E4FBFD"/>
		<stop  offset="0.8135" style="stop-color:#36D4EA"/>
	</linearGradient>
	<path class="st61" d="M314.3,334h21.1c1.4,0,2.5-1.1,2.5-2.5v-29.5c0-1.4-1.1-2.5-2.5-2.5l-10.6-13.2l-10.6,13.2
		c-1.4,0-2.5,1.1-2.5,2.5v29.5C311.8,332.9,312.9,334,314.3,334z"/>
	
		<linearGradient id="SVGID_46_" gradientUnits="userSpaceOnUse" x1="-7798.0005" y1="340.5142" x2="-7798.0005" y2="317.7151" gradientTransform="matrix(-1 0 0 1 -7456.5757 0)">
		<stop  offset="0.1865" style="stop-color:#36D4EA"/>
		<stop  offset="0.7374" style="stop-color:#E4FBFD"/>
		<stop  offset="0.784" style="stop-color:#F4FFFF"/>
	</linearGradient>
	<path class="st62" d="M322.3,334.8v-3.6c0-1.4,1.1-2.5,2.5-2.5h33.3c1.4,0,2.5,1.1,2.5,2.5v3.6H322.3z"/>
	
		<linearGradient id="SVGID_47_" gradientUnits="userSpaceOnUse" x1="-7781.5425" y1="305.7861" x2="-7781.5425" y2="297.584" gradientTransform="matrix(-1 0 0 1 -7456.5757 0)">
		<stop  offset="0" style="stop-color:#E4FBFD;stop-opacity:0.6"/>
		<stop  offset="1" style="stop-color:#FFFFFF;stop-opacity:0.3"/>
	</linearGradient>
	<path class="st63" d="M320.8,305.8v-4c0-2.3,1.9-4.2,4.2-4.2h0c2.3,0,4.2,1.9,4.2,4.2v4H320.8z"/>
	
		<linearGradient id="SVGID_48_" gradientUnits="userSpaceOnUse" x1="-7781.563" y1="333.9982" x2="-7781.563" y2="310.6304" gradientTransform="matrix(-1 0 0 1 -7456.5757 0)">
		<stop  offset="0" style="stop-color:#E4FBFD"/>
		<stop  offset="0.8135" style="stop-color:#36D4EA"/>
	</linearGradient>
	<path class="st64" d="M317.7,334v-20.9c0-1.4,1.1-2.5,2.5-2.5h9.6c1.4,0,2.5,1.1,2.5,2.5V334H317.7z"/>
	<linearGradient id="SVGID_49_" gradientUnits="userSpaceOnUse" x1="351.3437" y1="323.8685" x2="351.3437" y2="306.1485">
		<stop  offset="0" style="stop-color:#E4FBFD;stop-opacity:0.8"/>
		<stop  offset="1" style="stop-color:#FFFFFF;stop-opacity:0.3"/>
	</linearGradient>
	<path class="st65" d="M356.6,306.1h-7.5c-1.7,0-3,1.4-3,3v11.7c0,1.7,1.4,3,3,3h7.5V306.1z"/>
	
		<linearGradient id="SVGID_50_" gradientUnits="userSpaceOnUse" x1="-7711.9248" y1="323.8685" x2="-7711.9248" y2="306.1485" gradientTransform="matrix(-1 0 0 1 -7412.8408 0)">
		<stop  offset="0" style="stop-color:#E4FBFD;stop-opacity:0.8"/>
		<stop  offset="1" style="stop-color:#FFFFFF;stop-opacity:0.3"/>
	</linearGradient>
	<path class="st66" d="M293.8,306.1h7.5c1.7,0,3,1.4,3,3v11.7c0,1.7-1.4,3-3,3h-7.5V306.1z"/>
	
		<linearGradient id="SVGID_51_" gradientUnits="userSpaceOnUse" x1="-7781.5957" y1="306.1485" x2="-7781.5957" y2="280.3798" gradientTransform="matrix(-1 0 0 1 -7456.5757 0)">
		<stop  offset="0.1865" style="stop-color:#36D4EA"/>
		<stop  offset="0.7374" style="stop-color:#E4FBFD"/>
		<stop  offset="0.784" style="stop-color:#F4FFFF"/>
	</linearGradient>
	<path class="st67" d="M306.3,301.8l16.6-20.5c0.9-1.1,2.5-1.2,3.5-0.4c0.1,0.1,0.2,0.1,0.2,0.2c0.2,0.1,0.3,0.3,0.4,0.4l16.6,20.5
		c0.9,1.1,0.7,2.7-0.4,3.5c-0.5,0.4-1,0.6-1.6,0.6c-0.7,0-1.5-0.3-2-0.9l-14.9-18.4l-14.7,18.1c-0.5,0.6-1.2,0.9-2,0.9
		c-0.6,0-1.1-0.2-1.6-0.6C305.6,304.4,305.4,302.8,306.3,301.8z"/>
</g>
<g>
	<circle class="st57" cx="253.2" cy="331.7" r="10.4"/>
	<path class="st68" d="M331,336.2c-1.7,3.5-5.3,5.9-9.4,5.9c-4.1,0-7.7-2.4-9.4-5.9h2.1c-1-1.4-1.6-3.2-1.6-5.1
		c0-4.9,3.9-8.8,8.8-8.8s8.8,3.9,8.8,8.8c0,1.9-0.6,3.7-1.6,5.1H331z"/>
	<circle class="st69" cx="253.2" cy="331.7" r="5.7"/>
	<circle class="st57" cx="321.6" cy="331.7" r="10.4"/>
	<circle class="st69" cx="321.6" cy="331.7" r="5.7"/>
	
		<linearGradient id="SVGID_52_" gradientUnits="userSpaceOnUse" x1="285.9694" y1="1807.2347" x2="285.9694" y2="1707.9647" gradientTransform="matrix(1 0 0 -1 0 2092)">
		<stop  offset="0.1865" style="stop-color:#36D4EA"/>
		<stop  offset="0.7374" style="stop-color:#E4FBFD"/>
		<stop  offset="0.784" style="stop-color:#F4FFFF"/>
	</linearGradient>
	<path class="st70" d="M322.2,318.6c-6.5-1.7-16.6-1.6-21.4-1.1c-4.1-1.9-10.3-4.3-11.8-5.3c-8.5-5.2-23-1-23-1l-23.8,6
		c-2.5-0.4-4.9,1.3-5.3,3.8l1.1,11.8c0.3,2,2,3.5,4,3.5h1.9c-0.7-1.4-1.1-2.9-1.1-4.5c0-5.7,4.7-10.4,10.4-10.4s10.4,4.7,10.4,10.4
		c0,1.6-0.4,3.2-1.1,4.5h49.7c-0.6-1.4-1-2.9-1-4.5c0-5.8,4.7-10.4,10.5-10.4c6.1,0,11,5.7,10.3,11.7c-0.1,1.2-0.5,2.3-1,3.3h4.2
		v-8.1C335.2,327.1,332.7,321.3,322.2,318.6z"/>
	<linearGradient id="SVGID_53_" gradientUnits="userSpaceOnUse" x1="269.4828" y1="315.0085" x2="301.7568" y2="315.0085">
		<stop  offset="0" style="stop-color:#E4FBFD;stop-opacity:0.8"/>
		<stop  offset="1" style="stop-color:#FFFFFF;stop-opacity:0.3"/>
	</linearGradient>
	<path class="st71" d="M301.8,317.3c-0.9,0.3-3.4,1.2-5.9,1.1c-1.7-0.1-7.2-0.1-12.4,0c-2.4,0-4.8,0-6.5,0c-1.9,0-3.8-0.7-5.2-1.9
		l-2.3-2c0,0,3-0.9,8.1-1.8c2.8-0.5,6.3-0.9,10.2-1.2L301.8,317.3z"/>
	<path class="st72" d="M258.9,331.7c0,3.1-2.5,5.7-5.7,5.7s-5.7-2.5-5.7-5.7H258.9z"/>
	<path class="st72" d="M327.3,331.7c0,3.1-2.5,5.7-5.7,5.7c-3.1,0-5.7-2.5-5.7-5.7H327.3z"/>
	<linearGradient id="SVGID_54_" gradientUnits="userSpaceOnUse" x1="269.5408" y1="315.5537" x2="283.5049" y2="315.5537">
		<stop  offset="0" style="stop-color:#E4FBFD;stop-opacity:0.8"/>
		<stop  offset="1" style="stop-color:#FFFFFF;stop-opacity:0.3"/>
	</linearGradient>
	<path class="st73" d="M283.5,318.4c-2.4,0-4.8,0-6.5,0c-1.9,0-3.8-0.7-5.2-1.9l-2.3-2c0,0,3-0.9,8.1-1.8L283.5,318.4z"/>
</g>
</svg>
