<svg enable-background="new 0 0 64 64" viewBox="0 0 64 64" xmlns="http://www.w3.org/2000/svg"><path d="m63 39.7c-4.2 17.2-21.6 27.6-38.7 23.3-17.2-4.2-27.6-21.6-23.3-38.7 4.2-17.2 21.6-27.6 38.7-23.3 17.2 4.2 27.6 21.6 23.3 38.7z" fill="#f7931a"/><path d="m46.1 27.4c.6-4.3-2.6-6.5-7-8.1l1.4-5.8-3.5-.8-1.4 5.6c-.9-.2-1.9-.4-2.8-.7l1.4-5.7-3.5-.9-1.4 5.8c-.8-.2-1.5-.3-2.2-.5l-4.8-1.2-.9 3.8s2.6.6 2.5.6c1.4.4 1.7 1.3 1.6 2l-1.6 6.6c.1 0 .2.1.4.1-.1 0-.2-.1-.4-.1l-2.3 9.2c-.2.4-.6 1.1-1.6.8 0 .1-2.6-.6-2.6-.6l-1.7 4 4.6 1.1c.9.2 1.7.4 2.5.6l-1.5 5.8 3.5.9 1.4-5.8c1 .3 1.9.5 2.8.7l-1.4 5.7 3.5.9 1.5-5.8c6 1.1 10.5.7 12.4-4.7 1.5-4.4-.1-6.9-3.2-8.5 2.1-.3 3.8-1.8 4.3-5zm-8 11.3c-1.1 4.4-8.4 2-10.8 1.4l1.9-7.7c2.4.6 10 1.7 8.9 6.3zm1.1-11.3c-1 4-7.1 2-9.1 1.5l1.7-7c2 .4 8.4 1.3 7.4 5.5z" fill="#fff"/></svg>