<?xml version="1.0" encoding="utf-8"?>
<!-- Generator: Adobe Illustrator 23.0.1, SVG Export Plug-In . SVG Version: 6.00 Build 0)  -->
<!DOCTYPE svg PUBLIC "-//W3C//DTD SVG 1.1//EN" "http://www.w3.org/Graphics/SVG/1.1/DTD/svg11.dtd" [
	<!ENTITY ns_extend "http://ns.adobe.com/Extensibility/1.0/">
	<!ENTITY ns_ai "http://ns.adobe.com/AdobeIllustrator/10.0/">
	<!ENTITY ns_graphs "http://ns.adobe.com/Graphs/1.0/">
	<!ENTITY ns_vars "http://ns.adobe.com/Variables/1.0/">
	<!ENTITY ns_imrep "http://ns.adobe.com/ImageReplacement/1.0/">
	<!ENTITY ns_sfw "http://ns.adobe.com/SaveForWeb/1.0/">
	<!ENTITY ns_custom "http://ns.adobe.com/GenericCustomNamespace/1.0/">
	<!ENTITY ns_adobe_xpath "http://ns.adobe.com/XPath/1.0/">
]>
<svg version="1.1" id="Layer_1" xmlns:x="&ns_extend;" xmlns:i="&ns_ai;" xmlns:graph="&ns_graphs;"
	 xmlns="http://www.w3.org/2000/svg" xmlns:xlink="http://www.w3.org/1999/xlink" x="0px" y="0px" viewBox="0 0 50 50"
	 style="enable-background:new 0 0 50 50;" xml:space="preserve">
<style type="text/css">
	.st0{fill:#68D5C0;}
	.st1{fill:#B9FEF2;}
	.st2{fill:#2C9984;}
	.st3{fill:#2D9984;}
	.st4{fill:#65D1BC;}
</style>
<metadata>
	<sfw  xmlns="&ns_sfw;">
		<slices></slices>
		<sliceSourceBounds  bottomLeftOrigin="true" height="50" width="50" x="0" y="-50"></sliceSourceBounds>
	</sfw>
</metadata>
<g>
	<g>
		<polygon class="st0" points="42.3,49.2 48,26.8 21.2,0 2.3,19 29.1,45.9 		"/>
		<path class="st1" d="M47.1,30.2L23.7,6.7c-0.8,0.8-1.9,1.2-3,1.1c-0.8-0.1-1.4-0.5-1.9-1l-9.6,9.7c0.9,0.7,1.5,2,1.3,3.2
			c-0.1,0.8-0.5,1.5-1.1,2l25.5,25.6c0.8-0.8,1.9-1.3,3.1-1.1c0.9,0.1,1.7,0.7,2.3,1.4l3.4-3.4L47.1,30.2z"/>
		<ellipse transform="matrix(0.6973 -0.7167 0.7167 0.6973 -10.4059 29.4092)" class="st0" cx="29.6" cy="27" rx="9" ry="7.9"/>
		<ellipse class="st2" cx="42.5" cy="36.8" rx="3.5" ry="3.5"/>
		<ellipse class="st0" cx="19.2" cy="16.9" rx="3.5" ry="3.5"/>
		<g>
			
				<rect x="0" y="23.1" transform="matrix(1 -2.537326e-03 2.537326e-03 1 -9.256046e-02 6.355068e-02)" class="st3" width="49.9" height="26.9"/>
			<path class="st4" d="M43.9,28.3c-0.5-0.7-0.7-1.5-0.7-2.3L6.5,26.1c0,1.1-0.5,2.2-1.4,2.9c-0.6,0.5-1.3,0.7-2.1,0.7l0,13.7
				c1.2-0.1,2.4,0.3,3.2,1.4C6.8,45.4,7,46.2,6.9,47L43,46.9c-0.1-1.1,0.4-2.3,1.4-3c0.8-0.6,1.7-0.8,2.6-0.6l0-13.5
				C45.8,29.8,44.6,29.3,43.9,28.3z"/>
			
				<ellipse transform="matrix(1 -2.462993e-03 2.462993e-03 1 -8.923592e-02 6.168480e-02)" class="st3" cx="25" cy="36.3" rx="7.9" ry="9"/>
			<ellipse class="st3" cx="39.5" cy="36.5" rx="3.5" ry="3.5"/>
			<ellipse class="st3" cx="10.5" cy="36.6" rx="3.5" ry="3.5"/>
		</g>
	</g>
</g>
</svg>
