<?xml version="1.0" encoding="utf-8"?>
<!-- Generator: Adobe Illustrator 23.0.1, SVG Export Plug-In . SVG Version: 6.00 Build 0)  -->
<!DOCTYPE svg PUBLIC "-//W3C//DTD SVG 1.1//EN" "http://www.w3.org/Graphics/SVG/1.1/DTD/svg11.dtd" [
	<!ENTITY ns_extend "http://ns.adobe.com/Extensibility/1.0/">
	<!ENTITY ns_ai "http://ns.adobe.com/AdobeIllustrator/10.0/">
	<!ENTITY ns_graphs "http://ns.adobe.com/Graphs/1.0/">
	<!ENTITY ns_vars "http://ns.adobe.com/Variables/1.0/">
	<!ENTITY ns_imrep "http://ns.adobe.com/ImageReplacement/1.0/">
	<!ENTITY ns_sfw "http://ns.adobe.com/SaveForWeb/1.0/">
	<!ENTITY ns_custom "http://ns.adobe.com/GenericCustomNamespace/1.0/">
	<!ENTITY ns_adobe_xpath "http://ns.adobe.com/XPath/1.0/">
]>
<svg version="1.1" id="Layer_1" xmlns:x="&ns_extend;" xmlns:i="&ns_ai;" xmlns:graph="&ns_graphs;"
	 xmlns="http://www.w3.org/2000/svg" xmlns:xlink="http://www.w3.org/1999/xlink" x="0px" y="0px" viewBox="0 0 58 40"
	 style="enable-background:new 0 0 58 40;" xml:space="preserve">
<style type="text/css">
	.st0{fill:#366796;}
	.st1{fill:#5488A8;}
	.st2{fill:#121149;}
	.st3{fill:#273B7A;}
	.st4{opacity:0.5;fill:#FFFFFF;}
	.st5{opacity:0.25;fill:#FFFFFF;}
</style>
<metadata>
	<sfw  xmlns="&ns_sfw;">
		<slices></slices>
		<sliceSourceBounds  bottomLeftOrigin="true" height="40" width="58" x="0" y="-40"></sliceSourceBounds>
	</sfw>
</metadata>
<g>
	<path class="st0" d="M53.2,0H29l-8.5,20.1L29,40h24.1c2.7,0,4.8-2.2,4.8-4.9V4.9C58,2.2,55.8,0,53.2,0z"/>
	<path class="st1" d="M4.8,0C2.2,0,0,2.2,0,4.9v30.3C0,37.8,2.2,40,4.8,40H29V0C29,0,4.8,0,4.8,0z"/>
	<polygon class="st2" points="29,16 58,16 58,8.1 29,8.1 27.4,12.1 	"/>
	<rect y="8.1" class="st3" width="29" height="7.9"/>
	<rect x="4.9" y="27.3" class="st4" width="8.5" height="3.2"/>
	<rect x="44.8" y="27.3" class="st5" width="8.5" height="3.2"/>
	<rect x="31.5" y="27.3" class="st5" width="8.5" height="3.2"/>
	<rect x="18.2" y="27.3" class="st4" width="8.5" height="3.2"/>
</g>
</svg>
