<?xml version="1.0" encoding="utf-8"?>
<!-- Generator: Adobe Illustrator 23.0.1, SVG Export Plug-In . SVG Version: 6.00 Build 0)  -->
<!DOCTYPE svg PUBLIC "-//W3C//DTD SVG 1.1//EN" "http://www.w3.org/Graphics/SVG/1.1/DTD/svg11.dtd" [
	<!ENTITY ns_extend "http://ns.adobe.com/Extensibility/1.0/">
	<!ENTITY ns_ai "http://ns.adobe.com/AdobeIllustrator/10.0/">
	<!ENTITY ns_graphs "http://ns.adobe.com/Graphs/1.0/">
	<!ENTITY ns_vars "http://ns.adobe.com/Variables/1.0/">
	<!ENTITY ns_imrep "http://ns.adobe.com/ImageReplacement/1.0/">
	<!ENTITY ns_sfw "http://ns.adobe.com/SaveForWeb/1.0/">
	<!ENTITY ns_custom "http://ns.adobe.com/GenericCustomNamespace/1.0/">
	<!ENTITY ns_adobe_xpath "http://ns.adobe.com/XPath/1.0/">
]>
<svg version="1.1" id="Layer_1" xmlns:x="&ns_extend;" xmlns:i="&ns_ai;" xmlns:graph="&ns_graphs;"
	 xmlns="http://www.w3.org/2000/svg" xmlns:xlink="http://www.w3.org/1999/xlink" x="0px" y="0px" viewBox="0 0 50 42"
	 style="enable-background:new 0 0 50 42;" xml:space="preserve">
<style type="text/css">
	.st0{fill:#0078AA;}
	.st1{fill:#2FB1E8;}
	.st2{fill:#00425F;}
	.st3{fill:#3CBEF5;}
	.st4{fill:#7ED8FD;}
	.st5{fill:#005275;}
	.st6{fill:#0078AB;}
</style>
<metadata>
	<sfw  xmlns="&ns_sfw;">
		<slices></slices>
		<sliceSourceBounds  bottomLeftOrigin="true" height="42" width="50" x="0" y="-42"></sliceSourceBounds>
	</sfw>
</metadata>
<g>
	<path class="st0" d="M38.2,0c-1.6,0-3.1,0.7-4.2,1.7l-6.9,6.8l-1,4.9l12.2-1.4c3.3,0,6-2.7,6-6S41.5,0,38.2,0z"/>
	<path class="st1" d="M11.8,0c1.6,0,3.1,0.7,4.2,1.7l6.9,6.8l1,4.9l-12.2-1.4c-3.3,0-6-2.7-6-6S8.5,0,11.8,0z"/>
	<rect x="20.8" y="6.5" class="st2" width="8.3" height="7"/>
	<path class="st3" d="M45.8,12.1H25l-7.3,12.9L25,42h20.8c2.3,0,4.2-1.9,4.2-4.2V16.2C50,13.9,48.1,12.1,45.8,12.1z"/>
	<path class="st4" d="M4.2,12.1c-2.3,0-4.2,1.9-4.2,4.2v21.6C0,40.1,1.9,42,4.2,42H25V12.1H4.2z"/>
	<g>
		<polygon class="st5" points="30.6,12.1 30.6,26.3 25,23.2 22.2,22.2 25,12.1 		"/>
		<polygon class="st6" points="25,12.1 25,23.2 19.4,26.3 19.4,12.1 		"/>
	</g>
</g>
</svg>
