<?xml version="1.0" encoding="UTF-8"?>
<svg width="74px" height="56px" viewBox="0 0 74 56" version="1.1" xmlns="http://www.w3.org/2000/svg" xmlns:xlink="http://www.w3.org/1999/xlink">
    <!-- Generator: Sketch 54.1 (76490) - https://sketchapp.com -->
    <title>icon-car</title>
    <desc>Created with Sketch.</desc>
    <defs>
        <polygon id="path-1" points="0 0.0227929825 73.2307692 0.0227929825 73.2307692 31.5897436 0 31.5897436"></polygon>
    </defs>
    <g id="Page-1" stroke="none" stroke-width="1" fill="none" fill-rule="evenodd">
        <g id="Desktop" transform="translate(-1141.000000, -1336.000000)">
            <g id="Block" transform="translate(1024.000000, 1336.000000)">
                <g id="icon-car" transform="translate(117.000000, 0.000000)">
                    <path d="M65.0976372,23.8260439 L42.7176567,6.64455463 L20.3376762,23.8260439 C19.1822877,24.712627 17.5399605,24.57596 16.5486302,23.5124108 C15.424657,22.3069381 15.5764981,20.4023615 16.8784918,19.3878721 L40.7978268,0.750354149 C41.8799127,-0.25011805 43.5554006,-0.25011805 44.6357413,0.750354149 L44.6374866,0.750354149 L68.5568215,19.3878721 C69.8605606,20.4023615 70.0106564,22.3069381 68.8866832,23.5124108 C67.8953529,24.57596 66.2530257,24.712627 65.0976372,23.8260439" id="Fill-1" fill="#785A9F"></path>
                    <path d="M65.0976372,23.8260439 L42.7176567,6.64455463 L20.3376762,23.8260439 C19.1822877,24.712627 17.5399605,24.57596 16.5486302,23.5124108 C15.424657,22.3069381 15.5764981,20.4023615 16.8784918,19.3878721 L40.7978268,0.750354149 C41.8799127,-0.25011805 43.5554006,-0.25011805 44.6357413,0.750354149 L44.6374866,0.750354149 L68.5568215,19.3878721 C69.8605606,20.4023615 70.0106564,22.3069381 68.8866832,23.5124108 C67.8953529,24.57596 66.2530257,24.712627 65.0976372,23.8260439" id="Fill-3" fill="#DAC2E9"></path>
                    <polygon id="Fill-5" fill="#785A9F" points="42.3589744 6.46153846 20.8205128 23.1234837 20.8205128 23.2008257 20.8205128 37.3333333 63.8974359 37.3333333 63.8974359 23.2008257 63.8974359 23.1234837"></polygon>
                    <g id="Group-9" transform="translate(0.000000, 24.410256)">
                        <mask id="mask-2" fill="white">
                            <use xlink:href="#path-1"></use>
                        </mask>
                        <g id="Clip-8"></g>
                        <path d="M68.2645026,6.94079568 L54.3122974,1.40986991 C51.9898359,0.490366532 49.5418359,0.0227929825 47.038041,0.0227929825 L38.4857333,0.0227929825 C35.4222462,0.0227929825 32.358759,0.747618893 29.6265538,2.12426667 L16.9837846,8.48083347 L7.91537436,9.78969177 C5.71670769,10.1060426 3.70634872,11.1958888 2.25219487,12.8593382 C0.799784615,14.5210494 -0.000523076923,16.6451196 -0.000523076923,18.8421938 L-0.000523076923,24.1367255 C-0.000523076923,24.9536756 0.670758974,25.6176648 1.49722051,25.6176648 L7.92234872,25.6176648 C8.24491282,27.0586256 8.98245128,28.3761749 10.0721949,29.4277808 C11.5228615,30.8218105 13.4338359,31.5900912 15.4581436,31.5900912 C17.4807077,31.5900912 19.3916821,30.8218105 20.8423487,29.4277808 C21.9338359,28.3744367 22.6731179,27.0534111 22.9939385,25.6176648 L49.834759,25.6176648 C50.1555795,27.0586256 50.8948615,28.3761749 51.9863487,29.4260426 C53.4352718,30.8218105 55.3462462,31.5900912 57.3688103,31.5900912 C59.3913744,31.5900912 61.3040923,30.8218105 62.7530154,29.4277808 C63.8445026,28.3761749 64.582041,27.0568874 64.9046051,25.6176648 L71.7325026,25.6176648 C72.5607077,25.6176648 73.2319897,24.9536756 73.2319897,24.1367255 L73.2319897,14.2012221 C73.2319897,10.9873058 71.2809128,8.13667152 68.2645026,6.94079568" id="Fill-7" fill="#A786C4" mask="url(#mask-2)"></path>
                    </g>
                    <path d="M20.8205128,48.4615385 C20.8205128,45.8850792 18.5692565,43.7948718 15.7948718,43.7948718 C13.0186832,43.7948718 10.7692308,45.8850792 10.7692308,48.4615385 C10.7692308,51.0379977 13.0186832,53.1282051 15.7948718,53.1282051 C18.5692565,53.1282051 20.8205128,51.0379977 20.8205128,48.4615385" id="Fill-10" fill="#DAC2E9"></path>
                    <path d="M62.4615385,47.7435897 C62.4615385,45.1654421 60.2120861,43.0769231 57.4358974,43.0769231 C54.6597088,43.0769231 52.4102564,45.1654421 52.4102564,47.7435897 C52.4102564,50.320049 54.6597088,52.4102564 57.4358974,52.4102564 C60.2120861,52.4102564 62.4615385,50.320049 62.4615385,47.7435897" id="Fill-12" fill="#DAC2E9"></path>
                </g>
            </g>
        </g>
    </g>
</svg>