<?xml version="1.0" encoding="utf-8"?>
<!-- Generator: Adobe Illustrator 23.0.1, SVG Export Plug-In . SVG Version: 6.00 Build 0)  -->
<svg version="1.1" id="Layer_1" xmlns="http://www.w3.org/2000/svg" xmlns:xlink="http://www.w3.org/1999/xlink" x="0px" y="0px"
	 viewBox="0 0 72 50" style="enable-background:new 0 0 72 50;" xml:space="preserve">
<style type="text/css">
	.st0{fill:#D3C1E7;}
	.st1{fill:#836AAA;}
	.st2{fill:#AE95CE;}
	.st3{fill:#FFFFFF;}
</style>
<g>
	<path class="st0" d="M57.3,26.4c0.7,1.9,2.6,3.2,4.8,2.9c1.8-0.3,3.2-1.6,3.6-3.4c0.6-2.8-1.5-5.3-4.3-5.3c-1.9,0-3.5,1.2-4.1,3
		h-3.9c0.1,0.7,0.1,1.3,0.1,2c0,0.3,0,0.5,0,0.8H57.3z"/>
	<path class="st0" d="M3.9,8.6c2.2,0.3,4.1-1,4.8-2.9h8.2l7,7.8c0.7-0.7,1.4-1.2,2.2-1.8l-7.5-8.4c-0.1-0.1-0.3-0.2-0.5-0.3
		C17.8,3,17.6,3,17.4,3H8.7C8.1,1.3,6.5,0.1,4.6,0.1c-2.7,0-4.9,2.5-4.3,5.2C0.7,7,2.1,8.3,3.9,8.6z"/>
	<path class="st0" d="M48.6,13.7l7.2-8h7.6c0.7,1.9,2.6,3.2,4.8,2.9c1.8-0.3,3.2-1.6,3.6-3.3C72.5,2.5,70.3,0,67.6,0
		c-1.9,0-3.5,1.2-4.1,2.9h-8.2c-0.2,0-0.4,0-0.5,0.1c-0.2,0.1-0.3,0.2-0.5,0.3l-7.7,8.6C47.3,12.4,48,13,48.6,13.7z"/>
	<path class="st0" d="M14.9,23.6c-0.7-1.9-2.6-3.2-4.8-2.9c-1.8,0.3-3.2,1.6-3.6,3.4c-0.6,2.8,1.5,5.3,4.3,5.3c1.9,0,3.5-1.2,4.1-3
		h3.9c0-0.3,0-0.6,0-0.9c0-0.7,0-1.3,0.1-1.9H14.9z"/>
	<path class="st0" d="M71.9,44.7c-0.4-1.7-1.8-3-3.6-3.3c-2.2-0.3-4.1,1-4.8,2.9h-7.6l-6.6-7.5c-0.6,0.7-1.3,1.3-2,1.9l7.1,7.9
		c0.1,0.1,0.3,0.2,0.5,0.3c0.2,0.1,0.4,0.1,0.5,0.1h8.2c0.6,1.7,2.2,2.9,4.1,2.9C70.4,49.9,72.5,47.5,71.9,44.7z"/>
	<path class="st0" d="M23.3,37l-6.4,7.3H8.5c-0.7-1.9-2.6-3.2-4.8-2.9c-1.8,0.3-3.2,1.6-3.6,3.3C-0.5,47.5,1.7,50,4.4,50
		c1.9,0,3.5-1.2,4.1-2.9h8.9c0.2,0,0.4,0,0.5-0.1c0.2-0.1,0.3-0.2,0.5-0.3l6.9-7.8C24.6,38.3,23.9,37.7,23.3,37z"/>
	<path class="st1" d="M21.1,34.3c-4.8-8.3-1.9-19,6.4-23.8c8.3-4.8,19-1.9,23.8,6.4s1.9,19-6.4,23.8C36.5,45.4,25.9,42.6,21.1,34.3z
		"/>
	<path class="st2" d="M36.1,8.2c-2.9,0-5.9,0.7-8.6,2.3c-8.3,4.8-11.2,15.5-6.4,23.8c3.2,5.6,9,8.7,15,8.7V8.2z"/>
	<g>
		<path class="st3" d="M36.1,35.3c-5.4,0-9.7-4.4-9.7-9.7c0-5.4,4.4-9.7,9.7-9.7s9.7,4.4,9.7,9.7C45.9,30.9,41.5,35.3,36.1,35.3z"/>
	</g>
	<g>
		<path class="st1" d="M36.1,31.6c-3.2,0-5.9-2.6-5.9-5.9c0-3.2,2.6-5.9,5.9-5.9s5.9,2.6,5.9,5.9C42,28.9,39.3,31.6,36.1,31.6z"/>
	</g>
	<path class="st2" d="M30.2,25.7c0,3.2,2.6,5.9,5.9,5.9V19.8C32.9,19.8,30.2,22.4,30.2,25.7z"/>
</g>
</svg>
