<?xml version="1.0" encoding="UTF-8"?>
<svg width="10px" height="30px" viewBox="0 0 10 30" version="1.1" xmlns="http://www.w3.org/2000/svg" xmlns:xlink="http://www.w3.org/1999/xlink">
    <!-- Generator: sketchtool 52.4 (67378) - http://www.bohemiancoding.com/sketch -->
    <title>2265F662-38DF-4081-8E43-75040F6EBF93</title>
    <desc>Created with sketchtool.</desc>
    <g id="Page-1" stroke="none" stroke-width="1" fill="none" fill-rule="evenodd">
        <g id="Homepage-New-Style---Mobile" transform="translate(-290.000000, -4980.000000)" fill="#00B4E8">
            <g id="Section" transform="translate(23.000000, 4700.000000)">
                <path d="M277,295.325848 C277,295.325848 277,295.325848 277,295.325848 C277,295.22534 277,295.22534 277,295.22534 C277,295.22534 277,295.22534 277,295.124832 C277,295.024324 277,295.124832 277,295.024324 C277,295.024324 277,295.024324 277,294.923816 C277,294.923816 277,294.923816 277,294.823308 C277,294.823308 277,294.823308 277,294.7228 C277,294.7228 277,294.622292 277,294.622292 C277,294.622292 277,294.622292 277,294.622292 L268.290534,280.350172 C268.099117,280.048648 267.620575,279.847632 267.33345,280.149156 C267.046325,280.350172 266.854908,280.852711 267.142033,281.154235 L275.564374,295.024324 L267.142033,308.894413 C266.950616,309.195937 267.046325,309.698476 267.33345,309.899492 C267.429159,310 267.620575,310 267.716284,310 C267.907701,310 268.194826,309.899492 268.290534,309.698476 L277,295.426356 C277,295.426356 277,295.426356 277,295.426356 C277,295.526863 277,295.426356 277,295.325848 C277,295.426356 277,295.426356 277,295.325848 Z" id="icon-arrow-right"></path>
            </g>
        </g>
    </g>
</svg>