<?xml version="1.0" encoding="utf-8"?>
<!-- Generator: Adobe Illustrator 23.0.1, SVG Export Plug-In . SVG Version: 6.00 Build 0)  -->
<svg version="1.1" id="Layer_1" xmlns="http://www.w3.org/2000/svg" xmlns:xlink="http://www.w3.org/1999/xlink" x="0px" y="0px"
	 viewBox="0 0 72 64" style="enable-background:new 0 0 72 64;" xml:space="preserve">
<style type="text/css">
	.st0{fill:#9D85C1;}
	.st1{fill:#836AAA;}
	.st2{fill:#705A9B;}
	.st3{fill:#EDE5F4;}
	.st4{fill:#D3C1E7;}
</style>
<g>
	<path class="st0" d="M0,32c0,0.9,0.2,1.9,0.7,2.7L16,61.3c1,1.7,2.7,2.7,4.7,2.7h30.6c1.9,0,3.7-1,4.7-2.7c0,0,0.6-1,0.6-1.1
		c0.7-1.3,0.5-2.3-0.2-3.5l-1.8-3.1l-2.3-4C52.1,49.3,52,49,52,48.7c0-0.3,0.1-0.6,0.2-0.9l5.2-9c0,0,0-0.1,0.1-0.1
		c0,0,0-0.1,0.1-0.1c0.3-0.4,0.9-0.7,1.4-0.7h6.6c0.9,0,1.8,0.1,2.7,0c0.4-0.1,0.9-0.3,1.2-0.5c0.9-0.7,1.3-1.7,1.9-2.6
		c0.5-0.8,0.7-1.8,0.7-2.7c0-0.9-0.2-1.9-0.7-2.7L56,2.7C55,1,53.2,0,51.3,0H20.7c-1.7,0-3.3,0.8-4.3,2.1c-0.1,0.1-0.1,0.2-0.2,0.3
		c-0.1,0.1-0.1,0.2-0.2,0.3L0.7,29.3C0.2,30.1,0,31.1,0,32z"/>
	<path class="st1" d="M67.6,44c-0.9,0.3-1.5,1.3-1.2,2.2l0.3,1.2l-5.5-3.3c-0.9-0.5-1.9-0.2-2.4,0.7c-0.5,0.9-0.2,1.9,0.7,2.4
		l5.5,3.3l-1.2,0.3c-1,0.2-1.6,1.2-1.3,2.1s1.2,1.6,2.1,1.3l5.6-1.3c0,0,0,0,0,0c0,0,0,0,0.1,0c0,0,0,0,0,0c0,0,0.1,0,0.1-0.1
		c0,0,0,0,0,0c0,0,0.1,0,0.1,0c0,0,0,0,0,0c0.1,0,0.1-0.1,0.2-0.1c0,0,0.1,0,0.1,0c0,0,0,0,0,0c0,0,0,0,0,0c0.1,0,0.1-0.1,0.2-0.1
		c0,0,0.1-0.1,0.1-0.1c0,0,0,0,0,0c0.1-0.1,0.1-0.2,0.2-0.3c0,0,0,0,0,0c0,0,0,0,0,0c0,0,0,0,0,0c0,0,0,0,0,0
		c0.1-0.1,0.1-0.2,0.1-0.3c0,0,0,0,0,0c0,0,0-0.1,0-0.1c0-0.1,0-0.1,0-0.2c0,0,0,0,0,0c0,0,0,0,0,0c0,0,0-0.1,0-0.1
		c0-0.1,0-0.1,0-0.2c0,0,0,0,0,0c0,0,0-0.1,0-0.1c0,0,0,0,0,0c0,0,0-0.1,0-0.1c0,0,0,0,0,0c0,0,0,0,0-0.1c0,0,0,0,0,0l-1.7-5.5
		C69.6,44.3,68.6,43.8,67.6,44z"/>
	<path class="st2" d="M71.3,34.7c0.5-0.8,0.7-1.8,0.7-2.7c0-0.9-0.2-1.9-0.7-2.7L56,2.7c-0.5-0.8-1.2-1.5-2-2L17.9,63.2
		c0.8,0.5,1.8,0.8,2.8,0.8h30.6c1.9,0,3.7-1,4.7-2.7c0,0,0.6-1,0.6-1.1c0.7-1.3,0.5-2.3-0.2-3.5l-1.8-3.1l-2.3-4
		C52.1,49.3,52,49,52,48.7c0-0.3,0.1-0.6,0.2-0.9l5.2-9c0,0,0-0.1,0.1-0.1c0,0,0-0.1,0.1-0.1c0.3-0.4,0.9-0.7,1.4-0.7h6.6
		c0.9,0,1.8,0.1,2.7,0c0.4-0.1,0.9-0.3,1.2-0.5C70.3,36.6,70.8,35.6,71.3,34.7z"/>
	<path class="st3" d="M50.5,32.1L50.5,32.1c-0.6-0.7-1.3-1.3-2.2-1.8c1.2-1.3,1.7-3.1,1.5-5.2c-0.1-1.1-0.4-2.1-0.9-2.9
		c-0.5-0.8-1.3-1.5-2.2-2c-0.8-0.5-1.7-0.8-2.7-1.1c-0.6-0.2-1.3-0.3-2.1-0.4v-4.3c0-0.7-0.5-1.2-1.2-1.2h-9.1
		c-0.7,0-1.2,0.5-1.2,1.2v4.2c-0.3,0-0.5,0-0.9,0l-4.5,0c0,0,0,0,0,0c-0.3,0-0.6,0.1-0.8,0.3c-0.2,0.2-0.3,0.5-0.3,0.8v3.5
		c0,0.7,0.5,1.2,1.2,1.2h2.3c0.5,0,0.6,0.1,0.7,0.4v14.3c0,0,0,0,0,0c0,0,0,0,0,0h-2.3c-0.6,0-1.1,0.4-1.2,1L24,44
		c-0.1,0.3,0,0.7,0.3,1c0.2,0.3,0.6,0.4,0.9,0.4h4.2c0.3,0,0.6,0,1.1,0v0v4.2c0,0.7,0.5,1.2,1.2,1.2h9.1c0.7,0,1.2-0.5,1.2-1.2v-4.3
		c0.8-0.1,1.5-0.1,2.1-0.3c1-0.2,1.9-0.4,2.8-0.8c0.9-0.4,1.7-0.9,2.4-1.5c0.7-0.6,1.2-1.4,1.6-2.3c0.4-0.9,0.7-1.9,0.8-3
		C51.9,35.2,51.5,33.4,50.5,32.1z"/>
	<path class="st4" d="M50.5,32.1c-0.6-0.7-1.3-1.3-2.2-1.8c1.2-1.3,1.7-3.1,1.5-5.2c-0.1-1.1-0.4-2.1-0.9-2.9
		c-0.5-0.8-1.3-1.5-2.2-2c-0.8-0.5-1.7-0.8-2.7-1.1c-0.6-0.2-1.3-0.3-2.1-0.4v-4.3c0-0.7-0.5-1.2-1.2-1.2H36v37.5h4.7
		c0.7,0,1.2-0.5,1.2-1.2v-4.3c0.8-0.1,1.5-0.1,2.1-0.3c1-0.2,1.9-0.4,2.8-0.8c0.9-0.4,1.7-0.9,2.4-1.5c0.7-0.6,1.2-1.4,1.6-2.3
		c0.4-0.9,0.7-1.9,0.8-3C51.9,35.2,51.5,33.4,50.5,32.1L50.5,32.1z"/>
</g>
</svg>
