<?xml version="1.0" encoding="UTF-8"?>
<svg width="231px" height="231px" viewBox="0 0 231 231" version="1.1" xmlns="http://www.w3.org/2000/svg" xmlns:xlink="http://www.w3.org/1999/xlink">
    <!-- Generator: sketchtool 52.4 (67378) - http://www.bohemiancoding.com/sketch -->
    <title>4CC9B614-D625-42A3-98F5-F4C8EB9B229F</title>
    <desc>Created with sketchtool.</desc>
    <g id="Page-1" stroke="none" stroke-width="1" fill="none" fill-rule="evenodd" opacity="0.5">
        <g id="Homepage-New-Style---Desktop" transform="translate(-919.000000, -141.000000)">
            <g id="Hero" transform="translate(60.000000, 78.000000)">
                <g id="Group" transform="translate(859.000000, 63.000000)">
                    <circle id="Oval" fill="#8B66B6" cx="115.5" cy="115.6" r="115.1"></circle>
                    <path d="M115.5,230.7 C179.1,230.7 230.6,179.2 230.6,115.6 L0.4,115.6 C0.4,179.2 52,230.7 115.5,230.7 Z" id="Path" fill="#683F9B"></path>
                    <path d="M50.6,176.9 C35.5,160.9 26.2,139.3 26.2,115.6 C26.2,86.9 39.8,61.4 60.8,45 L45.3,24.4 C18,45.4 0.4,78.4 0.4,115.5 C0.4,146 12.3,173.6 31.6,194.2 L50.6,176.9 Z" id="Path" fill="#D3C1E7"></path>
                    <g transform="translate(73.000000, 44.000000)" id="Path">
                        <path d="M101.1,72.2 C98.9,69.4 96.2,67.1 92.8,65.3 C97.4,60.3 99.3,53.7 98.5,45.6 C98.1,41.4 96.9,37.6 94.9,34.5 C92.9,31.3 90.1,28.7 86.7,26.7 C83.6,24.9 80.2,23.6 76.5,22.7 C74.1,22.1 71.5,21.6 68.7,21.2 L68.7,5.1 C68.7,2.6 66.7,0.6 64.2,0.6 L46.3,0.6 L46.3,142.7 L64.2,142.7 C66.7,142.7 68.7,140.7 68.7,138.2 L68.7,122 C71.6,121.8 74.2,121.4 76.6,121 C80.3,120.4 83.9,119.3 87.2,118 C90.8,116.6 93.8,114.7 96.3,112.5 C98.8,110.2 100.9,107.4 102.5,104 C104.1,100.7 105.1,96.8 105.5,92.5 C106.5,83.9 104.9,77.1 101.1,72.2 Z" fill="#AC87D3"></path>
                        <path d="M46.4,0.6 L29.9,0.6 C27.4,0.6 25.4,2.6 25.4,5.1 L25.4,20.8 C24.4,20.8 23.3,20.8 22.1,20.8 L5.1,20.7 C5.1,20.7 5.1,20.7 5.1,20.7 C3.9,20.7 2.8,21.2 1.9,22 C1.1,22.8 0.6,24 0.6,25.2 L0.6,38.3 C0.6,40.8 2.6,42.8 5.1,42.8 L14,42.8 C16.1,42.8 16.4,43.3 16.6,44.2 L16.6,98.5 C16.6,98.5 16.6,98.5 16.6,98.5 C16.6,98.5 16.5,98.5 16.4,98.5 L7.5,98.5 C5.3,98.5 3.4,100.1 3.1,102.2 L0.6,116.8 C0.4,118.1 0.7,119.4 1.6,120.4 C2.5,121.4 3.7,122 5,122 L21,122 C22,122 23.4,122 25.2,122 L25.2,122.1 L25.2,138 C25.2,140.5 27.2,142.5 29.7,142.5 L46.2,142.5 L46.2,0.6 L46.4,0.6 Z" fill="#EDE5F4"></path>
                    </g>
                    <path d="M0.4,115.6 C0.4,146.1 12.3,173.7 31.6,194.3 L50.6,176.9 C35.5,160.9 26.2,139.3 26.2,115.6 L0.4,115.6 Z" id="Path" fill="#AC87D3"></path>
                </g>
            </g>
        </g>
    </g>
</svg>